%FSLAX34Y34*%
G04 Gerber Fmt 3.4, Leading zero omitted, Abs format*
G04 (created by PCBNEW (2014-03-19 BZR 4756)-product) date Sun 08 Jun 2014 00:25:28 BST*
%MOIN*%
G01*
G70*
G90*
G04 APERTURE LIST*
%ADD10C,0.005906*%
%ADD11C,0.015000*%
%ADD12C,0.006700*%
%ADD13O,0.062992X0.039370*%
%ADD14R,0.062992X0.039370*%
%ADD15R,0.039400X0.027600*%
%ADD16R,0.015700X0.023600*%
%ADD17R,0.023600X0.015700*%
%ADD18R,0.133900X0.133900*%
%ADD19R,0.013800X0.031500*%
%ADD20R,0.011800X0.015700*%
%ADD21R,0.015700X0.011800*%
%ADD22R,0.080000X0.068000*%
%ADD23O,0.080000X0.068000*%
%ADD24C,0.035000*%
%ADD25C,0.008701*%
%ADD26C,0.006701*%
%ADD27C,0.007087*%
G04 APERTURE END LIST*
G54D10*
G54D11*
X60630Y-25550D02*
X54527Y-25550D01*
X60630Y-25550D02*
G75*
G03X61417Y-24763I0J787D01*
G74*
G01*
X61417Y-18660D02*
X61417Y-24763D01*
X53740Y-24763D02*
X53740Y-18660D01*
X53740Y-24763D02*
G75*
G03X54527Y-25550I787J0D01*
G74*
G01*
X54527Y-17873D02*
X60630Y-17873D01*
X61417Y-18660D02*
G75*
G03X60630Y-17873I-787J0D01*
G74*
G01*
X54527Y-17873D02*
G75*
G03X53740Y-18660I0J-787D01*
G74*
G01*
G54D12*
X61166Y-19033D02*
X61166Y-18853D01*
X61166Y-18943D02*
X60851Y-18943D01*
X60896Y-18913D01*
X60926Y-18883D01*
X60941Y-18853D01*
X60851Y-19228D02*
X60851Y-19258D01*
X60866Y-19288D01*
X60881Y-19303D01*
X60911Y-19318D01*
X60971Y-19333D01*
X61046Y-19333D01*
X61106Y-19318D01*
X61136Y-19303D01*
X61151Y-19288D01*
X61166Y-19258D01*
X61166Y-19228D01*
X61151Y-19198D01*
X61136Y-19183D01*
X61106Y-19168D01*
X61046Y-19153D01*
X60971Y-19153D01*
X60911Y-19168D01*
X60881Y-19183D01*
X60866Y-19198D01*
X60851Y-19228D01*
X60956Y-19423D02*
X60956Y-19543D01*
X60851Y-19468D02*
X61121Y-19468D01*
X61151Y-19483D01*
X61166Y-19513D01*
X61166Y-19543D01*
X61166Y-19693D02*
X61151Y-19663D01*
X61136Y-19648D01*
X61106Y-19633D01*
X61016Y-19633D01*
X60986Y-19648D01*
X60971Y-19663D01*
X60956Y-19693D01*
X60956Y-19738D01*
X60971Y-19768D01*
X60986Y-19783D01*
X61016Y-19798D01*
X61106Y-19798D01*
X61136Y-19783D01*
X61151Y-19768D01*
X61166Y-19738D01*
X61166Y-19693D01*
X60851Y-19903D02*
X60851Y-20113D01*
X61166Y-19978D01*
X61136Y-20233D02*
X61151Y-20248D01*
X61166Y-20233D01*
X61151Y-20218D01*
X61136Y-20233D01*
X61166Y-20233D01*
X61151Y-20518D02*
X61166Y-20488D01*
X61166Y-20428D01*
X61151Y-20398D01*
X61136Y-20383D01*
X61106Y-20368D01*
X61016Y-20368D01*
X60986Y-20383D01*
X60971Y-20398D01*
X60956Y-20428D01*
X60956Y-20488D01*
X60971Y-20518D01*
X61166Y-20698D02*
X61151Y-20668D01*
X61136Y-20653D01*
X61106Y-20638D01*
X61016Y-20638D01*
X60986Y-20653D01*
X60971Y-20668D01*
X60956Y-20698D01*
X60956Y-20743D01*
X60971Y-20773D01*
X60986Y-20788D01*
X61016Y-20803D01*
X61106Y-20803D01*
X61136Y-20788D01*
X61151Y-20773D01*
X61166Y-20743D01*
X61166Y-20698D01*
X61166Y-20938D02*
X60956Y-20938D01*
X60986Y-20938D02*
X60971Y-20953D01*
X60956Y-20983D01*
X60956Y-21028D01*
X60971Y-21058D01*
X61001Y-21073D01*
X61166Y-21073D01*
X61001Y-21073D02*
X60971Y-21088D01*
X60956Y-21118D01*
X60956Y-21163D01*
X60971Y-21193D01*
X61001Y-21208D01*
X61166Y-21208D01*
G54D13*
X54921Y-21908D03*
X54921Y-21318D03*
G54D14*
X54921Y-22499D03*
G54D13*
X54921Y-20727D03*
G54D10*
G36*
X58809Y-22961D02*
X58809Y-23040D01*
X58592Y-23040D01*
X58592Y-22961D01*
X58809Y-22961D01*
X58809Y-22961D01*
G37*
G36*
X58809Y-23217D02*
X58809Y-23296D01*
X58592Y-23296D01*
X58592Y-23217D01*
X58809Y-23217D01*
X58809Y-23217D01*
G37*
G36*
X58809Y-23473D02*
X58809Y-23552D01*
X58592Y-23552D01*
X58592Y-23473D01*
X58809Y-23473D01*
X58809Y-23473D01*
G37*
G36*
X58809Y-23729D02*
X58809Y-23808D01*
X58592Y-23808D01*
X58592Y-23729D01*
X58809Y-23729D01*
X58809Y-23729D01*
G37*
G36*
X56762Y-23729D02*
X56762Y-23808D01*
X56545Y-23808D01*
X56545Y-23729D01*
X56762Y-23729D01*
X56762Y-23729D01*
G37*
G36*
X56762Y-23473D02*
X56762Y-23552D01*
X56545Y-23552D01*
X56545Y-23473D01*
X56762Y-23473D01*
X56762Y-23473D01*
G37*
G36*
X56762Y-23217D02*
X56762Y-23296D01*
X56545Y-23296D01*
X56545Y-23217D01*
X56762Y-23217D01*
X56762Y-23217D01*
G37*
G36*
X56762Y-22961D02*
X56762Y-23040D01*
X56545Y-23040D01*
X56545Y-22961D01*
X56762Y-22961D01*
X56762Y-22961D01*
G37*
G54D15*
X56665Y-19920D03*
X57665Y-20295D03*
X57665Y-19545D03*
G54D16*
X57519Y-20826D03*
X57165Y-20826D03*
G54D17*
X56534Y-19428D03*
X56534Y-19074D03*
G54D18*
X54921Y-24369D03*
X54921Y-19054D03*
G54D10*
G36*
X58690Y-20096D02*
X58552Y-20096D01*
X58552Y-19781D01*
X58690Y-19781D01*
X58690Y-20096D01*
X58690Y-20096D01*
G37*
G36*
X58690Y-19664D02*
X58552Y-19664D01*
X58552Y-19349D01*
X58690Y-19349D01*
X58690Y-19664D01*
X58690Y-19664D01*
G37*
G36*
X58887Y-20096D02*
X58749Y-20096D01*
X58749Y-19781D01*
X58887Y-19781D01*
X58887Y-20096D01*
X58887Y-20096D01*
G37*
G54D19*
X58818Y-19507D03*
X58424Y-19939D03*
X58424Y-19507D03*
G54D20*
X56654Y-24255D03*
X56890Y-24255D03*
G54D21*
X56615Y-21810D03*
X56615Y-21574D03*
X58425Y-20393D03*
X58425Y-20629D03*
X58425Y-18857D03*
X58425Y-19093D03*
G54D22*
X60039Y-24688D03*
G54D23*
X60039Y-23688D03*
X60039Y-22688D03*
X60039Y-21688D03*
G54D24*
X59000Y-20485D03*
X59423Y-20977D03*
X58708Y-22161D03*
G54D25*
X56564Y-19659D02*
X56665Y-19659D01*
X56534Y-19629D02*
X56564Y-19659D01*
X56534Y-19428D02*
X56534Y-19629D01*
X56665Y-19790D02*
X56665Y-19659D01*
X56615Y-22962D02*
X56654Y-23001D01*
X56615Y-21810D02*
X56615Y-22962D01*
X56665Y-19790D02*
X56665Y-19920D01*
X56816Y-20332D02*
X56816Y-21810D01*
X56665Y-20180D02*
X56816Y-20332D01*
X56665Y-19920D02*
X56665Y-20180D01*
X56615Y-21810D02*
X56816Y-21810D01*
X55851Y-21810D02*
X56615Y-21810D01*
X55359Y-21318D02*
X55851Y-21810D01*
X54921Y-21318D02*
X55359Y-21318D01*
G54D26*
X58621Y-19939D02*
X58621Y-20197D01*
X58700Y-23257D02*
X58909Y-23257D01*
X59000Y-23166D02*
X58909Y-23257D01*
X59000Y-20485D02*
X59000Y-23166D01*
X58909Y-20485D02*
X59000Y-20485D01*
X58621Y-20197D02*
X58909Y-20485D01*
G54D25*
X59644Y-24225D02*
X58931Y-23513D01*
X60039Y-24225D02*
X59644Y-24225D01*
X60039Y-24688D02*
X60039Y-24225D01*
X58700Y-23513D02*
X58931Y-23513D01*
G54D26*
X58818Y-19939D02*
X58818Y-20197D01*
X56654Y-23257D02*
X56863Y-23257D01*
X59423Y-21780D02*
X59423Y-20977D01*
X59787Y-22143D02*
X59423Y-21780D01*
X60268Y-22143D02*
X59787Y-22143D01*
X60553Y-21858D02*
X60268Y-22143D01*
X60553Y-20476D02*
X60553Y-21858D01*
X58610Y-18533D02*
X60553Y-20476D01*
X58164Y-18533D02*
X58610Y-18533D01*
X56986Y-19711D02*
X58164Y-18533D01*
X56986Y-23134D02*
X56986Y-19711D01*
X56863Y-23257D02*
X56986Y-23134D01*
X59120Y-20197D02*
X58818Y-20197D01*
X59423Y-20500D02*
X59120Y-20197D01*
X59423Y-20977D02*
X59423Y-20500D01*
G54D25*
X56423Y-22972D02*
X55359Y-21908D01*
X56423Y-23513D02*
X56423Y-22972D01*
X56654Y-23513D02*
X56423Y-23513D01*
X54921Y-21908D02*
X55359Y-21908D01*
G54D26*
X58424Y-19939D02*
X58424Y-20197D01*
X58425Y-18857D02*
X58246Y-18857D01*
X56654Y-23769D02*
X56690Y-23769D01*
X56654Y-24255D02*
X56654Y-24076D01*
X57665Y-20295D02*
X57963Y-20295D01*
X58424Y-20197D02*
X58424Y-20255D01*
X58425Y-20256D02*
X58424Y-20255D01*
X58425Y-20313D02*
X58425Y-20256D01*
X58002Y-20255D02*
X57963Y-20295D01*
X58424Y-20255D02*
X58002Y-20255D01*
X58246Y-19761D02*
X58424Y-19939D01*
X58246Y-18857D02*
X58246Y-19761D01*
X56690Y-24039D02*
X56654Y-24076D01*
X56690Y-23769D02*
X56690Y-24039D01*
X57723Y-23769D02*
X58491Y-23001D01*
X56690Y-23769D02*
X57723Y-23769D01*
X58700Y-23001D02*
X58596Y-23001D01*
X58596Y-23001D02*
X58491Y-23001D01*
X58596Y-22272D02*
X58708Y-22161D01*
X58596Y-23001D02*
X58596Y-22272D01*
X58425Y-20393D02*
X58425Y-20353D01*
X58425Y-20353D02*
X58425Y-20313D01*
X57519Y-20826D02*
X57698Y-20826D01*
X58606Y-20826D02*
X57698Y-20826D01*
X58606Y-20498D02*
X58606Y-20826D01*
X58461Y-20353D02*
X58606Y-20498D01*
X58425Y-20353D02*
X58461Y-20353D01*
X58606Y-22059D02*
X58708Y-22161D01*
X58606Y-20826D02*
X58606Y-22059D01*
X58700Y-23769D02*
X58491Y-23769D01*
X58005Y-24255D02*
X56890Y-24255D01*
X58491Y-23769D02*
X58005Y-24255D01*
X56615Y-21574D02*
X56615Y-21414D01*
X56534Y-19074D02*
X56316Y-19074D01*
X57665Y-19545D02*
X57665Y-19784D01*
X57353Y-20096D02*
X57353Y-20607D01*
X57665Y-19784D02*
X57353Y-20096D01*
X58224Y-20607D02*
X57353Y-20607D01*
X58246Y-20629D02*
X58224Y-20607D01*
X57353Y-20607D02*
X57165Y-20607D01*
X57353Y-20607D02*
X57353Y-20607D01*
X58425Y-20629D02*
X58246Y-20629D01*
X57165Y-20826D02*
X57165Y-20607D01*
X55928Y-20727D02*
X55337Y-20727D01*
X55928Y-19461D02*
X55928Y-20727D01*
X56316Y-19074D02*
X55928Y-19461D01*
X55928Y-20727D02*
X56615Y-21414D01*
X54921Y-20727D02*
X54986Y-20727D01*
X54986Y-20727D02*
X55337Y-20727D01*
X56497Y-24434D02*
X56890Y-24434D01*
X54871Y-22808D02*
X56497Y-24434D01*
X54536Y-22808D02*
X54871Y-22808D01*
X54494Y-22766D02*
X54536Y-22808D01*
X54494Y-21190D02*
X54494Y-22766D01*
X54956Y-20727D02*
X54494Y-21190D01*
X54986Y-20727D02*
X54956Y-20727D01*
X56890Y-24255D02*
X56890Y-24434D01*
X58621Y-18743D02*
X58621Y-19507D01*
X58561Y-18683D02*
X58621Y-18743D01*
X58209Y-18683D02*
X58561Y-18683D01*
X57665Y-19227D02*
X58209Y-18683D01*
X57665Y-19545D02*
X57665Y-19227D01*
X60039Y-20728D02*
X58818Y-19507D01*
X60039Y-21688D02*
X60039Y-20728D01*
X58818Y-19507D02*
X58621Y-19507D01*
X58424Y-19253D02*
X58424Y-19507D01*
X58425Y-19253D02*
X58424Y-19253D01*
X58425Y-19093D02*
X58425Y-19253D01*
G54D10*
G36*
X60413Y-21341D02*
X60293Y-21255D01*
X60113Y-21214D01*
X60053Y-21214D01*
X60053Y-21674D01*
X60061Y-21674D01*
X60061Y-21702D01*
X60053Y-21702D01*
X60053Y-21709D01*
X60025Y-21709D01*
X60025Y-21702D01*
X60018Y-21702D01*
X60018Y-21674D01*
X60025Y-21674D01*
X60025Y-21214D01*
X59965Y-21214D01*
X59785Y-21255D01*
X59634Y-21362D01*
X59563Y-21477D01*
X59563Y-21224D01*
X59582Y-21216D01*
X59661Y-21137D01*
X59704Y-21033D01*
X59704Y-20921D01*
X59662Y-20818D01*
X59583Y-20739D01*
X59563Y-20730D01*
X59563Y-20500D01*
X59563Y-20500D01*
X59563Y-20500D01*
X59552Y-20446D01*
X59522Y-20401D01*
X59219Y-20098D01*
X59174Y-20068D01*
X59120Y-20057D01*
X59120Y-20057D01*
X58993Y-20057D01*
X58993Y-19760D01*
X58990Y-19751D01*
X59001Y-19740D01*
X59021Y-19691D01*
X59021Y-19554D01*
X59021Y-19460D01*
X59021Y-19323D01*
X59001Y-19274D01*
X58963Y-19236D01*
X58914Y-19216D01*
X58865Y-19216D01*
X58832Y-19249D01*
X58832Y-19493D01*
X58988Y-19493D01*
X59021Y-19460D01*
X59021Y-19554D01*
X58988Y-19521D01*
X58832Y-19521D01*
X58832Y-19529D01*
X58804Y-19529D01*
X58804Y-19521D01*
X58797Y-19521D01*
X58797Y-19493D01*
X58804Y-19493D01*
X58804Y-19249D01*
X58771Y-19216D01*
X58723Y-19216D01*
X58673Y-19236D01*
X58666Y-19243D01*
X58565Y-19243D01*
X58565Y-19241D01*
X58594Y-19212D01*
X58610Y-19173D01*
X58610Y-19131D01*
X58610Y-19013D01*
X58594Y-18975D01*
X58610Y-18937D01*
X58610Y-18895D01*
X58610Y-18777D01*
X58594Y-18738D01*
X58564Y-18708D01*
X58525Y-18692D01*
X58482Y-18692D01*
X58325Y-18692D01*
X58286Y-18708D01*
X58277Y-18717D01*
X58246Y-18717D01*
X58192Y-18728D01*
X58147Y-18758D01*
X58117Y-18803D01*
X58106Y-18857D01*
X58106Y-19761D01*
X58106Y-19761D01*
X58117Y-19814D01*
X58147Y-19860D01*
X58249Y-19961D01*
X58249Y-20116D01*
X58002Y-20116D01*
X58002Y-20116D01*
X57996Y-20117D01*
X57996Y-19710D01*
X57996Y-19592D01*
X57996Y-19498D01*
X57996Y-19380D01*
X57976Y-19331D01*
X57938Y-19293D01*
X57889Y-19273D01*
X57836Y-19273D01*
X57712Y-19273D01*
X57679Y-19307D01*
X57679Y-19531D01*
X57963Y-19531D01*
X57996Y-19498D01*
X57996Y-19592D01*
X57963Y-19559D01*
X57679Y-19559D01*
X57679Y-19783D01*
X57712Y-19817D01*
X57836Y-19817D01*
X57889Y-19817D01*
X57938Y-19796D01*
X57976Y-19759D01*
X57996Y-19710D01*
X57996Y-20117D01*
X57963Y-20123D01*
X57952Y-20097D01*
X57922Y-20067D01*
X57883Y-20051D01*
X57841Y-20051D01*
X57651Y-20051D01*
X57447Y-20051D01*
X57408Y-20067D01*
X57378Y-20097D01*
X57362Y-20136D01*
X57362Y-20178D01*
X57362Y-20454D01*
X57378Y-20493D01*
X57408Y-20523D01*
X57447Y-20539D01*
X57489Y-20539D01*
X57883Y-20539D01*
X57922Y-20523D01*
X57952Y-20493D01*
X57969Y-20454D01*
X57969Y-20434D01*
X58016Y-20424D01*
X58059Y-20395D01*
X58240Y-20395D01*
X58240Y-20473D01*
X58244Y-20483D01*
X58233Y-20494D01*
X58213Y-20543D01*
X58213Y-20582D01*
X58246Y-20615D01*
X58411Y-20615D01*
X58411Y-20607D01*
X58439Y-20607D01*
X58439Y-20615D01*
X58447Y-20615D01*
X58447Y-20643D01*
X58439Y-20643D01*
X58439Y-20651D01*
X58411Y-20651D01*
X58411Y-20643D01*
X58246Y-20643D01*
X58213Y-20676D01*
X58213Y-20686D01*
X57704Y-20686D01*
X57688Y-20648D01*
X57658Y-20618D01*
X57619Y-20602D01*
X57576Y-20602D01*
X57419Y-20602D01*
X57380Y-20618D01*
X57360Y-20638D01*
X57357Y-20632D01*
X57319Y-20594D01*
X57270Y-20574D01*
X57212Y-20574D01*
X57179Y-20607D01*
X57179Y-20812D01*
X57187Y-20812D01*
X57187Y-20840D01*
X57179Y-20840D01*
X57179Y-21044D01*
X57212Y-21078D01*
X57270Y-21078D01*
X57319Y-21057D01*
X57357Y-21020D01*
X57360Y-21013D01*
X57380Y-21034D01*
X57419Y-21050D01*
X57462Y-21050D01*
X57619Y-21050D01*
X57658Y-21034D01*
X57688Y-21004D01*
X57704Y-20966D01*
X58466Y-20966D01*
X58466Y-22008D01*
X58426Y-22104D01*
X58426Y-22216D01*
X58456Y-22288D01*
X58456Y-22868D01*
X58438Y-22871D01*
X58392Y-22902D01*
X58392Y-22902D01*
X57665Y-23629D01*
X56836Y-23629D01*
X56853Y-23612D01*
X56869Y-23573D01*
X56869Y-23531D01*
X56869Y-23452D01*
X56853Y-23413D01*
X56836Y-23396D01*
X56863Y-23396D01*
X56863Y-23396D01*
X56863Y-23396D01*
X56917Y-23386D01*
X56962Y-23355D01*
X57085Y-23233D01*
X57085Y-23233D01*
X57085Y-23233D01*
X57115Y-23187D01*
X57126Y-23134D01*
X57126Y-23134D01*
X57126Y-23134D01*
X57126Y-21070D01*
X57151Y-21044D01*
X57151Y-20840D01*
X57143Y-20840D01*
X57143Y-20812D01*
X57151Y-20812D01*
X57151Y-20607D01*
X57126Y-20582D01*
X57126Y-19769D01*
X57336Y-19559D01*
X57368Y-19559D01*
X57334Y-19592D01*
X57334Y-19710D01*
X57355Y-19759D01*
X57392Y-19796D01*
X57442Y-19817D01*
X57495Y-19817D01*
X57618Y-19817D01*
X57651Y-19783D01*
X57651Y-19559D01*
X57644Y-19559D01*
X57644Y-19531D01*
X57651Y-19531D01*
X57651Y-19307D01*
X57620Y-19275D01*
X58222Y-18673D01*
X58552Y-18673D01*
X60413Y-20534D01*
X60413Y-21341D01*
X60413Y-21341D01*
G37*
G54D27*
X60413Y-21341D02*
X60293Y-21255D01*
X60113Y-21214D01*
X60053Y-21214D01*
X60053Y-21674D01*
X60061Y-21674D01*
X60061Y-21702D01*
X60053Y-21702D01*
X60053Y-21709D01*
X60025Y-21709D01*
X60025Y-21702D01*
X60018Y-21702D01*
X60018Y-21674D01*
X60025Y-21674D01*
X60025Y-21214D01*
X59965Y-21214D01*
X59785Y-21255D01*
X59634Y-21362D01*
X59563Y-21477D01*
X59563Y-21224D01*
X59582Y-21216D01*
X59661Y-21137D01*
X59704Y-21033D01*
X59704Y-20921D01*
X59662Y-20818D01*
X59583Y-20739D01*
X59563Y-20730D01*
X59563Y-20500D01*
X59563Y-20500D01*
X59563Y-20500D01*
X59552Y-20446D01*
X59522Y-20401D01*
X59219Y-20098D01*
X59174Y-20068D01*
X59120Y-20057D01*
X59120Y-20057D01*
X58993Y-20057D01*
X58993Y-19760D01*
X58990Y-19751D01*
X59001Y-19740D01*
X59021Y-19691D01*
X59021Y-19554D01*
X59021Y-19460D01*
X59021Y-19323D01*
X59001Y-19274D01*
X58963Y-19236D01*
X58914Y-19216D01*
X58865Y-19216D01*
X58832Y-19249D01*
X58832Y-19493D01*
X58988Y-19493D01*
X59021Y-19460D01*
X59021Y-19554D01*
X58988Y-19521D01*
X58832Y-19521D01*
X58832Y-19529D01*
X58804Y-19529D01*
X58804Y-19521D01*
X58797Y-19521D01*
X58797Y-19493D01*
X58804Y-19493D01*
X58804Y-19249D01*
X58771Y-19216D01*
X58723Y-19216D01*
X58673Y-19236D01*
X58666Y-19243D01*
X58565Y-19243D01*
X58565Y-19241D01*
X58594Y-19212D01*
X58610Y-19173D01*
X58610Y-19131D01*
X58610Y-19013D01*
X58594Y-18975D01*
X58610Y-18937D01*
X58610Y-18895D01*
X58610Y-18777D01*
X58594Y-18738D01*
X58564Y-18708D01*
X58525Y-18692D01*
X58482Y-18692D01*
X58325Y-18692D01*
X58286Y-18708D01*
X58277Y-18717D01*
X58246Y-18717D01*
X58192Y-18728D01*
X58147Y-18758D01*
X58117Y-18803D01*
X58106Y-18857D01*
X58106Y-19761D01*
X58106Y-19761D01*
X58117Y-19814D01*
X58147Y-19860D01*
X58249Y-19961D01*
X58249Y-20116D01*
X58002Y-20116D01*
X58002Y-20116D01*
X57996Y-20117D01*
X57996Y-19710D01*
X57996Y-19592D01*
X57996Y-19498D01*
X57996Y-19380D01*
X57976Y-19331D01*
X57938Y-19293D01*
X57889Y-19273D01*
X57836Y-19273D01*
X57712Y-19273D01*
X57679Y-19307D01*
X57679Y-19531D01*
X57963Y-19531D01*
X57996Y-19498D01*
X57996Y-19592D01*
X57963Y-19559D01*
X57679Y-19559D01*
X57679Y-19783D01*
X57712Y-19817D01*
X57836Y-19817D01*
X57889Y-19817D01*
X57938Y-19796D01*
X57976Y-19759D01*
X57996Y-19710D01*
X57996Y-20117D01*
X57963Y-20123D01*
X57952Y-20097D01*
X57922Y-20067D01*
X57883Y-20051D01*
X57841Y-20051D01*
X57651Y-20051D01*
X57447Y-20051D01*
X57408Y-20067D01*
X57378Y-20097D01*
X57362Y-20136D01*
X57362Y-20178D01*
X57362Y-20454D01*
X57378Y-20493D01*
X57408Y-20523D01*
X57447Y-20539D01*
X57489Y-20539D01*
X57883Y-20539D01*
X57922Y-20523D01*
X57952Y-20493D01*
X57969Y-20454D01*
X57969Y-20434D01*
X58016Y-20424D01*
X58059Y-20395D01*
X58240Y-20395D01*
X58240Y-20473D01*
X58244Y-20483D01*
X58233Y-20494D01*
X58213Y-20543D01*
X58213Y-20582D01*
X58246Y-20615D01*
X58411Y-20615D01*
X58411Y-20607D01*
X58439Y-20607D01*
X58439Y-20615D01*
X58447Y-20615D01*
X58447Y-20643D01*
X58439Y-20643D01*
X58439Y-20651D01*
X58411Y-20651D01*
X58411Y-20643D01*
X58246Y-20643D01*
X58213Y-20676D01*
X58213Y-20686D01*
X57704Y-20686D01*
X57688Y-20648D01*
X57658Y-20618D01*
X57619Y-20602D01*
X57576Y-20602D01*
X57419Y-20602D01*
X57380Y-20618D01*
X57360Y-20638D01*
X57357Y-20632D01*
X57319Y-20594D01*
X57270Y-20574D01*
X57212Y-20574D01*
X57179Y-20607D01*
X57179Y-20812D01*
X57187Y-20812D01*
X57187Y-20840D01*
X57179Y-20840D01*
X57179Y-21044D01*
X57212Y-21078D01*
X57270Y-21078D01*
X57319Y-21057D01*
X57357Y-21020D01*
X57360Y-21013D01*
X57380Y-21034D01*
X57419Y-21050D01*
X57462Y-21050D01*
X57619Y-21050D01*
X57658Y-21034D01*
X57688Y-21004D01*
X57704Y-20966D01*
X58466Y-20966D01*
X58466Y-22008D01*
X58426Y-22104D01*
X58426Y-22216D01*
X58456Y-22288D01*
X58456Y-22868D01*
X58438Y-22871D01*
X58392Y-22902D01*
X58392Y-22902D01*
X57665Y-23629D01*
X56836Y-23629D01*
X56853Y-23612D01*
X56869Y-23573D01*
X56869Y-23531D01*
X56869Y-23452D01*
X56853Y-23413D01*
X56836Y-23396D01*
X56863Y-23396D01*
X56863Y-23396D01*
X56863Y-23396D01*
X56917Y-23386D01*
X56962Y-23355D01*
X57085Y-23233D01*
X57085Y-23233D01*
X57085Y-23233D01*
X57115Y-23187D01*
X57126Y-23134D01*
X57126Y-23134D01*
X57126Y-23134D01*
X57126Y-21070D01*
X57151Y-21044D01*
X57151Y-20840D01*
X57143Y-20840D01*
X57143Y-20812D01*
X57151Y-20812D01*
X57151Y-20607D01*
X57126Y-20582D01*
X57126Y-19769D01*
X57336Y-19559D01*
X57368Y-19559D01*
X57334Y-19592D01*
X57334Y-19710D01*
X57355Y-19759D01*
X57392Y-19796D01*
X57442Y-19817D01*
X57495Y-19817D01*
X57618Y-19817D01*
X57651Y-19783D01*
X57651Y-19559D01*
X57644Y-19559D01*
X57644Y-19531D01*
X57651Y-19531D01*
X57651Y-19307D01*
X57620Y-19275D01*
X58222Y-18673D01*
X58552Y-18673D01*
X60413Y-20534D01*
X60413Y-21341D01*
G54D10*
G36*
X61236Y-24745D02*
X61186Y-24993D01*
X61056Y-25189D01*
X60860Y-25319D01*
X60612Y-25369D01*
X57082Y-25369D01*
X57082Y-24360D01*
X57082Y-24307D01*
X57082Y-24302D01*
X57082Y-24207D01*
X57082Y-24203D01*
X57082Y-24150D01*
X57062Y-24100D01*
X57024Y-24063D01*
X56975Y-24042D01*
X56937Y-24042D01*
X56903Y-24076D01*
X56903Y-24241D01*
X57049Y-24241D01*
X57082Y-24207D01*
X57082Y-24302D01*
X57049Y-24268D01*
X56903Y-24268D01*
X56903Y-24434D01*
X56937Y-24467D01*
X56975Y-24467D01*
X57024Y-24447D01*
X57062Y-24409D01*
X57082Y-24360D01*
X57082Y-25369D01*
X55697Y-25369D01*
X55697Y-25060D01*
X55697Y-25017D01*
X55697Y-23678D01*
X55681Y-23639D01*
X55651Y-23609D01*
X55612Y-23593D01*
X55570Y-23593D01*
X54231Y-23593D01*
X54191Y-23609D01*
X54162Y-23639D01*
X54145Y-23678D01*
X54145Y-23721D01*
X54145Y-25060D01*
X54162Y-25099D01*
X54191Y-25128D01*
X54231Y-25145D01*
X54273Y-25145D01*
X55612Y-25145D01*
X55651Y-25128D01*
X55681Y-25099D01*
X55697Y-25060D01*
X55697Y-25369D01*
X54545Y-25369D01*
X54297Y-25319D01*
X54101Y-25189D01*
X53971Y-24993D01*
X53921Y-24745D01*
X53921Y-18678D01*
X53971Y-18430D01*
X54101Y-18234D01*
X54297Y-18104D01*
X54545Y-18054D01*
X60612Y-18054D01*
X60860Y-18104D01*
X61056Y-18234D01*
X61186Y-18430D01*
X61231Y-18653D01*
X60596Y-18653D01*
X60596Y-20321D01*
X58709Y-18434D01*
X58664Y-18404D01*
X58610Y-18393D01*
X58610Y-18393D01*
X58164Y-18393D01*
X58164Y-18393D01*
X58110Y-18404D01*
X58065Y-18434D01*
X56887Y-19612D01*
X56857Y-19657D01*
X56853Y-19676D01*
X56841Y-19676D01*
X56815Y-19676D01*
X56815Y-19659D01*
X56804Y-19602D01*
X56771Y-19553D01*
X56753Y-19541D01*
X56758Y-19528D01*
X56758Y-19485D01*
X56758Y-19328D01*
X56742Y-19289D01*
X56722Y-19268D01*
X56728Y-19266D01*
X56766Y-19228D01*
X56786Y-19179D01*
X56786Y-19121D01*
X56786Y-19027D01*
X56786Y-18969D01*
X56766Y-18920D01*
X56728Y-18882D01*
X56679Y-18862D01*
X56626Y-18862D01*
X56581Y-18862D01*
X56548Y-18895D01*
X56548Y-19060D01*
X56753Y-19060D01*
X56786Y-19027D01*
X56786Y-19121D01*
X56753Y-19088D01*
X56548Y-19088D01*
X56548Y-19096D01*
X56520Y-19096D01*
X56520Y-19088D01*
X56520Y-19060D01*
X56520Y-18895D01*
X56487Y-18862D01*
X56443Y-18862D01*
X56390Y-18862D01*
X56340Y-18882D01*
X56303Y-18920D01*
X56282Y-18969D01*
X56282Y-19027D01*
X56316Y-19060D01*
X56520Y-19060D01*
X56520Y-19088D01*
X56316Y-19088D01*
X56282Y-19121D01*
X56282Y-19179D01*
X56303Y-19228D01*
X56340Y-19266D01*
X56347Y-19268D01*
X56326Y-19289D01*
X56310Y-19328D01*
X56310Y-19371D01*
X56310Y-19528D01*
X56326Y-19567D01*
X56356Y-19596D01*
X56384Y-19608D01*
X56384Y-19629D01*
X56396Y-19686D01*
X56403Y-19697D01*
X56378Y-19722D01*
X56362Y-19761D01*
X56362Y-19803D01*
X56362Y-20079D01*
X56378Y-20118D01*
X56408Y-20148D01*
X56447Y-20164D01*
X56489Y-20164D01*
X56515Y-20164D01*
X56515Y-20180D01*
X56527Y-20238D01*
X56559Y-20286D01*
X56667Y-20394D01*
X56667Y-21381D01*
X56662Y-21381D01*
X56629Y-21415D01*
X56629Y-21560D01*
X56637Y-21560D01*
X56637Y-21588D01*
X56629Y-21588D01*
X56629Y-21596D01*
X56601Y-21596D01*
X56601Y-21588D01*
X56601Y-21560D01*
X56601Y-21415D01*
X56568Y-21381D01*
X56563Y-21381D01*
X56510Y-21381D01*
X56461Y-21401D01*
X56423Y-21439D01*
X56403Y-21488D01*
X56403Y-21527D01*
X56436Y-21560D01*
X56601Y-21560D01*
X56601Y-21588D01*
X56436Y-21588D01*
X56403Y-21621D01*
X56403Y-21660D01*
X56403Y-21660D01*
X55913Y-21660D01*
X55697Y-21444D01*
X55697Y-19745D01*
X55697Y-19702D01*
X55697Y-18363D01*
X55681Y-18324D01*
X55651Y-18294D01*
X55612Y-18278D01*
X55570Y-18278D01*
X54231Y-18278D01*
X54191Y-18294D01*
X54162Y-18324D01*
X54145Y-18363D01*
X54145Y-18406D01*
X54145Y-19745D01*
X54162Y-19784D01*
X54191Y-19813D01*
X54231Y-19830D01*
X54273Y-19830D01*
X55612Y-19830D01*
X55651Y-19813D01*
X55681Y-19784D01*
X55697Y-19745D01*
X55697Y-21444D01*
X55465Y-21212D01*
X55416Y-21180D01*
X55359Y-21168D01*
X55305Y-21168D01*
X55262Y-21104D01*
X55164Y-21038D01*
X55148Y-21035D01*
X55179Y-21027D01*
X55283Y-20951D01*
X55350Y-20841D01*
X55363Y-20792D01*
X55363Y-20662D01*
X55350Y-20613D01*
X55283Y-20503D01*
X55179Y-20427D01*
X55053Y-20396D01*
X54935Y-20396D01*
X54935Y-20713D01*
X55336Y-20713D01*
X55363Y-20662D01*
X55363Y-20792D01*
X55336Y-20741D01*
X54935Y-20741D01*
X54935Y-20749D01*
X54907Y-20749D01*
X54907Y-20741D01*
X54907Y-20713D01*
X54907Y-20396D01*
X54789Y-20396D01*
X54664Y-20427D01*
X54559Y-20503D01*
X54492Y-20613D01*
X54479Y-20662D01*
X54506Y-20713D01*
X54907Y-20713D01*
X54907Y-20741D01*
X54506Y-20741D01*
X54479Y-20792D01*
X54492Y-20841D01*
X54559Y-20951D01*
X54664Y-21027D01*
X54695Y-21035D01*
X54679Y-21038D01*
X54580Y-21104D01*
X54515Y-21202D01*
X54492Y-21318D01*
X54515Y-21434D01*
X54580Y-21532D01*
X54679Y-21598D01*
X54754Y-21613D01*
X54679Y-21628D01*
X54580Y-21694D01*
X54515Y-21792D01*
X54492Y-21908D01*
X54515Y-22024D01*
X54580Y-22122D01*
X54679Y-22188D01*
X54718Y-22196D01*
X54585Y-22196D01*
X54546Y-22212D01*
X54516Y-22242D01*
X54500Y-22281D01*
X54500Y-22323D01*
X54500Y-22717D01*
X54516Y-22756D01*
X54546Y-22786D01*
X54585Y-22802D01*
X54627Y-22802D01*
X55257Y-22802D01*
X55296Y-22786D01*
X55326Y-22756D01*
X55342Y-22717D01*
X55342Y-22675D01*
X55342Y-22281D01*
X55326Y-22242D01*
X55296Y-22212D01*
X55257Y-22196D01*
X55215Y-22196D01*
X55124Y-22196D01*
X55164Y-22188D01*
X55262Y-22122D01*
X55302Y-22063D01*
X56273Y-23034D01*
X56273Y-23513D01*
X56284Y-23570D01*
X56317Y-23619D01*
X56365Y-23651D01*
X56423Y-23662D01*
X56462Y-23662D01*
X56455Y-23669D01*
X56439Y-23708D01*
X56439Y-23750D01*
X56439Y-23829D01*
X56455Y-23868D01*
X56485Y-23898D01*
X56524Y-23914D01*
X56550Y-23914D01*
X56550Y-23984D01*
X56524Y-24022D01*
X56514Y-24076D01*
X56514Y-24076D01*
X56514Y-24107D01*
X56504Y-24116D01*
X56488Y-24155D01*
X56488Y-24197D01*
X56488Y-24354D01*
X56504Y-24393D01*
X56534Y-24423D01*
X56573Y-24439D01*
X56616Y-24439D01*
X56734Y-24439D01*
X56743Y-24435D01*
X56755Y-24447D01*
X56804Y-24467D01*
X56842Y-24467D01*
X56876Y-24434D01*
X56876Y-24268D01*
X56868Y-24268D01*
X56868Y-24241D01*
X56876Y-24241D01*
X56876Y-24076D01*
X56842Y-24042D01*
X56829Y-24042D01*
X56830Y-24039D01*
X56830Y-24039D01*
X56830Y-24039D01*
X56830Y-23908D01*
X57723Y-23908D01*
X57723Y-23908D01*
X57723Y-23908D01*
X57777Y-23898D01*
X57822Y-23867D01*
X58485Y-23204D01*
X58485Y-23238D01*
X58485Y-23317D01*
X58502Y-23356D01*
X58530Y-23385D01*
X58502Y-23413D01*
X58485Y-23452D01*
X58485Y-23494D01*
X58485Y-23573D01*
X58502Y-23612D01*
X58530Y-23641D01*
X58502Y-23669D01*
X58485Y-23708D01*
X58485Y-23750D01*
X58485Y-23829D01*
X58502Y-23868D01*
X58531Y-23898D01*
X58571Y-23914D01*
X58613Y-23914D01*
X58830Y-23914D01*
X58869Y-23898D01*
X58899Y-23868D01*
X58915Y-23829D01*
X58915Y-23787D01*
X58915Y-23708D01*
X59533Y-24326D01*
X59533Y-24327D01*
X59533Y-24369D01*
X59533Y-25049D01*
X59549Y-25088D01*
X59579Y-25118D01*
X59618Y-25134D01*
X59660Y-25134D01*
X60460Y-25134D01*
X60499Y-25118D01*
X60529Y-25088D01*
X60546Y-25049D01*
X60546Y-25007D01*
X60546Y-24327D01*
X60529Y-24288D01*
X60499Y-24258D01*
X60460Y-24241D01*
X60418Y-24241D01*
X60189Y-24241D01*
X60189Y-24225D01*
X60178Y-24168D01*
X60150Y-24126D01*
X60280Y-24100D01*
X60425Y-24003D01*
X60522Y-23859D01*
X60555Y-23688D01*
X60522Y-23517D01*
X60425Y-23372D01*
X60280Y-23275D01*
X60109Y-23241D01*
X59969Y-23241D01*
X59799Y-23275D01*
X59654Y-23372D01*
X59557Y-23517D01*
X59523Y-23688D01*
X59557Y-23859D01*
X59654Y-24003D01*
X59762Y-24075D01*
X59706Y-24075D01*
X59037Y-23407D01*
X58989Y-23374D01*
X58982Y-23373D01*
X59008Y-23355D01*
X59099Y-23265D01*
X59099Y-23265D01*
X59099Y-23265D01*
X59129Y-23219D01*
X59140Y-23166D01*
X59140Y-20732D01*
X59159Y-20724D01*
X59238Y-20645D01*
X59277Y-20551D01*
X59283Y-20558D01*
X59283Y-20730D01*
X59264Y-20738D01*
X59185Y-20817D01*
X59142Y-20921D01*
X59142Y-21033D01*
X59184Y-21136D01*
X59263Y-21215D01*
X59283Y-21224D01*
X59283Y-21780D01*
X59283Y-21780D01*
X59294Y-21833D01*
X59324Y-21878D01*
X59688Y-22242D01*
X59688Y-22242D01*
X59733Y-22272D01*
X59787Y-22283D01*
X59787Y-22283D01*
X59654Y-22372D01*
X59557Y-22517D01*
X59523Y-22688D01*
X59557Y-22859D01*
X59654Y-23003D01*
X59799Y-23100D01*
X59969Y-23134D01*
X60109Y-23134D01*
X60280Y-23100D01*
X60425Y-23003D01*
X60522Y-22859D01*
X60555Y-22688D01*
X60522Y-22517D01*
X60425Y-22372D01*
X60286Y-22279D01*
X60321Y-22272D01*
X60367Y-22242D01*
X60652Y-21957D01*
X60682Y-21911D01*
X60693Y-21858D01*
X60693Y-21423D01*
X61236Y-21423D01*
X61236Y-24745D01*
X61236Y-24745D01*
G37*
G54D27*
X61236Y-24745D02*
X61186Y-24993D01*
X61056Y-25189D01*
X60860Y-25319D01*
X60612Y-25369D01*
X57082Y-25369D01*
X57082Y-24360D01*
X57082Y-24307D01*
X57082Y-24302D01*
X57082Y-24207D01*
X57082Y-24203D01*
X57082Y-24150D01*
X57062Y-24100D01*
X57024Y-24063D01*
X56975Y-24042D01*
X56937Y-24042D01*
X56903Y-24076D01*
X56903Y-24241D01*
X57049Y-24241D01*
X57082Y-24207D01*
X57082Y-24302D01*
X57049Y-24268D01*
X56903Y-24268D01*
X56903Y-24434D01*
X56937Y-24467D01*
X56975Y-24467D01*
X57024Y-24447D01*
X57062Y-24409D01*
X57082Y-24360D01*
X57082Y-25369D01*
X55697Y-25369D01*
X55697Y-25060D01*
X55697Y-25017D01*
X55697Y-23678D01*
X55681Y-23639D01*
X55651Y-23609D01*
X55612Y-23593D01*
X55570Y-23593D01*
X54231Y-23593D01*
X54191Y-23609D01*
X54162Y-23639D01*
X54145Y-23678D01*
X54145Y-23721D01*
X54145Y-25060D01*
X54162Y-25099D01*
X54191Y-25128D01*
X54231Y-25145D01*
X54273Y-25145D01*
X55612Y-25145D01*
X55651Y-25128D01*
X55681Y-25099D01*
X55697Y-25060D01*
X55697Y-25369D01*
X54545Y-25369D01*
X54297Y-25319D01*
X54101Y-25189D01*
X53971Y-24993D01*
X53921Y-24745D01*
X53921Y-18678D01*
X53971Y-18430D01*
X54101Y-18234D01*
X54297Y-18104D01*
X54545Y-18054D01*
X60612Y-18054D01*
X60860Y-18104D01*
X61056Y-18234D01*
X61186Y-18430D01*
X61231Y-18653D01*
X60596Y-18653D01*
X60596Y-20321D01*
X58709Y-18434D01*
X58664Y-18404D01*
X58610Y-18393D01*
X58610Y-18393D01*
X58164Y-18393D01*
X58164Y-18393D01*
X58110Y-18404D01*
X58065Y-18434D01*
X56887Y-19612D01*
X56857Y-19657D01*
X56853Y-19676D01*
X56841Y-19676D01*
X56815Y-19676D01*
X56815Y-19659D01*
X56804Y-19602D01*
X56771Y-19553D01*
X56753Y-19541D01*
X56758Y-19528D01*
X56758Y-19485D01*
X56758Y-19328D01*
X56742Y-19289D01*
X56722Y-19268D01*
X56728Y-19266D01*
X56766Y-19228D01*
X56786Y-19179D01*
X56786Y-19121D01*
X56786Y-19027D01*
X56786Y-18969D01*
X56766Y-18920D01*
X56728Y-18882D01*
X56679Y-18862D01*
X56626Y-18862D01*
X56581Y-18862D01*
X56548Y-18895D01*
X56548Y-19060D01*
X56753Y-19060D01*
X56786Y-19027D01*
X56786Y-19121D01*
X56753Y-19088D01*
X56548Y-19088D01*
X56548Y-19096D01*
X56520Y-19096D01*
X56520Y-19088D01*
X56520Y-19060D01*
X56520Y-18895D01*
X56487Y-18862D01*
X56443Y-18862D01*
X56390Y-18862D01*
X56340Y-18882D01*
X56303Y-18920D01*
X56282Y-18969D01*
X56282Y-19027D01*
X56316Y-19060D01*
X56520Y-19060D01*
X56520Y-19088D01*
X56316Y-19088D01*
X56282Y-19121D01*
X56282Y-19179D01*
X56303Y-19228D01*
X56340Y-19266D01*
X56347Y-19268D01*
X56326Y-19289D01*
X56310Y-19328D01*
X56310Y-19371D01*
X56310Y-19528D01*
X56326Y-19567D01*
X56356Y-19596D01*
X56384Y-19608D01*
X56384Y-19629D01*
X56396Y-19686D01*
X56403Y-19697D01*
X56378Y-19722D01*
X56362Y-19761D01*
X56362Y-19803D01*
X56362Y-20079D01*
X56378Y-20118D01*
X56408Y-20148D01*
X56447Y-20164D01*
X56489Y-20164D01*
X56515Y-20164D01*
X56515Y-20180D01*
X56527Y-20238D01*
X56559Y-20286D01*
X56667Y-20394D01*
X56667Y-21381D01*
X56662Y-21381D01*
X56629Y-21415D01*
X56629Y-21560D01*
X56637Y-21560D01*
X56637Y-21588D01*
X56629Y-21588D01*
X56629Y-21596D01*
X56601Y-21596D01*
X56601Y-21588D01*
X56601Y-21560D01*
X56601Y-21415D01*
X56568Y-21381D01*
X56563Y-21381D01*
X56510Y-21381D01*
X56461Y-21401D01*
X56423Y-21439D01*
X56403Y-21488D01*
X56403Y-21527D01*
X56436Y-21560D01*
X56601Y-21560D01*
X56601Y-21588D01*
X56436Y-21588D01*
X56403Y-21621D01*
X56403Y-21660D01*
X56403Y-21660D01*
X55913Y-21660D01*
X55697Y-21444D01*
X55697Y-19745D01*
X55697Y-19702D01*
X55697Y-18363D01*
X55681Y-18324D01*
X55651Y-18294D01*
X55612Y-18278D01*
X55570Y-18278D01*
X54231Y-18278D01*
X54191Y-18294D01*
X54162Y-18324D01*
X54145Y-18363D01*
X54145Y-18406D01*
X54145Y-19745D01*
X54162Y-19784D01*
X54191Y-19813D01*
X54231Y-19830D01*
X54273Y-19830D01*
X55612Y-19830D01*
X55651Y-19813D01*
X55681Y-19784D01*
X55697Y-19745D01*
X55697Y-21444D01*
X55465Y-21212D01*
X55416Y-21180D01*
X55359Y-21168D01*
X55305Y-21168D01*
X55262Y-21104D01*
X55164Y-21038D01*
X55148Y-21035D01*
X55179Y-21027D01*
X55283Y-20951D01*
X55350Y-20841D01*
X55363Y-20792D01*
X55363Y-20662D01*
X55350Y-20613D01*
X55283Y-20503D01*
X55179Y-20427D01*
X55053Y-20396D01*
X54935Y-20396D01*
X54935Y-20713D01*
X55336Y-20713D01*
X55363Y-20662D01*
X55363Y-20792D01*
X55336Y-20741D01*
X54935Y-20741D01*
X54935Y-20749D01*
X54907Y-20749D01*
X54907Y-20741D01*
X54907Y-20713D01*
X54907Y-20396D01*
X54789Y-20396D01*
X54664Y-20427D01*
X54559Y-20503D01*
X54492Y-20613D01*
X54479Y-20662D01*
X54506Y-20713D01*
X54907Y-20713D01*
X54907Y-20741D01*
X54506Y-20741D01*
X54479Y-20792D01*
X54492Y-20841D01*
X54559Y-20951D01*
X54664Y-21027D01*
X54695Y-21035D01*
X54679Y-21038D01*
X54580Y-21104D01*
X54515Y-21202D01*
X54492Y-21318D01*
X54515Y-21434D01*
X54580Y-21532D01*
X54679Y-21598D01*
X54754Y-21613D01*
X54679Y-21628D01*
X54580Y-21694D01*
X54515Y-21792D01*
X54492Y-21908D01*
X54515Y-22024D01*
X54580Y-22122D01*
X54679Y-22188D01*
X54718Y-22196D01*
X54585Y-22196D01*
X54546Y-22212D01*
X54516Y-22242D01*
X54500Y-22281D01*
X54500Y-22323D01*
X54500Y-22717D01*
X54516Y-22756D01*
X54546Y-22786D01*
X54585Y-22802D01*
X54627Y-22802D01*
X55257Y-22802D01*
X55296Y-22786D01*
X55326Y-22756D01*
X55342Y-22717D01*
X55342Y-22675D01*
X55342Y-22281D01*
X55326Y-22242D01*
X55296Y-22212D01*
X55257Y-22196D01*
X55215Y-22196D01*
X55124Y-22196D01*
X55164Y-22188D01*
X55262Y-22122D01*
X55302Y-22063D01*
X56273Y-23034D01*
X56273Y-23513D01*
X56284Y-23570D01*
X56317Y-23619D01*
X56365Y-23651D01*
X56423Y-23662D01*
X56462Y-23662D01*
X56455Y-23669D01*
X56439Y-23708D01*
X56439Y-23750D01*
X56439Y-23829D01*
X56455Y-23868D01*
X56485Y-23898D01*
X56524Y-23914D01*
X56550Y-23914D01*
X56550Y-23984D01*
X56524Y-24022D01*
X56514Y-24076D01*
X56514Y-24076D01*
X56514Y-24107D01*
X56504Y-24116D01*
X56488Y-24155D01*
X56488Y-24197D01*
X56488Y-24354D01*
X56504Y-24393D01*
X56534Y-24423D01*
X56573Y-24439D01*
X56616Y-24439D01*
X56734Y-24439D01*
X56743Y-24435D01*
X56755Y-24447D01*
X56804Y-24467D01*
X56842Y-24467D01*
X56876Y-24434D01*
X56876Y-24268D01*
X56868Y-24268D01*
X56868Y-24241D01*
X56876Y-24241D01*
X56876Y-24076D01*
X56842Y-24042D01*
X56829Y-24042D01*
X56830Y-24039D01*
X56830Y-24039D01*
X56830Y-24039D01*
X56830Y-23908D01*
X57723Y-23908D01*
X57723Y-23908D01*
X57723Y-23908D01*
X57777Y-23898D01*
X57822Y-23867D01*
X58485Y-23204D01*
X58485Y-23238D01*
X58485Y-23317D01*
X58502Y-23356D01*
X58530Y-23385D01*
X58502Y-23413D01*
X58485Y-23452D01*
X58485Y-23494D01*
X58485Y-23573D01*
X58502Y-23612D01*
X58530Y-23641D01*
X58502Y-23669D01*
X58485Y-23708D01*
X58485Y-23750D01*
X58485Y-23829D01*
X58502Y-23868D01*
X58531Y-23898D01*
X58571Y-23914D01*
X58613Y-23914D01*
X58830Y-23914D01*
X58869Y-23898D01*
X58899Y-23868D01*
X58915Y-23829D01*
X58915Y-23787D01*
X58915Y-23708D01*
X59533Y-24326D01*
X59533Y-24327D01*
X59533Y-24369D01*
X59533Y-25049D01*
X59549Y-25088D01*
X59579Y-25118D01*
X59618Y-25134D01*
X59660Y-25134D01*
X60460Y-25134D01*
X60499Y-25118D01*
X60529Y-25088D01*
X60546Y-25049D01*
X60546Y-25007D01*
X60546Y-24327D01*
X60529Y-24288D01*
X60499Y-24258D01*
X60460Y-24241D01*
X60418Y-24241D01*
X60189Y-24241D01*
X60189Y-24225D01*
X60178Y-24168D01*
X60150Y-24126D01*
X60280Y-24100D01*
X60425Y-24003D01*
X60522Y-23859D01*
X60555Y-23688D01*
X60522Y-23517D01*
X60425Y-23372D01*
X60280Y-23275D01*
X60109Y-23241D01*
X59969Y-23241D01*
X59799Y-23275D01*
X59654Y-23372D01*
X59557Y-23517D01*
X59523Y-23688D01*
X59557Y-23859D01*
X59654Y-24003D01*
X59762Y-24075D01*
X59706Y-24075D01*
X59037Y-23407D01*
X58989Y-23374D01*
X58982Y-23373D01*
X59008Y-23355D01*
X59099Y-23265D01*
X59099Y-23265D01*
X59099Y-23265D01*
X59129Y-23219D01*
X59140Y-23166D01*
X59140Y-20732D01*
X59159Y-20724D01*
X59238Y-20645D01*
X59277Y-20551D01*
X59283Y-20558D01*
X59283Y-20730D01*
X59264Y-20738D01*
X59185Y-20817D01*
X59142Y-20921D01*
X59142Y-21033D01*
X59184Y-21136D01*
X59263Y-21215D01*
X59283Y-21224D01*
X59283Y-21780D01*
X59283Y-21780D01*
X59294Y-21833D01*
X59324Y-21878D01*
X59688Y-22242D01*
X59688Y-22242D01*
X59733Y-22272D01*
X59787Y-22283D01*
X59787Y-22283D01*
X59654Y-22372D01*
X59557Y-22517D01*
X59523Y-22688D01*
X59557Y-22859D01*
X59654Y-23003D01*
X59799Y-23100D01*
X59969Y-23134D01*
X60109Y-23134D01*
X60280Y-23100D01*
X60425Y-23003D01*
X60522Y-22859D01*
X60555Y-22688D01*
X60522Y-22517D01*
X60425Y-22372D01*
X60286Y-22279D01*
X60321Y-22272D01*
X60367Y-22242D01*
X60652Y-21957D01*
X60682Y-21911D01*
X60693Y-21858D01*
X60693Y-21423D01*
X61236Y-21423D01*
X61236Y-24745D01*
M02*
