G04 (created by PCBNEW-RS274X (2012-apr-16-27)-stable) date Sat 17 May 2014 12:29:47 BST*
G01*
G70*
G90*
%MOIN*%
G04 Gerber Fmt 3.4, Leading zero omitted, Abs format*
%FSLAX34Y34*%
G04 APERTURE LIST*
%ADD10C,0.006000*%
%ADD11R,0.043600X0.067200*%
%ADD12R,0.035700X0.043600*%
%ADD13R,0.043600X0.035700*%
%ADD14O,0.059400X0.047600*%
%ADD15R,0.059400X0.047600*%
%ADD16R,0.153900X0.153900*%
%ADD17R,0.035700X0.031800*%
%ADD18R,0.031800X0.035700*%
G04 APERTURE END LIST*
G54D10*
G36*
X26967Y-27891D02*
X27443Y-27891D01*
X27443Y-28485D01*
X26967Y-28485D01*
X26967Y-27891D01*
X26967Y-27891D01*
G37*
G36*
X26534Y-27891D02*
X27010Y-27891D01*
X27010Y-28485D01*
X26534Y-28485D01*
X26534Y-27891D01*
X26534Y-27891D01*
G37*
G36*
X26101Y-27891D02*
X26577Y-27891D01*
X26577Y-28485D01*
X26101Y-28485D01*
X26101Y-27891D01*
X26101Y-27891D01*
G37*
G36*
X26101Y-29151D02*
X26577Y-29151D01*
X26577Y-29745D01*
X26101Y-29745D01*
X26101Y-29151D01*
X26101Y-29151D01*
G37*
G36*
X26534Y-29151D02*
X27010Y-29151D01*
X27010Y-29745D01*
X26534Y-29745D01*
X26534Y-29151D01*
X26534Y-29151D01*
G37*
G36*
X26967Y-29151D02*
X27443Y-29151D01*
X27443Y-29745D01*
X26967Y-29745D01*
X26967Y-29151D01*
X26967Y-29151D01*
G37*
G54D11*
X23661Y-28464D03*
X24153Y-28464D03*
X24665Y-28464D03*
X25157Y-28464D03*
X25157Y-26180D03*
X24665Y-26180D03*
X24153Y-26180D03*
X23641Y-26180D03*
G54D12*
X24428Y-31299D03*
X24074Y-31299D03*
X25216Y-31299D03*
X24862Y-31299D03*
G54D13*
X23070Y-26122D03*
X23070Y-26476D03*
G54D10*
G36*
X23800Y-30917D02*
X23384Y-30917D01*
X23384Y-30343D01*
X23800Y-30343D01*
X23800Y-30917D01*
X23800Y-30917D01*
G37*
G36*
X24292Y-30917D02*
X23876Y-30917D01*
X23876Y-30343D01*
X24292Y-30343D01*
X24292Y-30917D01*
X24292Y-30917D01*
G37*
G36*
X24794Y-30917D02*
X24378Y-30917D01*
X24378Y-30343D01*
X24794Y-30343D01*
X24794Y-30917D01*
X24794Y-30917D01*
G37*
G36*
X25276Y-30917D02*
X24860Y-30917D01*
X24860Y-30343D01*
X25276Y-30343D01*
X25276Y-30917D01*
X25276Y-30917D01*
G37*
G36*
X25276Y-30129D02*
X24860Y-30129D01*
X24860Y-29555D01*
X25276Y-29555D01*
X25276Y-30129D01*
X25276Y-30129D01*
G37*
G36*
X24784Y-30129D02*
X24368Y-30129D01*
X24368Y-29555D01*
X24784Y-29555D01*
X24784Y-30129D01*
X24784Y-30129D01*
G37*
G36*
X24292Y-30129D02*
X23876Y-30129D01*
X23876Y-29555D01*
X24292Y-29555D01*
X24292Y-30129D01*
X24292Y-30129D01*
G37*
G36*
X23800Y-30129D02*
X23384Y-30129D01*
X23384Y-29555D01*
X23800Y-29555D01*
X23800Y-30129D01*
X23800Y-30129D01*
G37*
G54D14*
X21457Y-27932D03*
G54D15*
X21457Y-29704D03*
G54D14*
X21457Y-28523D03*
X21457Y-29113D03*
X21457Y-29113D03*
X21457Y-28523D03*
G54D15*
X21457Y-29704D03*
G54D14*
X21457Y-27932D03*
G54D16*
X21457Y-31456D03*
X21457Y-26141D03*
X26772Y-26141D03*
X26772Y-31456D03*
G54D17*
X23110Y-28228D03*
X23110Y-28464D03*
G54D18*
X27205Y-27676D03*
X26969Y-27676D03*
M02*
