%FSLAX34Y34*%
G04 Gerber Fmt 3.4, Leading zero omitted, Abs format*
G04 (created by PCBNEW (2014-03-19 BZR 4756)-product) date Sun 08 Jun 2014 00:25:28 BST*
%MOIN*%
G01*
G70*
G90*
G04 APERTURE LIST*
%ADD10C,0.005906*%
%ADD11C,0.007874*%
%ADD12C,0.015000*%
%ADD13C,0.006700*%
%ADD14C,0.003900*%
%ADD15C,0.005000*%
%ADD16C,0.003000*%
G04 APERTURE END LIST*
G54D10*
G54D11*
X57489Y-18396D02*
X57415Y-18606D01*
X57340Y-18396D01*
X57160Y-18291D02*
X57130Y-18291D01*
X57100Y-18306D01*
X57085Y-18321D01*
X57070Y-18351D01*
X57055Y-18411D01*
X57055Y-18486D01*
X57070Y-18546D01*
X57085Y-18576D01*
X57100Y-18591D01*
X57130Y-18606D01*
X57160Y-18606D01*
X57190Y-18591D01*
X57205Y-18576D01*
X57220Y-18546D01*
X57235Y-18486D01*
X57235Y-18411D01*
X57220Y-18351D01*
X57205Y-18321D01*
X57190Y-18306D01*
X57160Y-18291D01*
X56920Y-18576D02*
X56905Y-18591D01*
X56920Y-18606D01*
X56935Y-18591D01*
X56920Y-18576D01*
X56920Y-18606D01*
X56710Y-18291D02*
X56680Y-18291D01*
X56650Y-18306D01*
X56635Y-18321D01*
X56620Y-18351D01*
X56605Y-18411D01*
X56605Y-18486D01*
X56620Y-18546D01*
X56635Y-18576D01*
X56650Y-18591D01*
X56680Y-18606D01*
X56710Y-18606D01*
X56740Y-18591D01*
X56755Y-18576D01*
X56770Y-18546D01*
X56785Y-18486D01*
X56785Y-18411D01*
X56770Y-18351D01*
X56755Y-18321D01*
X56740Y-18306D01*
X56710Y-18291D01*
X56485Y-18321D02*
X56470Y-18306D01*
X56440Y-18291D01*
X56365Y-18291D01*
X56335Y-18306D01*
X56320Y-18321D01*
X56305Y-18351D01*
X56305Y-18381D01*
X56320Y-18426D01*
X56500Y-18606D01*
X56305Y-18606D01*
G54D12*
X60630Y-25550D02*
X54527Y-25550D01*
X60630Y-25550D02*
G75*
G03X61417Y-24763I0J787D01*
G74*
G01*
X61417Y-18660D02*
X61417Y-24763D01*
X53740Y-24763D02*
X53740Y-18660D01*
X53740Y-24763D02*
G75*
G03X54527Y-25550I787J0D01*
G74*
G01*
X54527Y-17873D02*
X60630Y-17873D01*
X61417Y-18660D02*
G75*
G03X60630Y-17873I-787J0D01*
G74*
G01*
X54527Y-17873D02*
G75*
G03X53740Y-18660I0J-787D01*
G74*
G01*
G54D13*
X58997Y-24976D02*
X58892Y-24976D01*
X58847Y-25141D02*
X58997Y-25141D01*
X58997Y-24826D01*
X58847Y-24826D01*
X58712Y-24931D02*
X58712Y-25141D01*
X58712Y-24961D02*
X58697Y-24946D01*
X58667Y-24931D01*
X58622Y-24931D01*
X58592Y-24946D01*
X58577Y-24976D01*
X58577Y-25141D01*
X58457Y-24931D02*
X58382Y-25141D01*
X58307Y-24931D01*
X58187Y-25111D02*
X58172Y-25126D01*
X58187Y-25141D01*
X58202Y-25126D01*
X58187Y-25111D01*
X58187Y-25141D01*
X57812Y-25126D02*
X57767Y-25141D01*
X57692Y-25141D01*
X57662Y-25126D01*
X57647Y-25111D01*
X57632Y-25081D01*
X57632Y-25051D01*
X57647Y-25021D01*
X57662Y-25006D01*
X57692Y-24991D01*
X57752Y-24976D01*
X57782Y-24961D01*
X57797Y-24946D01*
X57812Y-24916D01*
X57812Y-24886D01*
X57797Y-24856D01*
X57782Y-24841D01*
X57752Y-24826D01*
X57677Y-24826D01*
X57632Y-24841D01*
X57377Y-25126D02*
X57407Y-25141D01*
X57467Y-25141D01*
X57497Y-25126D01*
X57512Y-25096D01*
X57512Y-24976D01*
X57497Y-24946D01*
X57467Y-24931D01*
X57407Y-24931D01*
X57377Y-24946D01*
X57362Y-24976D01*
X57362Y-25006D01*
X57512Y-25036D01*
X57227Y-24931D02*
X57227Y-25141D01*
X57227Y-24961D02*
X57212Y-24946D01*
X57182Y-24931D01*
X57137Y-24931D01*
X57107Y-24946D01*
X57092Y-24976D01*
X57092Y-25141D01*
X56957Y-25126D02*
X56927Y-25141D01*
X56867Y-25141D01*
X56837Y-25126D01*
X56822Y-25096D01*
X56822Y-25081D01*
X56837Y-25051D01*
X56867Y-25036D01*
X56912Y-25036D01*
X56942Y-25021D01*
X56957Y-24991D01*
X56957Y-24976D01*
X56942Y-24946D01*
X56912Y-24931D01*
X56867Y-24931D01*
X56837Y-24946D01*
X56642Y-25141D02*
X56672Y-25126D01*
X56687Y-25111D01*
X56702Y-25081D01*
X56702Y-24991D01*
X56687Y-24961D01*
X56672Y-24946D01*
X56642Y-24931D01*
X56597Y-24931D01*
X56567Y-24946D01*
X56552Y-24961D01*
X56537Y-24991D01*
X56537Y-25081D01*
X56552Y-25111D01*
X56567Y-25126D01*
X56597Y-25141D01*
X56642Y-25141D01*
X56402Y-25141D02*
X56402Y-24931D01*
X56402Y-24991D02*
X56387Y-24961D01*
X56372Y-24946D01*
X56342Y-24931D01*
X56312Y-24931D01*
G54D14*
X58346Y-23267D02*
G75*
G02X57953Y-22873I0J393D01*
G74*
G01*
X58346Y-23857D02*
X56968Y-23857D01*
X56968Y-23857D02*
X56968Y-22873D01*
X56968Y-22873D02*
X58346Y-22873D01*
X58346Y-22873D02*
X58346Y-23857D01*
G54D15*
X57465Y-19720D02*
X57265Y-19420D01*
X57465Y-20420D02*
X57465Y-19395D01*
X57465Y-19395D02*
X56865Y-19395D01*
X56865Y-19395D02*
X56865Y-20420D01*
X56865Y-20420D02*
X57465Y-20420D01*
X57442Y-20676D02*
X57642Y-20676D01*
X57642Y-20676D02*
X57642Y-20976D01*
X57642Y-20976D02*
X57442Y-20976D01*
X57242Y-20676D02*
X57042Y-20676D01*
X57042Y-20676D02*
X57042Y-20976D01*
X57042Y-20976D02*
X57242Y-20976D01*
X56684Y-19351D02*
X56684Y-19551D01*
X56684Y-19551D02*
X56384Y-19551D01*
X56384Y-19551D02*
X56384Y-19351D01*
X56684Y-19151D02*
X56684Y-18951D01*
X56684Y-18951D02*
X56384Y-18951D01*
X56384Y-18951D02*
X56384Y-19151D01*
G54D14*
X58936Y-19959D02*
X58936Y-19487D01*
X58936Y-19487D02*
X58306Y-19487D01*
X58306Y-19487D02*
X58306Y-19959D01*
X58306Y-19959D02*
X58936Y-19959D01*
X57018Y-24137D02*
X57018Y-24373D01*
X57018Y-24373D02*
X56831Y-24373D01*
X56831Y-24137D02*
X57018Y-24137D01*
X56703Y-24137D02*
X56526Y-24137D01*
X56526Y-24137D02*
X56526Y-24373D01*
X56713Y-24373D02*
X56526Y-24373D01*
X56497Y-21446D02*
X56733Y-21446D01*
X56733Y-21446D02*
X56733Y-21633D01*
X56497Y-21633D02*
X56497Y-21446D01*
X56497Y-21761D02*
X56497Y-21938D01*
X56497Y-21938D02*
X56733Y-21938D01*
X56733Y-21751D02*
X56733Y-21938D01*
X58543Y-20757D02*
X58307Y-20757D01*
X58307Y-20757D02*
X58307Y-20570D01*
X58543Y-20570D02*
X58543Y-20757D01*
X58543Y-20442D02*
X58543Y-20265D01*
X58543Y-20265D02*
X58307Y-20265D01*
X58307Y-20452D02*
X58307Y-20265D01*
X58543Y-19221D02*
X58307Y-19221D01*
X58307Y-19221D02*
X58307Y-19034D01*
X58543Y-19034D02*
X58543Y-19221D01*
X58543Y-18906D02*
X58543Y-18729D01*
X58543Y-18729D02*
X58307Y-18729D01*
X58307Y-18916D02*
X58307Y-18729D01*
G54D16*
X57355Y-20543D02*
X57355Y-20785D01*
X57341Y-20814D01*
X57326Y-20828D01*
X57298Y-20843D01*
X57241Y-20843D01*
X57212Y-20828D01*
X57198Y-20814D01*
X57183Y-20785D01*
X57183Y-20543D01*
X56883Y-20843D02*
X57055Y-20843D01*
X56969Y-20843D02*
X56969Y-20543D01*
X56998Y-20585D01*
X57026Y-20614D01*
X57055Y-20628D01*
X57362Y-21169D02*
X57368Y-21174D01*
X57385Y-21180D01*
X57396Y-21180D01*
X57413Y-21174D01*
X57425Y-21163D01*
X57431Y-21152D01*
X57436Y-21129D01*
X57436Y-21112D01*
X57431Y-21089D01*
X57425Y-21077D01*
X57413Y-21066D01*
X57396Y-21060D01*
X57385Y-21060D01*
X57368Y-21066D01*
X57362Y-21072D01*
X57322Y-21060D02*
X57248Y-21060D01*
X57288Y-21106D01*
X57271Y-21106D01*
X57259Y-21112D01*
X57253Y-21117D01*
X57248Y-21129D01*
X57248Y-21157D01*
X57253Y-21169D01*
X57259Y-21174D01*
X57271Y-21180D01*
X57305Y-21180D01*
X57316Y-21174D01*
X57322Y-21169D01*
X56277Y-19231D02*
X56283Y-19225D01*
X56288Y-19208D01*
X56288Y-19197D01*
X56283Y-19179D01*
X56271Y-19168D01*
X56260Y-19162D01*
X56237Y-19157D01*
X56220Y-19157D01*
X56197Y-19162D01*
X56186Y-19168D01*
X56174Y-19179D01*
X56168Y-19197D01*
X56168Y-19208D01*
X56174Y-19225D01*
X56180Y-19231D01*
X56180Y-19277D02*
X56174Y-19282D01*
X56168Y-19294D01*
X56168Y-19322D01*
X56174Y-19334D01*
X56180Y-19339D01*
X56191Y-19345D01*
X56203Y-19345D01*
X56220Y-19339D01*
X56288Y-19271D01*
X56288Y-19345D01*
G54D14*
X57980Y-19543D02*
X58171Y-19543D01*
X58193Y-19554D01*
X58205Y-19566D01*
X58216Y-19588D01*
X58216Y-19633D01*
X58205Y-19655D01*
X58193Y-19667D01*
X58171Y-19678D01*
X57980Y-19678D01*
X57980Y-19768D02*
X57980Y-19914D01*
X58070Y-19835D01*
X58070Y-19869D01*
X58081Y-19891D01*
X58092Y-19903D01*
X58115Y-19914D01*
X58171Y-19914D01*
X58193Y-19903D01*
X58205Y-19891D01*
X58216Y-19869D01*
X58216Y-19802D01*
X58205Y-19779D01*
X58193Y-19768D01*
G54D16*
X56792Y-23998D02*
X56797Y-24003D01*
X56814Y-24009D01*
X56826Y-24009D01*
X56843Y-24003D01*
X56854Y-23992D01*
X56860Y-23980D01*
X56866Y-23958D01*
X56866Y-23940D01*
X56860Y-23918D01*
X56854Y-23906D01*
X56843Y-23895D01*
X56826Y-23889D01*
X56814Y-23889D01*
X56797Y-23895D01*
X56792Y-23900D01*
X56677Y-24009D02*
X56746Y-24009D01*
X56712Y-24009D02*
X56712Y-23889D01*
X56723Y-23906D01*
X56734Y-23918D01*
X56746Y-23923D01*
X56358Y-21672D02*
X56364Y-21666D01*
X56370Y-21649D01*
X56370Y-21638D01*
X56364Y-21620D01*
X56352Y-21609D01*
X56341Y-21603D01*
X56318Y-21598D01*
X56301Y-21598D01*
X56278Y-21603D01*
X56267Y-21609D01*
X56255Y-21620D01*
X56250Y-21638D01*
X56250Y-21649D01*
X56255Y-21666D01*
X56261Y-21672D01*
X56290Y-21775D02*
X56370Y-21775D01*
X56244Y-21746D02*
X56330Y-21718D01*
X56330Y-21792D01*
X58768Y-20491D02*
X58774Y-20485D01*
X58779Y-20468D01*
X58779Y-20457D01*
X58774Y-20439D01*
X58762Y-20428D01*
X58751Y-20422D01*
X58728Y-20417D01*
X58711Y-20417D01*
X58688Y-20422D01*
X58677Y-20428D01*
X58665Y-20439D01*
X58659Y-20457D01*
X58659Y-20468D01*
X58665Y-20485D01*
X58671Y-20491D01*
X58659Y-20531D02*
X58659Y-20611D01*
X58779Y-20559D01*
X58779Y-18955D02*
X58722Y-18915D01*
X58779Y-18886D02*
X58659Y-18886D01*
X58659Y-18932D01*
X58665Y-18943D01*
X58671Y-18949D01*
X58682Y-18955D01*
X58699Y-18955D01*
X58711Y-18949D01*
X58717Y-18943D01*
X58722Y-18932D01*
X58722Y-18886D01*
X58779Y-19069D02*
X58779Y-19001D01*
X58779Y-19035D02*
X58659Y-19035D01*
X58677Y-19023D01*
X58688Y-19012D01*
X58694Y-19001D01*
M02*
