%FSLAX34Y34*%
G04 Gerber Fmt 3.4, Leading zero omitted, Abs format*
G04 (created by PCBNEW (2014-03-19 BZR 4756)-product) date Sun 08 Jun 2014 00:25:28 BST*
%MOIN*%
G01*
G70*
G90*
G04 APERTURE LIST*
%ADD10C,0.005906*%
%ADD11C,0.015000*%
%ADD12O,0.082992X0.059370*%
%ADD13R,0.082992X0.059370*%
%ADD14R,0.043600X0.067200*%
%ADD15R,0.035700X0.043600*%
%ADD16R,0.043600X0.035700*%
%ADD17R,0.153900X0.153900*%
%ADD18R,0.035700X0.031800*%
%ADD19R,0.031800X0.035700*%
%ADD20R,0.100000X0.088000*%
%ADD21O,0.100000X0.088000*%
G04 APERTURE END LIST*
G54D10*
G54D11*
X60630Y-25550D02*
X54527Y-25550D01*
X60630Y-25550D02*
G75*
G03X61417Y-24763I0J787D01*
G74*
G01*
X61417Y-18660D02*
X61417Y-24763D01*
X53740Y-24763D02*
X53740Y-18660D01*
X53740Y-24763D02*
G75*
G03X54527Y-25550I787J0D01*
G74*
G01*
X54527Y-17873D02*
X60630Y-17873D01*
X61417Y-18660D02*
G75*
G03X60630Y-17873I-787J0D01*
G74*
G01*
X54527Y-17873D02*
G75*
G03X53740Y-18660I0J-787D01*
G74*
G01*
G54D12*
X54921Y-21908D03*
X54921Y-21318D03*
G54D13*
X54921Y-22499D03*
G54D12*
X54921Y-20727D03*
G54D10*
G36*
X60037Y-18835D02*
X60513Y-18835D01*
X60513Y-19429D01*
X60037Y-19429D01*
X60037Y-18835D01*
X60037Y-18835D01*
G37*
G36*
X59604Y-18835D02*
X60080Y-18835D01*
X60080Y-19429D01*
X59604Y-19429D01*
X59604Y-18835D01*
X59604Y-18835D01*
G37*
G36*
X59171Y-18835D02*
X59647Y-18835D01*
X59647Y-19429D01*
X59171Y-19429D01*
X59171Y-18835D01*
X59171Y-18835D01*
G37*
G36*
X59171Y-20095D02*
X59647Y-20095D01*
X59647Y-20689D01*
X59171Y-20689D01*
X59171Y-20095D01*
X59171Y-20095D01*
G37*
G36*
X59604Y-20095D02*
X60080Y-20095D01*
X60080Y-20689D01*
X59604Y-20689D01*
X59604Y-20095D01*
X59604Y-20095D01*
G37*
G36*
X60037Y-20095D02*
X60513Y-20095D01*
X60513Y-20689D01*
X60037Y-20689D01*
X60037Y-20095D01*
X60037Y-20095D01*
G37*
G54D14*
X56929Y-20786D03*
X57421Y-20786D03*
X57933Y-20786D03*
X58425Y-20786D03*
X58425Y-18502D03*
X57933Y-18502D03*
X57421Y-18502D03*
X56909Y-18502D03*
G54D15*
X57854Y-23385D03*
X57500Y-23385D03*
X58641Y-23385D03*
X58287Y-23385D03*
G54D16*
X56299Y-18483D03*
X56299Y-18837D03*
G54D10*
G36*
X57148Y-22885D02*
X56731Y-22885D01*
X56731Y-22311D01*
X57148Y-22311D01*
X57148Y-22885D01*
X57148Y-22885D01*
G37*
G36*
X57640Y-22885D02*
X57223Y-22885D01*
X57223Y-22311D01*
X57640Y-22311D01*
X57640Y-22885D01*
X57640Y-22885D01*
G37*
G36*
X58142Y-22885D02*
X57725Y-22885D01*
X57725Y-22311D01*
X58142Y-22311D01*
X58142Y-22885D01*
X58142Y-22885D01*
G37*
G36*
X58624Y-22885D02*
X58207Y-22885D01*
X58207Y-22311D01*
X58624Y-22311D01*
X58624Y-22885D01*
X58624Y-22885D01*
G37*
G36*
X58624Y-22097D02*
X58207Y-22097D01*
X58207Y-21523D01*
X58624Y-21523D01*
X58624Y-22097D01*
X58624Y-22097D01*
G37*
G36*
X58132Y-22097D02*
X57715Y-22097D01*
X57715Y-21523D01*
X58132Y-21523D01*
X58132Y-22097D01*
X58132Y-22097D01*
G37*
G36*
X57640Y-22097D02*
X57223Y-22097D01*
X57223Y-21523D01*
X57640Y-21523D01*
X57640Y-22097D01*
X57640Y-22097D01*
G37*
G36*
X57148Y-22097D02*
X56731Y-22097D01*
X56731Y-21523D01*
X57148Y-21523D01*
X57148Y-22097D01*
X57148Y-22097D01*
G37*
G54D17*
X54921Y-24369D03*
X54921Y-19054D03*
G54D18*
X56299Y-20511D03*
X56299Y-20747D03*
G54D19*
X60275Y-18620D03*
X60039Y-18620D03*
G54D20*
X60039Y-24688D03*
G54D21*
X60039Y-23688D03*
X60039Y-22688D03*
X60039Y-21688D03*
M02*
