G04 (created by PCBNEW-RS274X (2012-apr-16-27)-stable) date Sat 17 May 2014 12:29:47 BST*
G01*
G70*
G90*
%MOIN*%
G04 Gerber Fmt 3.4, Leading zero omitted, Abs format*
%FSLAX34Y34*%
G04 APERTURE LIST*
%ADD10C,0.006000*%
%ADD11R,0.059400X0.047600*%
%ADD12R,0.035700X0.043600*%
%ADD13R,0.043600X0.035700*%
%ADD14O,0.059400X0.047600*%
%ADD15R,0.153900X0.153900*%
%ADD16R,0.033800X0.051500*%
%ADD17R,0.035700X0.031800*%
G04 APERTURE END LIST*
G54D10*
G36*
X25760Y-29280D02*
X25760Y-29558D01*
X25344Y-29558D01*
X25344Y-29280D01*
X25760Y-29280D01*
X25760Y-29280D01*
G37*
G36*
X25760Y-29536D02*
X25760Y-29814D01*
X25344Y-29814D01*
X25344Y-29536D01*
X25760Y-29536D01*
X25760Y-29536D01*
G37*
G36*
X25760Y-29792D02*
X25760Y-30070D01*
X25344Y-30070D01*
X25344Y-29792D01*
X25760Y-29792D01*
X25760Y-29792D01*
G37*
G36*
X25760Y-30048D02*
X25760Y-30326D01*
X25344Y-30326D01*
X25344Y-30048D01*
X25760Y-30048D01*
X25760Y-30048D01*
G37*
G36*
X23320Y-30048D02*
X23320Y-30326D01*
X22904Y-30326D01*
X22904Y-30048D01*
X23320Y-30048D01*
X23320Y-30048D01*
G37*
G36*
X23320Y-29792D02*
X23320Y-30070D01*
X22904Y-30070D01*
X22904Y-29792D01*
X23320Y-29792D01*
X23320Y-29792D01*
G37*
G36*
X23320Y-29536D02*
X23320Y-29814D01*
X22904Y-29814D01*
X22904Y-29536D01*
X23320Y-29536D01*
X23320Y-29536D01*
G37*
G36*
X23320Y-29280D02*
X23320Y-29558D01*
X22904Y-29558D01*
X22904Y-29280D01*
X23320Y-29280D01*
X23320Y-29280D01*
G37*
G54D11*
X23201Y-27007D03*
X24201Y-27382D03*
X24201Y-26632D03*
G54D12*
X24055Y-27913D03*
X23701Y-27913D03*
G54D13*
X23070Y-26515D03*
X23070Y-26161D03*
G54D14*
X21457Y-27932D03*
G54D11*
X21457Y-29704D03*
G54D14*
X21457Y-28523D03*
X21457Y-29113D03*
X21457Y-29113D03*
X21457Y-28523D03*
G54D11*
X21457Y-29704D03*
G54D14*
X21457Y-27932D03*
G54D15*
X21457Y-31456D03*
X21457Y-26141D03*
X26772Y-26141D03*
X26772Y-31456D03*
G54D10*
G36*
X25326Y-27283D02*
X24988Y-27283D01*
X24988Y-26769D01*
X25326Y-26769D01*
X25326Y-27283D01*
X25326Y-27283D01*
G37*
G36*
X25326Y-26851D02*
X24988Y-26851D01*
X24988Y-26337D01*
X25326Y-26337D01*
X25326Y-26851D01*
X25326Y-26851D01*
G37*
G36*
X25523Y-27283D02*
X25185Y-27283D01*
X25185Y-26769D01*
X25523Y-26769D01*
X25523Y-27283D01*
X25523Y-27283D01*
G37*
G54D16*
X25354Y-26594D03*
X24960Y-27026D03*
X24960Y-26594D03*
G54D17*
X23110Y-30551D03*
X23110Y-30787D03*
X23151Y-28897D03*
X23151Y-28661D03*
X24961Y-27480D03*
X24961Y-27716D03*
X24961Y-25944D03*
X24961Y-26180D03*
M02*
