%FSLAX34Y34*%
G04 Gerber Fmt 3.4, Leading zero omitted, Abs format*
G04 (created by PCBNEW (2014-03-19 BZR 4756)-product) date Tue 19 Aug 2014 23:13:18 BST*
%MOIN*%
G01*
G70*
G90*
G04 APERTURE LIST*
%ADD10C,0.005906*%
%ADD11C,0.015000*%
%ADD12C,0.006700*%
%ADD13O,0.062992X0.039370*%
%ADD14R,0.062992X0.039370*%
%ADD15R,0.039400X0.027600*%
%ADD16R,0.015700X0.023600*%
%ADD17R,0.023600X0.015700*%
%ADD18R,0.133900X0.133900*%
%ADD19R,0.013800X0.031500*%
%ADD20R,0.011800X0.015700*%
%ADD21R,0.015700X0.011800*%
%ADD22R,0.080000X0.068000*%
%ADD23O,0.080000X0.068000*%
%ADD24C,0.035000*%
%ADD25C,0.008701*%
%ADD26C,0.006701*%
%ADD27C,0.015748*%
G04 APERTURE END LIST*
G54D10*
G54D11*
X97047Y-19093D02*
X98425Y-19093D01*
X97047Y-26770D02*
X98425Y-26770D01*
X97047Y-19093D02*
X91142Y-19093D01*
X99212Y-19881D02*
G75*
G03X98425Y-19093I-787J0D01*
G74*
G01*
X99212Y-25983D02*
X99212Y-19881D01*
X90354Y-20078D02*
X90354Y-19881D01*
X91142Y-19093D02*
G75*
G03X90354Y-19881I0J-787D01*
G74*
G01*
X90354Y-25983D02*
X90354Y-20078D01*
X97047Y-26770D02*
X96653Y-26770D01*
X98425Y-26770D02*
G75*
G03X99212Y-25983I0J787D01*
G74*
G01*
X91142Y-26770D02*
X96653Y-26770D01*
X90354Y-25983D02*
G75*
G03X91142Y-26770I787J0D01*
G74*
G01*
G54D12*
X90605Y-24035D02*
X90605Y-24215D01*
X90605Y-24125D02*
X90920Y-24125D01*
X90875Y-24155D01*
X90845Y-24185D01*
X90830Y-24215D01*
X90920Y-23840D02*
X90920Y-23810D01*
X90905Y-23780D01*
X90890Y-23765D01*
X90860Y-23750D01*
X90800Y-23735D01*
X90725Y-23735D01*
X90665Y-23750D01*
X90635Y-23765D01*
X90620Y-23780D01*
X90605Y-23810D01*
X90605Y-23840D01*
X90620Y-23870D01*
X90635Y-23885D01*
X90665Y-23900D01*
X90725Y-23915D01*
X90800Y-23915D01*
X90860Y-23900D01*
X90890Y-23885D01*
X90905Y-23870D01*
X90920Y-23840D01*
X90815Y-23645D02*
X90815Y-23525D01*
X90920Y-23600D02*
X90650Y-23600D01*
X90620Y-23585D01*
X90605Y-23555D01*
X90605Y-23525D01*
X90605Y-23375D02*
X90620Y-23405D01*
X90635Y-23420D01*
X90665Y-23435D01*
X90755Y-23435D01*
X90785Y-23420D01*
X90800Y-23405D01*
X90815Y-23375D01*
X90815Y-23330D01*
X90800Y-23300D01*
X90785Y-23285D01*
X90755Y-23270D01*
X90665Y-23270D01*
X90635Y-23285D01*
X90620Y-23300D01*
X90605Y-23330D01*
X90605Y-23375D01*
X90920Y-23165D02*
X90920Y-22955D01*
X90605Y-23090D01*
X90635Y-22835D02*
X90620Y-22820D01*
X90605Y-22835D01*
X90620Y-22850D01*
X90635Y-22835D01*
X90605Y-22835D01*
X90620Y-22550D02*
X90605Y-22580D01*
X90605Y-22640D01*
X90620Y-22670D01*
X90635Y-22685D01*
X90665Y-22700D01*
X90755Y-22700D01*
X90785Y-22685D01*
X90800Y-22670D01*
X90815Y-22640D01*
X90815Y-22580D01*
X90800Y-22550D01*
X90605Y-22370D02*
X90620Y-22400D01*
X90635Y-22415D01*
X90665Y-22430D01*
X90755Y-22430D01*
X90785Y-22415D01*
X90800Y-22400D01*
X90815Y-22370D01*
X90815Y-22325D01*
X90800Y-22295D01*
X90785Y-22280D01*
X90755Y-22265D01*
X90665Y-22265D01*
X90635Y-22280D01*
X90620Y-22295D01*
X90605Y-22325D01*
X90605Y-22370D01*
X90605Y-22130D02*
X90815Y-22130D01*
X90785Y-22130D02*
X90800Y-22115D01*
X90815Y-22085D01*
X90815Y-22040D01*
X90800Y-22010D01*
X90770Y-21995D01*
X90605Y-21995D01*
X90770Y-21995D02*
X90800Y-21980D01*
X90815Y-21950D01*
X90815Y-21905D01*
X90800Y-21875D01*
X90770Y-21860D01*
X90605Y-21860D01*
G54D10*
G36*
X96348Y-24772D02*
X96348Y-24890D01*
X96131Y-24890D01*
X96131Y-24772D01*
X96348Y-24772D01*
X96348Y-24772D01*
G37*
G36*
X96348Y-25028D02*
X96348Y-25146D01*
X96131Y-25146D01*
X96131Y-25028D01*
X96348Y-25028D01*
X96348Y-25028D01*
G37*
G36*
X96348Y-25284D02*
X96348Y-25402D01*
X96131Y-25402D01*
X96131Y-25284D01*
X96348Y-25284D01*
X96348Y-25284D01*
G37*
G36*
X96348Y-25540D02*
X96348Y-25658D01*
X96131Y-25658D01*
X96131Y-25540D01*
X96348Y-25540D01*
X96348Y-25540D01*
G37*
G36*
X94302Y-25540D02*
X94302Y-25658D01*
X94085Y-25658D01*
X94085Y-25540D01*
X94302Y-25540D01*
X94302Y-25540D01*
G37*
G36*
X94302Y-25284D02*
X94302Y-25402D01*
X94085Y-25402D01*
X94085Y-25284D01*
X94302Y-25284D01*
X94302Y-25284D01*
G37*
G36*
X94302Y-25028D02*
X94302Y-25146D01*
X94085Y-25146D01*
X94085Y-25028D01*
X94302Y-25028D01*
X94302Y-25028D01*
G37*
G36*
X94302Y-24772D02*
X94302Y-24890D01*
X94085Y-24890D01*
X94085Y-24772D01*
X94302Y-24772D01*
X94302Y-24772D01*
G37*
G54D13*
X91535Y-23128D03*
X91535Y-22538D03*
G54D14*
X91535Y-23719D03*
G54D13*
X91535Y-21947D03*
G54D15*
X93279Y-21140D03*
X94279Y-21515D03*
X94279Y-20765D03*
G54D16*
X94133Y-22046D03*
X93779Y-22046D03*
G54D17*
X93148Y-20648D03*
X93148Y-20294D03*
G54D18*
X91535Y-25589D03*
X91535Y-20274D03*
G54D10*
G36*
X95304Y-21317D02*
X95166Y-21317D01*
X95166Y-21002D01*
X95304Y-21002D01*
X95304Y-21317D01*
X95304Y-21317D01*
G37*
G36*
X95304Y-20885D02*
X95166Y-20885D01*
X95166Y-20570D01*
X95304Y-20570D01*
X95304Y-20885D01*
X95304Y-20885D01*
G37*
G36*
X95501Y-21317D02*
X95363Y-21317D01*
X95363Y-21002D01*
X95501Y-21002D01*
X95501Y-21317D01*
X95501Y-21317D01*
G37*
G54D19*
X95432Y-20727D03*
X95038Y-21159D03*
X95038Y-20727D03*
G54D20*
X96240Y-24467D03*
X96004Y-24467D03*
X94193Y-24467D03*
X94429Y-24467D03*
G54D21*
X95039Y-21613D03*
X95039Y-21849D03*
X95039Y-20077D03*
X95039Y-20313D03*
G54D22*
X98425Y-24333D03*
G54D23*
X98425Y-23333D03*
X98425Y-22333D03*
X98425Y-21333D03*
G54D21*
X93484Y-24940D03*
X93484Y-24704D03*
X96988Y-24979D03*
X96988Y-24743D03*
X93484Y-25334D03*
X93484Y-25570D03*
X96988Y-25373D03*
X96988Y-25609D03*
G54D17*
X93012Y-24566D03*
X93012Y-24920D03*
X97461Y-24605D03*
X97461Y-24959D03*
X93012Y-25707D03*
X93012Y-25353D03*
X97461Y-25747D03*
X97461Y-25393D03*
G54D16*
X93819Y-26003D03*
X93465Y-26003D03*
G54D24*
X95529Y-21678D03*
X96318Y-22048D03*
X93820Y-23986D03*
X92656Y-24510D03*
X97461Y-23684D03*
X95958Y-24048D03*
X93190Y-24060D03*
G54D25*
X93209Y-20830D02*
X93148Y-20830D01*
X93279Y-20900D02*
X93209Y-20830D01*
X93279Y-21140D02*
X93279Y-20900D01*
X93148Y-20648D02*
X93148Y-20830D01*
X91535Y-22538D02*
X91953Y-22538D01*
X94193Y-24831D02*
X94193Y-24831D01*
X94193Y-24467D02*
X94193Y-24831D01*
X91953Y-22538D02*
X93024Y-22538D01*
X93279Y-22283D02*
X93279Y-21140D01*
X93024Y-22538D02*
X93279Y-22283D01*
X94193Y-23707D02*
X94193Y-24286D01*
X93024Y-22538D02*
X94193Y-23707D01*
X94193Y-24467D02*
X94193Y-24286D01*
G54D26*
X96988Y-24979D02*
X96817Y-24979D01*
X97179Y-24959D02*
X97159Y-24979D01*
X97461Y-24959D02*
X97179Y-24959D01*
X96988Y-24979D02*
X97159Y-24979D01*
X95529Y-21678D02*
X95526Y-21682D01*
X95254Y-21410D02*
X95235Y-21410D01*
X95526Y-21682D02*
X95254Y-21410D01*
X95235Y-21159D02*
X95235Y-21410D01*
X96817Y-22973D02*
X95526Y-21682D01*
X96817Y-24979D02*
X96817Y-22973D01*
X96709Y-25087D02*
X96240Y-25087D01*
X96817Y-24979D02*
X96709Y-25087D01*
G54D25*
X96480Y-25373D02*
X96451Y-25343D01*
X96988Y-25373D02*
X96480Y-25373D01*
X96240Y-25343D02*
X96451Y-25343D01*
X96988Y-25373D02*
X97169Y-25373D01*
X98425Y-24333D02*
X98425Y-24776D01*
X98425Y-25147D02*
X98425Y-24776D01*
X97642Y-25930D02*
X98425Y-25147D01*
X97297Y-25930D02*
X97642Y-25930D01*
X97240Y-25872D02*
X97297Y-25930D01*
X97240Y-25393D02*
X97240Y-25872D01*
X97189Y-25393D02*
X97240Y-25393D01*
X97169Y-25373D02*
X97189Y-25393D01*
X97240Y-25393D02*
X97461Y-25393D01*
G54D26*
X95432Y-21159D02*
X95432Y-21410D01*
X95556Y-21410D02*
X95432Y-21410D01*
X95597Y-21368D02*
X95556Y-21410D01*
X95638Y-21368D02*
X96318Y-22048D01*
X95597Y-21368D02*
X95638Y-21368D01*
X94193Y-25087D02*
X93992Y-25087D01*
X93992Y-24159D02*
X93820Y-23986D01*
X93992Y-25087D02*
X93992Y-24159D01*
X93484Y-24940D02*
X93313Y-24940D01*
X93012Y-24920D02*
X93222Y-24920D01*
X93293Y-24920D02*
X93313Y-24940D01*
X93222Y-24920D02*
X93293Y-24920D01*
X95597Y-20187D02*
X95597Y-21368D01*
X95192Y-19782D02*
X95597Y-20187D01*
X93306Y-19782D02*
X95192Y-19782D01*
X92643Y-20445D02*
X93306Y-19782D01*
X92643Y-20640D02*
X92643Y-20445D01*
X91869Y-21414D02*
X92643Y-20640D01*
X91517Y-21414D02*
X91869Y-21414D01*
X91126Y-21804D02*
X91517Y-21414D01*
X91126Y-22669D02*
X91126Y-21804D01*
X91291Y-22833D02*
X91126Y-22669D01*
X91900Y-22833D02*
X91291Y-22833D01*
X92912Y-23845D02*
X91900Y-22833D01*
X92980Y-23777D02*
X92912Y-23845D01*
X93610Y-23777D02*
X92980Y-23777D01*
X93820Y-23986D02*
X93610Y-23777D01*
X93222Y-24442D02*
X93222Y-24920D01*
X93109Y-24328D02*
X93222Y-24442D01*
X93071Y-24328D02*
X93109Y-24328D01*
X92912Y-24169D02*
X93071Y-24328D01*
X92912Y-23845D02*
X92912Y-24169D01*
G54D25*
X98425Y-23333D02*
X98425Y-23776D01*
X91535Y-23128D02*
X91953Y-23128D01*
X94193Y-25343D02*
X94404Y-25343D01*
X97706Y-26089D02*
X94404Y-26089D01*
X98930Y-24866D02*
X97706Y-26089D01*
X98930Y-23949D02*
X98930Y-24866D01*
X98757Y-23776D02*
X98930Y-23949D01*
X98425Y-23776D02*
X98757Y-23776D01*
X94404Y-25343D02*
X94404Y-26089D01*
X92378Y-23553D02*
X91953Y-23128D01*
X92378Y-25443D02*
X92378Y-23553D01*
X93162Y-26227D02*
X92378Y-25443D01*
X94266Y-26227D02*
X93162Y-26227D01*
X94404Y-26089D02*
X94266Y-26227D01*
X93484Y-25334D02*
X93303Y-25334D01*
X94193Y-25343D02*
X93982Y-25343D01*
X93823Y-25503D02*
X93982Y-25343D01*
X93823Y-25618D02*
X93823Y-25503D01*
X93710Y-25731D02*
X93823Y-25618D01*
X93332Y-25731D02*
X93710Y-25731D01*
X93283Y-25682D02*
X93332Y-25731D01*
X93283Y-25353D02*
X93283Y-25682D01*
X93012Y-25353D02*
X93283Y-25353D01*
X93283Y-25353D02*
X93303Y-25334D01*
G54D26*
X94223Y-21746D02*
X94279Y-21746D01*
X94133Y-21836D02*
X94223Y-21746D01*
X94133Y-22046D02*
X94133Y-21836D01*
X94279Y-21515D02*
X94279Y-21746D01*
X94279Y-21515D02*
X94569Y-21515D01*
X95038Y-21461D02*
X95038Y-21159D01*
X95039Y-21461D02*
X95038Y-21461D01*
X95039Y-21462D02*
X95039Y-21461D01*
X94623Y-21461D02*
X94569Y-21515D01*
X95038Y-21461D02*
X94623Y-21461D01*
X94868Y-20989D02*
X95038Y-21159D01*
X94868Y-20077D02*
X94868Y-20989D01*
X95039Y-20077D02*
X94868Y-20077D01*
X96240Y-24831D02*
X96441Y-24831D01*
X96240Y-24467D02*
X96392Y-24467D01*
X92745Y-24510D02*
X92656Y-24510D01*
X92801Y-24566D02*
X92745Y-24510D01*
X93012Y-24566D02*
X92801Y-24566D01*
X93012Y-25707D02*
X93012Y-25713D01*
X93465Y-26003D02*
X93293Y-26003D01*
X97461Y-25747D02*
X97461Y-25575D01*
X97461Y-24605D02*
X97461Y-24776D01*
X96441Y-24516D02*
X96441Y-24831D01*
X96392Y-24467D02*
X96441Y-24516D01*
X97461Y-24605D02*
X97461Y-23684D01*
X92801Y-25502D02*
X92801Y-24566D01*
X93012Y-25713D02*
X92801Y-25502D01*
X93293Y-25994D02*
X93012Y-25713D01*
X93293Y-26003D02*
X93293Y-25994D01*
X97632Y-24776D02*
X97461Y-24776D01*
X97685Y-24830D02*
X97632Y-24776D01*
X97685Y-25522D02*
X97685Y-24830D01*
X97632Y-25575D02*
X97685Y-25522D01*
X97461Y-25575D02*
X97632Y-25575D01*
X95039Y-21613D02*
X95039Y-21543D01*
X95039Y-21543D02*
X95039Y-21462D01*
X96206Y-24296D02*
X96240Y-24296D01*
X95958Y-24048D02*
X96206Y-24296D01*
X95958Y-22485D02*
X95958Y-24048D01*
X95039Y-21567D02*
X95958Y-22485D01*
X95039Y-21543D02*
X95039Y-21567D01*
X96240Y-24467D02*
X96240Y-24296D01*
X96807Y-25599D02*
X96441Y-25599D01*
X96817Y-25609D02*
X96807Y-25599D01*
X96988Y-25609D02*
X96817Y-25609D01*
X95039Y-21849D02*
X94868Y-21849D01*
X96340Y-25599D02*
X96441Y-25599D01*
X94429Y-22289D02*
X94868Y-21849D01*
X94021Y-22289D02*
X94429Y-22289D01*
X93950Y-22218D02*
X94021Y-22289D01*
X93950Y-22046D02*
X93950Y-22218D01*
X93779Y-22046D02*
X93865Y-22046D01*
X93865Y-22046D02*
X93950Y-22046D01*
X93865Y-21411D02*
X94279Y-20996D01*
X93865Y-22046D02*
X93865Y-21411D01*
X94279Y-20765D02*
X94279Y-20996D01*
X94279Y-20765D02*
X94279Y-20535D01*
X95432Y-20727D02*
X95235Y-20727D01*
X93148Y-20294D02*
X93359Y-20294D01*
X94279Y-20294D02*
X93359Y-20294D01*
X94652Y-19922D02*
X94279Y-20294D01*
X95152Y-19922D02*
X94652Y-19922D01*
X95235Y-20005D02*
X95152Y-19922D01*
X95235Y-20727D02*
X95235Y-20005D01*
X94279Y-20294D02*
X94279Y-20535D01*
X92977Y-20466D02*
X93148Y-20466D01*
X92825Y-20617D02*
X92977Y-20466D01*
X92825Y-21065D02*
X92825Y-20617D01*
X91943Y-21947D02*
X92825Y-21065D01*
X91535Y-21947D02*
X91943Y-21947D01*
X93148Y-20294D02*
X93148Y-20466D01*
X93484Y-24704D02*
X93518Y-24704D01*
X93655Y-24841D02*
X93655Y-25570D01*
X93518Y-24704D02*
X93655Y-24841D01*
X93484Y-24354D02*
X93190Y-24060D01*
X93484Y-24704D02*
X93484Y-24354D01*
X93484Y-25570D02*
X93655Y-25570D01*
X94429Y-24467D02*
X94429Y-22289D01*
X96004Y-24467D02*
X95852Y-24467D01*
X94429Y-24467D02*
X95852Y-24467D01*
X96340Y-25599D02*
X96240Y-25599D01*
X96038Y-24673D02*
X96004Y-24638D01*
X96038Y-25599D02*
X96038Y-24673D01*
X96240Y-25599D02*
X96038Y-25599D01*
X96004Y-24467D02*
X96004Y-24638D01*
X96988Y-23095D02*
X96988Y-24743D01*
X98317Y-21766D02*
X96988Y-23095D01*
X98425Y-21766D02*
X98317Y-21766D01*
X98425Y-21333D02*
X98425Y-21766D01*
X95038Y-20466D02*
X95038Y-20727D01*
X95039Y-20465D02*
X95038Y-20466D01*
X95039Y-20313D02*
X95039Y-20465D01*
X93990Y-25602D02*
X93992Y-25599D01*
X93990Y-26003D02*
X93990Y-25602D01*
X93819Y-26003D02*
X93990Y-26003D01*
X94193Y-25599D02*
X93992Y-25599D01*
G54D10*
G36*
X92921Y-22135D02*
X92876Y-22180D01*
X92058Y-22180D01*
X92101Y-22110D01*
X92119Y-22043D01*
X92059Y-21969D01*
X91557Y-21969D01*
X91557Y-21977D01*
X91514Y-21977D01*
X91514Y-21969D01*
X91506Y-21969D01*
X91506Y-21926D01*
X91514Y-21926D01*
X91514Y-21918D01*
X91557Y-21918D01*
X91557Y-21926D01*
X92059Y-21926D01*
X92119Y-21852D01*
X92101Y-21785D01*
X92051Y-21703D01*
X92116Y-21660D01*
X92767Y-21008D01*
X92767Y-21065D01*
X92767Y-21341D01*
X92815Y-21457D01*
X92904Y-21545D01*
X92921Y-21552D01*
X92921Y-22135D01*
X92921Y-22135D01*
G37*
G54D27*
X92921Y-22135D02*
X92876Y-22180D01*
X92058Y-22180D01*
X92101Y-22110D01*
X92119Y-22043D01*
X92059Y-21969D01*
X91557Y-21969D01*
X91557Y-21977D01*
X91514Y-21977D01*
X91514Y-21969D01*
X91506Y-21969D01*
X91506Y-21926D01*
X91514Y-21926D01*
X91514Y-21918D01*
X91557Y-21918D01*
X91557Y-21926D01*
X92059Y-21926D01*
X92119Y-21852D01*
X92101Y-21785D01*
X92051Y-21703D01*
X92116Y-21660D01*
X92767Y-21008D01*
X92767Y-21065D01*
X92767Y-21341D01*
X92815Y-21457D01*
X92904Y-21545D01*
X92921Y-21552D01*
X92921Y-22135D01*
G54D10*
G36*
X94520Y-20349D02*
X94421Y-20349D01*
X94370Y-20349D01*
X94301Y-20418D01*
X94301Y-20744D01*
X94309Y-20744D01*
X94309Y-20787D01*
X94301Y-20787D01*
X94301Y-20795D01*
X94258Y-20795D01*
X94258Y-20787D01*
X94258Y-20744D01*
X94258Y-20418D01*
X94188Y-20349D01*
X94138Y-20349D01*
X94027Y-20349D01*
X93925Y-20391D01*
X93846Y-20469D01*
X93804Y-20572D01*
X93804Y-20674D01*
X93873Y-20744D01*
X94258Y-20744D01*
X94258Y-20787D01*
X93873Y-20787D01*
X93804Y-20856D01*
X93804Y-20959D01*
X93846Y-21061D01*
X93900Y-21115D01*
X93815Y-21199D01*
X93791Y-21257D01*
X93791Y-21216D01*
X93791Y-20940D01*
X93743Y-20824D01*
X93655Y-20735D01*
X93581Y-20705D01*
X93581Y-20664D01*
X93581Y-20507D01*
X93545Y-20420D01*
X93545Y-20385D01*
X93475Y-20316D01*
X93458Y-20316D01*
X93445Y-20303D01*
X93373Y-20273D01*
X93475Y-20273D01*
X93545Y-20203D01*
X93545Y-20160D01*
X93532Y-20130D01*
X94520Y-20130D01*
X94520Y-20349D01*
X94520Y-20349D01*
G37*
G54D27*
X94520Y-20349D02*
X94421Y-20349D01*
X94370Y-20349D01*
X94301Y-20418D01*
X94301Y-20744D01*
X94309Y-20744D01*
X94309Y-20787D01*
X94301Y-20787D01*
X94301Y-20795D01*
X94258Y-20795D01*
X94258Y-20787D01*
X94258Y-20744D01*
X94258Y-20418D01*
X94188Y-20349D01*
X94138Y-20349D01*
X94027Y-20349D01*
X93925Y-20391D01*
X93846Y-20469D01*
X93804Y-20572D01*
X93804Y-20674D01*
X93873Y-20744D01*
X94258Y-20744D01*
X94258Y-20787D01*
X93873Y-20787D01*
X93804Y-20856D01*
X93804Y-20959D01*
X93846Y-21061D01*
X93900Y-21115D01*
X93815Y-21199D01*
X93791Y-21257D01*
X93791Y-21216D01*
X93791Y-20940D01*
X93743Y-20824D01*
X93655Y-20735D01*
X93581Y-20705D01*
X93581Y-20664D01*
X93581Y-20507D01*
X93545Y-20420D01*
X93545Y-20385D01*
X93475Y-20316D01*
X93458Y-20316D01*
X93445Y-20303D01*
X93373Y-20273D01*
X93475Y-20273D01*
X93545Y-20203D01*
X93545Y-20160D01*
X93532Y-20130D01*
X94520Y-20130D01*
X94520Y-20349D01*
G54D10*
G36*
X98822Y-20828D02*
X98742Y-20770D01*
X98506Y-20715D01*
X98446Y-20715D01*
X98446Y-21312D01*
X98454Y-21312D01*
X98454Y-21355D01*
X98446Y-21355D01*
X98446Y-21363D01*
X98404Y-21363D01*
X98404Y-21355D01*
X98404Y-21312D01*
X98404Y-20715D01*
X98344Y-20715D01*
X98109Y-20770D01*
X97913Y-20911D01*
X97785Y-21116D01*
X97758Y-21216D01*
X97816Y-21312D01*
X98404Y-21312D01*
X98404Y-21355D01*
X97816Y-21355D01*
X97758Y-21451D01*
X97785Y-21551D01*
X97913Y-21756D01*
X97983Y-21807D01*
X97888Y-21870D01*
X97746Y-22083D01*
X97696Y-22333D01*
X97746Y-22584D01*
X97888Y-22797D01*
X97943Y-22833D01*
X97888Y-22870D01*
X97746Y-23083D01*
X97711Y-23258D01*
X97558Y-23195D01*
X97363Y-23194D01*
X97183Y-23269D01*
X97165Y-23287D01*
X97165Y-22973D01*
X97139Y-22839D01*
X97063Y-22726D01*
X96698Y-22361D01*
X96733Y-22326D01*
X96808Y-22146D01*
X96808Y-21951D01*
X96733Y-21771D01*
X96596Y-21633D01*
X96416Y-21558D01*
X96321Y-21558D01*
X95945Y-21183D01*
X95945Y-20187D01*
X95919Y-20053D01*
X95843Y-19940D01*
X95438Y-19535D01*
X95360Y-19483D01*
X97047Y-19483D01*
X98387Y-19483D01*
X98574Y-19521D01*
X98701Y-19605D01*
X98785Y-19732D01*
X98822Y-19919D01*
X98822Y-20828D01*
X98822Y-20828D01*
G37*
G54D27*
X98822Y-20828D02*
X98742Y-20770D01*
X98506Y-20715D01*
X98446Y-20715D01*
X98446Y-21312D01*
X98454Y-21312D01*
X98454Y-21355D01*
X98446Y-21355D01*
X98446Y-21363D01*
X98404Y-21363D01*
X98404Y-21355D01*
X98404Y-21312D01*
X98404Y-20715D01*
X98344Y-20715D01*
X98109Y-20770D01*
X97913Y-20911D01*
X97785Y-21116D01*
X97758Y-21216D01*
X97816Y-21312D01*
X98404Y-21312D01*
X98404Y-21355D01*
X97816Y-21355D01*
X97758Y-21451D01*
X97785Y-21551D01*
X97913Y-21756D01*
X97983Y-21807D01*
X97888Y-21870D01*
X97746Y-22083D01*
X97696Y-22333D01*
X97746Y-22584D01*
X97888Y-22797D01*
X97943Y-22833D01*
X97888Y-22870D01*
X97746Y-23083D01*
X97711Y-23258D01*
X97558Y-23195D01*
X97363Y-23194D01*
X97183Y-23269D01*
X97165Y-23287D01*
X97165Y-22973D01*
X97139Y-22839D01*
X97063Y-22726D01*
X96698Y-22361D01*
X96733Y-22326D01*
X96808Y-22146D01*
X96808Y-21951D01*
X96733Y-21771D01*
X96596Y-21633D01*
X96416Y-21558D01*
X96321Y-21558D01*
X95945Y-21183D01*
X95945Y-20187D01*
X95919Y-20053D01*
X95843Y-19940D01*
X95438Y-19535D01*
X95360Y-19483D01*
X97047Y-19483D01*
X98387Y-19483D01*
X98574Y-19521D01*
X98701Y-19605D01*
X98785Y-19732D01*
X98822Y-19919D01*
X98822Y-20828D01*
M02*
