%FSLAX34Y34*%
G04 Gerber Fmt 3.4, Leading zero omitted, Abs format*
G04 (created by PCBNEW (2014-03-19 BZR 4756)-product) date Tue 19 Aug 2014 23:13:18 BST*
%MOIN*%
G01*
G70*
G90*
G04 APERTURE LIST*
%ADD10C,0.005906*%
%ADD11C,0.015000*%
%ADD12C,0.005000*%
%ADD13C,0.003900*%
%ADD14C,0.010000*%
%ADD15C,0.012000*%
%ADD16C,0.003000*%
G04 APERTURE END LIST*
G54D10*
G54D11*
X97047Y-19093D02*
X98425Y-19093D01*
X97047Y-26770D02*
X98425Y-26770D01*
X97047Y-19093D02*
X91142Y-19093D01*
X99212Y-19881D02*
G75*
G03X98425Y-19093I-787J0D01*
G74*
G01*
X99212Y-25983D02*
X99212Y-19881D01*
X90354Y-20078D02*
X90354Y-19881D01*
X91142Y-19093D02*
G75*
G03X90354Y-19881I0J-787D01*
G74*
G01*
X90354Y-25983D02*
X90354Y-20078D01*
X97047Y-26770D02*
X96653Y-26770D01*
X98425Y-26770D02*
G75*
G03X99212Y-25983I0J787D01*
G74*
G01*
X91142Y-26770D02*
X96653Y-26770D01*
X90354Y-25983D02*
G75*
G03X91142Y-26770I787J0D01*
G74*
G01*
X92244Y-24309D02*
X91535Y-24309D01*
X92244Y-21357D02*
X92244Y-24309D01*
X90826Y-21357D02*
X92244Y-21357D01*
X90826Y-24309D02*
X90826Y-21357D01*
X91535Y-24309D02*
X90826Y-24309D01*
X91535Y-24309D02*
X90826Y-24309D01*
X90826Y-24309D02*
X90826Y-21357D01*
X90826Y-21357D02*
X92244Y-21357D01*
X92244Y-21357D02*
X92244Y-24309D01*
X92244Y-24309D02*
X91535Y-24309D01*
X95906Y-20629D02*
X95906Y-21298D01*
X95906Y-21298D02*
X97008Y-21298D01*
X97008Y-21298D02*
X97008Y-20629D01*
X97008Y-20629D02*
X95906Y-20629D01*
X93562Y-20885D02*
G75*
G03X93346Y-20629I-236J20D01*
G74*
G01*
X93346Y-21082D02*
G75*
G03X93563Y-20865I0J217D01*
G74*
G01*
X93307Y-20078D02*
X93307Y-21652D01*
X93307Y-21652D02*
X95275Y-21652D01*
X95275Y-21652D02*
X95275Y-20078D01*
X95275Y-20078D02*
X93307Y-20078D01*
X93307Y-20078D02*
X93326Y-20097D01*
G54D12*
X94273Y-25857D02*
X94473Y-25857D01*
X94473Y-25857D02*
X94473Y-25557D01*
X94473Y-25557D02*
X94273Y-25557D01*
X94073Y-25857D02*
X93873Y-25857D01*
X93873Y-25857D02*
X93873Y-25557D01*
X93873Y-25557D02*
X94073Y-25557D01*
X94903Y-25857D02*
X95103Y-25857D01*
X95103Y-25857D02*
X95103Y-25557D01*
X95103Y-25557D02*
X94903Y-25557D01*
X94703Y-25857D02*
X94503Y-25857D01*
X94503Y-25857D02*
X94503Y-25557D01*
X94503Y-25557D02*
X94703Y-25557D01*
X93063Y-19781D02*
X93063Y-19581D01*
X93063Y-19581D02*
X92763Y-19581D01*
X92763Y-19581D02*
X92763Y-19781D01*
X93063Y-19981D02*
X93063Y-20181D01*
X93063Y-20181D02*
X92763Y-20181D01*
X92763Y-20181D02*
X92763Y-19981D01*
G54D11*
X93228Y-25393D02*
X93228Y-24211D01*
X93228Y-24211D02*
X95196Y-24211D01*
X95196Y-24211D02*
X95196Y-25393D01*
X95196Y-25393D02*
X93228Y-25393D01*
G54D13*
X93317Y-22125D02*
X93317Y-21889D01*
X93317Y-21889D02*
X93130Y-21889D01*
X93130Y-22125D02*
X93317Y-22125D01*
X93002Y-22125D02*
X92825Y-22125D01*
X92825Y-22125D02*
X92825Y-21889D01*
X93012Y-21889D02*
X92825Y-21889D01*
X96526Y-19723D02*
X96526Y-19959D01*
X96526Y-19959D02*
X96713Y-19959D01*
X96713Y-19723D02*
X96526Y-19723D01*
X96841Y-19723D02*
X97018Y-19723D01*
X97018Y-19723D02*
X97018Y-19959D01*
X96831Y-19959D02*
X97018Y-19959D01*
G54D14*
X98925Y-23833D02*
X98925Y-20833D01*
X97925Y-23833D02*
X97925Y-20833D01*
X97925Y-24833D02*
X97925Y-23833D01*
X98925Y-20833D02*
X97925Y-20833D01*
X97925Y-23833D02*
X98925Y-23833D01*
X97925Y-24833D02*
X98925Y-24833D01*
X98925Y-24833D02*
X98925Y-23833D01*
G54D10*
X95541Y-23532D02*
X95955Y-23532D01*
X95955Y-23532D02*
X95955Y-22922D01*
X95955Y-22922D02*
X95541Y-22922D01*
X95541Y-23532D02*
X95541Y-22922D01*
G54D13*
X94134Y-22578D02*
X94232Y-22479D01*
X94134Y-22578D02*
X94134Y-22479D01*
X95315Y-22578D02*
X95315Y-22479D01*
X95315Y-22971D02*
X95315Y-22774D01*
X95315Y-23365D02*
X95315Y-23168D01*
X95315Y-23660D02*
X95315Y-23562D01*
X94134Y-23660D02*
X94134Y-23562D01*
X94134Y-23168D02*
X94134Y-23365D01*
X94134Y-22774D02*
X94134Y-22971D01*
X94646Y-22479D02*
G75*
G03X94724Y-22558I78J0D01*
G74*
G01*
X94724Y-22558D02*
G75*
G03X94803Y-22479I0J78D01*
G74*
G01*
X94134Y-22538D02*
X94193Y-22479D01*
X94134Y-22479D02*
X95315Y-22479D01*
X95315Y-23660D02*
X94134Y-23660D01*
G54D15*
X97183Y-20511D02*
X97211Y-20482D01*
X97240Y-20511D01*
X97211Y-20539D01*
X97183Y-20511D01*
X97240Y-20511D01*
G54D16*
X94153Y-26144D02*
X94147Y-26150D01*
X94130Y-26155D01*
X94119Y-26155D01*
X94102Y-26150D01*
X94090Y-26138D01*
X94084Y-26127D01*
X94079Y-26104D01*
X94079Y-26087D01*
X94084Y-26064D01*
X94090Y-26053D01*
X94102Y-26041D01*
X94119Y-26035D01*
X94130Y-26035D01*
X94147Y-26041D01*
X94153Y-26047D01*
X94210Y-26155D02*
X94233Y-26155D01*
X94244Y-26150D01*
X94250Y-26144D01*
X94262Y-26127D01*
X94267Y-26104D01*
X94267Y-26058D01*
X94262Y-26047D01*
X94256Y-26041D01*
X94244Y-26035D01*
X94222Y-26035D01*
X94210Y-26041D01*
X94204Y-26047D01*
X94199Y-26058D01*
X94199Y-26087D01*
X94204Y-26098D01*
X94210Y-26104D01*
X94222Y-26110D01*
X94244Y-26110D01*
X94256Y-26104D01*
X94262Y-26098D01*
X94267Y-26087D01*
X94783Y-26144D02*
X94777Y-26150D01*
X94760Y-26155D01*
X94749Y-26155D01*
X94732Y-26150D01*
X94720Y-26138D01*
X94714Y-26127D01*
X94709Y-26104D01*
X94709Y-26087D01*
X94714Y-26064D01*
X94720Y-26053D01*
X94732Y-26041D01*
X94749Y-26035D01*
X94760Y-26035D01*
X94777Y-26041D01*
X94783Y-26047D01*
X94886Y-26035D02*
X94863Y-26035D01*
X94852Y-26041D01*
X94846Y-26047D01*
X94834Y-26064D01*
X94829Y-26087D01*
X94829Y-26133D01*
X94834Y-26144D01*
X94840Y-26150D01*
X94852Y-26155D01*
X94874Y-26155D01*
X94886Y-26150D01*
X94892Y-26144D01*
X94897Y-26133D01*
X94897Y-26104D01*
X94892Y-26093D01*
X94886Y-26087D01*
X94874Y-26081D01*
X94852Y-26081D01*
X94840Y-26087D01*
X94834Y-26093D01*
X94829Y-26104D01*
X92656Y-19901D02*
X92662Y-19906D01*
X92668Y-19924D01*
X92668Y-19935D01*
X92662Y-19952D01*
X92650Y-19964D01*
X92639Y-19969D01*
X92616Y-19975D01*
X92599Y-19975D01*
X92576Y-19969D01*
X92565Y-19964D01*
X92553Y-19952D01*
X92548Y-19935D01*
X92548Y-19924D01*
X92553Y-19906D01*
X92559Y-19901D01*
X92548Y-19792D02*
X92548Y-19849D01*
X92605Y-19855D01*
X92599Y-19849D01*
X92593Y-19838D01*
X92593Y-19809D01*
X92599Y-19798D01*
X92605Y-19792D01*
X92616Y-19786D01*
X92645Y-19786D01*
X92656Y-19792D01*
X92662Y-19798D01*
X92668Y-19809D01*
X92668Y-19838D01*
X92662Y-19849D01*
X92656Y-19855D01*
X93051Y-22350D02*
X93045Y-22355D01*
X93028Y-22361D01*
X93016Y-22361D01*
X92999Y-22355D01*
X92988Y-22344D01*
X92982Y-22332D01*
X92976Y-22310D01*
X92976Y-22292D01*
X92982Y-22270D01*
X92988Y-22258D01*
X92999Y-22247D01*
X93016Y-22241D01*
X93028Y-22241D01*
X93045Y-22247D01*
X93051Y-22252D01*
X93119Y-22292D02*
X93108Y-22287D01*
X93102Y-22281D01*
X93096Y-22270D01*
X93096Y-22264D01*
X93102Y-22252D01*
X93108Y-22247D01*
X93119Y-22241D01*
X93142Y-22241D01*
X93154Y-22247D01*
X93159Y-22252D01*
X93165Y-22264D01*
X93165Y-22270D01*
X93159Y-22281D01*
X93154Y-22287D01*
X93142Y-22292D01*
X93119Y-22292D01*
X93108Y-22298D01*
X93102Y-22304D01*
X93096Y-22315D01*
X93096Y-22338D01*
X93102Y-22350D01*
X93108Y-22355D01*
X93119Y-22361D01*
X93142Y-22361D01*
X93154Y-22355D01*
X93159Y-22350D01*
X93165Y-22338D01*
X93165Y-22315D01*
X93159Y-22304D01*
X93154Y-22298D01*
X93142Y-22292D01*
X96694Y-19584D02*
X96689Y-19589D01*
X96672Y-19595D01*
X96660Y-19595D01*
X96643Y-19589D01*
X96632Y-19578D01*
X96626Y-19567D01*
X96620Y-19544D01*
X96620Y-19527D01*
X96626Y-19504D01*
X96632Y-19492D01*
X96643Y-19481D01*
X96660Y-19475D01*
X96672Y-19475D01*
X96689Y-19481D01*
X96694Y-19487D01*
X96809Y-19595D02*
X96740Y-19595D01*
X96774Y-19595D02*
X96774Y-19475D01*
X96763Y-19492D01*
X96752Y-19504D01*
X96740Y-19509D01*
X96883Y-19475D02*
X96894Y-19475D01*
X96906Y-19481D01*
X96912Y-19487D01*
X96917Y-19498D01*
X96923Y-19521D01*
X96923Y-19549D01*
X96917Y-19572D01*
X96912Y-19584D01*
X96906Y-19589D01*
X96894Y-19595D01*
X96883Y-19595D01*
X96872Y-19589D01*
X96866Y-19584D01*
X96860Y-19572D01*
X96854Y-19549D01*
X96854Y-19521D01*
X96860Y-19498D01*
X96866Y-19487D01*
X96872Y-19481D01*
X96883Y-19475D01*
X95456Y-23304D02*
X95462Y-23310D01*
X95468Y-23327D01*
X95468Y-23339D01*
X95462Y-23356D01*
X95450Y-23367D01*
X95439Y-23373D01*
X95416Y-23379D01*
X95399Y-23379D01*
X95376Y-23373D01*
X95365Y-23367D01*
X95353Y-23356D01*
X95348Y-23339D01*
X95348Y-23327D01*
X95353Y-23310D01*
X95359Y-23304D01*
X95468Y-23190D02*
X95468Y-23259D01*
X95468Y-23224D02*
X95348Y-23224D01*
X95365Y-23236D01*
X95376Y-23247D01*
X95382Y-23259D01*
X95468Y-23076D02*
X95468Y-23144D01*
X95468Y-23110D02*
X95348Y-23110D01*
X95365Y-23121D01*
X95376Y-23133D01*
X95382Y-23144D01*
M02*
