%FSLAX34Y34*%
G04 Gerber Fmt 3.4, Leading zero omitted, Abs format*
G04 (created by PCBNEW (2014-03-19 BZR 4756)-product) date Tue 19 Aug 2014 23:13:18 BST*
%MOIN*%
G01*
G70*
G90*
G04 APERTURE LIST*
%ADD10C,0.005906*%
%ADD11C,0.015000*%
%ADD12O,0.062992X0.039370*%
%ADD13R,0.062992X0.039370*%
%ADD14R,0.023600X0.047200*%
%ADD15R,0.015700X0.023600*%
%ADD16R,0.023600X0.015700*%
%ADD17R,0.133900X0.133900*%
%ADD18R,0.011800X0.015700*%
%ADD19R,0.080000X0.068000*%
%ADD20O,0.080000X0.068000*%
%ADD21R,0.015700X0.011800*%
%ADD22R,0.023622X0.015748*%
G04 APERTURE END LIST*
G54D10*
G54D11*
X97047Y-19093D02*
X98425Y-19093D01*
X97047Y-26770D02*
X98425Y-26770D01*
X97047Y-19093D02*
X91142Y-19093D01*
X99212Y-19881D02*
G75*
G03X98425Y-19093I-787J0D01*
G74*
G01*
X99212Y-25983D02*
X99212Y-19881D01*
X90354Y-20078D02*
X90354Y-19881D01*
X91142Y-19093D02*
G75*
G03X90354Y-19881I0J-787D01*
G74*
G01*
X90354Y-25983D02*
X90354Y-20078D01*
X97047Y-26770D02*
X96653Y-26770D01*
X98425Y-26770D02*
G75*
G03X99212Y-25983I0J787D01*
G74*
G01*
X91142Y-26770D02*
X96653Y-26770D01*
X90354Y-25983D02*
G75*
G03X91142Y-26770I787J0D01*
G74*
G01*
G54D12*
X91535Y-23128D03*
X91535Y-22538D03*
G54D13*
X91535Y-23719D03*
G54D12*
X91535Y-21947D03*
G54D10*
G36*
X96752Y-20156D02*
X97028Y-20156D01*
X97028Y-20550D01*
X96752Y-20550D01*
X96752Y-20156D01*
X96752Y-20156D01*
G37*
G36*
X96319Y-20156D02*
X96595Y-20156D01*
X96595Y-20550D01*
X96319Y-20550D01*
X96319Y-20156D01*
X96319Y-20156D01*
G37*
G36*
X95886Y-20156D02*
X96162Y-20156D01*
X96162Y-20550D01*
X95886Y-20550D01*
X95886Y-20156D01*
X95886Y-20156D01*
G37*
G36*
X95886Y-21416D02*
X96162Y-21416D01*
X96162Y-21810D01*
X95886Y-21810D01*
X95886Y-21416D01*
X95886Y-21416D01*
G37*
G36*
X96319Y-21416D02*
X96595Y-21416D01*
X96595Y-21810D01*
X96319Y-21810D01*
X96319Y-21416D01*
X96319Y-21416D01*
G37*
G36*
X96752Y-21416D02*
X97028Y-21416D01*
X97028Y-21810D01*
X96752Y-21810D01*
X96752Y-21416D01*
X96752Y-21416D01*
G37*
G54D14*
X93543Y-22007D03*
X94035Y-22007D03*
X94547Y-22007D03*
X95039Y-22007D03*
X95039Y-19723D03*
X94547Y-19723D03*
X94035Y-19723D03*
X93523Y-19723D03*
G54D15*
X94350Y-25707D03*
X93996Y-25707D03*
X94980Y-25707D03*
X94626Y-25707D03*
G54D16*
X92913Y-19704D03*
X92913Y-20058D03*
G54D10*
G36*
X93583Y-25383D02*
X93366Y-25383D01*
X93366Y-25009D01*
X93583Y-25009D01*
X93583Y-25383D01*
X93583Y-25383D01*
G37*
G36*
X94075Y-25383D02*
X93858Y-25383D01*
X93858Y-25009D01*
X94075Y-25009D01*
X94075Y-25383D01*
X94075Y-25383D01*
G37*
G36*
X94577Y-25383D02*
X94360Y-25383D01*
X94360Y-25009D01*
X94577Y-25009D01*
X94577Y-25383D01*
X94577Y-25383D01*
G37*
G36*
X95059Y-25383D02*
X94842Y-25383D01*
X94842Y-25009D01*
X95059Y-25009D01*
X95059Y-25383D01*
X95059Y-25383D01*
G37*
G36*
X95059Y-24595D02*
X94842Y-24595D01*
X94842Y-24221D01*
X95059Y-24221D01*
X95059Y-24595D01*
X95059Y-24595D01*
G37*
G36*
X94567Y-24595D02*
X94350Y-24595D01*
X94350Y-24221D01*
X94567Y-24221D01*
X94567Y-24595D01*
X94567Y-24595D01*
G37*
G36*
X94075Y-24595D02*
X93858Y-24595D01*
X93858Y-24221D01*
X94075Y-24221D01*
X94075Y-24595D01*
X94075Y-24595D01*
G37*
G36*
X93583Y-24595D02*
X93366Y-24595D01*
X93366Y-24221D01*
X93583Y-24221D01*
X93583Y-24595D01*
X93583Y-24595D01*
G37*
G54D17*
X91535Y-25589D03*
X91535Y-20274D03*
G54D18*
X92953Y-22007D03*
X93189Y-22007D03*
X96890Y-19841D03*
X96654Y-19841D03*
G54D19*
X98425Y-24333D03*
G54D20*
X98425Y-23333D03*
X98425Y-22333D03*
X98425Y-21333D03*
G54D21*
X95748Y-23109D03*
X95748Y-23345D03*
G54D22*
X94173Y-22676D03*
X94173Y-23070D03*
X94173Y-23463D03*
X95275Y-23463D03*
X95275Y-23070D03*
X95275Y-22676D03*
G54D10*
G36*
X94429Y-23542D02*
X94429Y-22597D01*
X95020Y-22597D01*
X95020Y-23542D01*
X94429Y-23542D01*
X94429Y-23542D01*
G37*
M02*
