G04 (created by PCBNEW-RS274X (2012-apr-16-27)-stable) date Sat 17 May 2014 12:29:47 BST*
G01*
G70*
G90*
%MOIN*%
G04 Gerber Fmt 3.4, Leading zero omitted, Abs format*
%FSLAX34Y34*%
G04 APERTURE LIST*
%ADD10C,0.006000*%
%ADD11C,0.012000*%
%ADD12C,0.006700*%
%ADD13C,0.015000*%
%ADD14C,0.005000*%
%ADD15C,0.003900*%
%ADD16C,0.003000*%
G04 APERTURE END LIST*
G54D10*
G54D11*
X20945Y-30050D02*
X20973Y-30088D01*
X20945Y-30126D01*
X20916Y-30088D01*
X20945Y-30050D01*
X20945Y-30126D01*
G54D12*
X25533Y-32048D02*
X25428Y-32048D01*
X25383Y-32213D02*
X25533Y-32213D01*
X25533Y-31898D01*
X25383Y-31898D01*
X25248Y-32003D02*
X25248Y-32213D01*
X25248Y-32033D02*
X25233Y-32018D01*
X25203Y-32003D01*
X25158Y-32003D01*
X25128Y-32018D01*
X25113Y-32048D01*
X25113Y-32213D01*
X24993Y-32003D02*
X24918Y-32213D01*
X24843Y-32003D01*
X24723Y-32183D02*
X24708Y-32198D01*
X24723Y-32213D01*
X24738Y-32198D01*
X24723Y-32183D01*
X24723Y-32213D01*
X24348Y-32198D02*
X24303Y-32213D01*
X24228Y-32213D01*
X24198Y-32198D01*
X24183Y-32183D01*
X24168Y-32153D01*
X24168Y-32123D01*
X24183Y-32093D01*
X24198Y-32078D01*
X24228Y-32063D01*
X24288Y-32048D01*
X24318Y-32033D01*
X24333Y-32018D01*
X24348Y-31988D01*
X24348Y-31958D01*
X24333Y-31928D01*
X24318Y-31913D01*
X24288Y-31898D01*
X24213Y-31898D01*
X24168Y-31913D01*
X23913Y-32198D02*
X23943Y-32213D01*
X24003Y-32213D01*
X24033Y-32198D01*
X24048Y-32168D01*
X24048Y-32048D01*
X24033Y-32018D01*
X24003Y-32003D01*
X23943Y-32003D01*
X23913Y-32018D01*
X23898Y-32048D01*
X23898Y-32078D01*
X24048Y-32108D01*
X23763Y-32003D02*
X23763Y-32213D01*
X23763Y-32033D02*
X23748Y-32018D01*
X23718Y-32003D01*
X23673Y-32003D01*
X23643Y-32018D01*
X23628Y-32048D01*
X23628Y-32213D01*
X23493Y-32198D02*
X23463Y-32213D01*
X23403Y-32213D01*
X23373Y-32198D01*
X23358Y-32168D01*
X23358Y-32153D01*
X23373Y-32123D01*
X23403Y-32108D01*
X23448Y-32108D01*
X23478Y-32093D01*
X23493Y-32063D01*
X23493Y-32048D01*
X23478Y-32018D01*
X23448Y-32003D01*
X23403Y-32003D01*
X23373Y-32018D01*
X23178Y-32213D02*
X23208Y-32198D01*
X23223Y-32183D01*
X23238Y-32153D01*
X23238Y-32063D01*
X23223Y-32033D01*
X23208Y-32018D01*
X23178Y-32003D01*
X23133Y-32003D01*
X23103Y-32018D01*
X23088Y-32033D01*
X23073Y-32063D01*
X23073Y-32153D01*
X23088Y-32183D01*
X23103Y-32198D01*
X23133Y-32213D01*
X23178Y-32213D01*
X22938Y-32213D02*
X22938Y-32003D01*
X22938Y-32063D02*
X22923Y-32033D01*
X22908Y-32018D01*
X22878Y-32003D01*
X22848Y-32003D01*
G54D13*
X25178Y-29232D02*
X23486Y-29232D01*
X23486Y-29232D02*
X23486Y-30374D01*
X23486Y-30374D02*
X25178Y-30374D01*
X25178Y-30374D02*
X25178Y-29232D01*
G54D14*
X24001Y-26807D02*
X23801Y-26507D01*
X24001Y-27507D02*
X24001Y-26482D01*
X24001Y-26482D02*
X23401Y-26482D01*
X23401Y-26482D02*
X23401Y-27507D01*
X23401Y-27507D02*
X24001Y-27507D01*
X23978Y-27763D02*
X24178Y-27763D01*
X24178Y-27763D02*
X24178Y-28063D01*
X24178Y-28063D02*
X23978Y-28063D01*
X23778Y-27763D02*
X23578Y-27763D01*
X23578Y-27763D02*
X23578Y-28063D01*
X23578Y-28063D02*
X23778Y-28063D01*
X23220Y-26438D02*
X23220Y-26638D01*
X23220Y-26638D02*
X22920Y-26638D01*
X22920Y-26638D02*
X22920Y-26438D01*
X23220Y-26238D02*
X23220Y-26038D01*
X23220Y-26038D02*
X22920Y-26038D01*
X22920Y-26038D02*
X22920Y-26238D01*
G54D15*
X25472Y-27046D02*
X25472Y-26574D01*
X25472Y-26574D02*
X24842Y-26574D01*
X24842Y-26574D02*
X24842Y-27046D01*
X24842Y-27046D02*
X25472Y-27046D01*
X23228Y-30915D02*
X22992Y-30915D01*
X22992Y-30915D02*
X22992Y-30728D01*
X23228Y-30728D02*
X23228Y-30915D01*
X23228Y-30600D02*
X23228Y-30423D01*
X23228Y-30423D02*
X22992Y-30423D01*
X22992Y-30610D02*
X22992Y-30423D01*
X23033Y-28533D02*
X23269Y-28533D01*
X23269Y-28533D02*
X23269Y-28720D01*
X23033Y-28720D02*
X23033Y-28533D01*
X23033Y-28848D02*
X23033Y-29025D01*
X23033Y-29025D02*
X23269Y-29025D01*
X23269Y-28838D02*
X23269Y-29025D01*
X25079Y-27844D02*
X24843Y-27844D01*
X24843Y-27844D02*
X24843Y-27657D01*
X25079Y-27657D02*
X25079Y-27844D01*
X25079Y-27529D02*
X25079Y-27352D01*
X25079Y-27352D02*
X24843Y-27352D01*
X24843Y-27539D02*
X24843Y-27352D01*
X25079Y-26308D02*
X24843Y-26308D01*
X24843Y-26308D02*
X24843Y-26121D01*
X25079Y-26121D02*
X25079Y-26308D01*
X25079Y-25993D02*
X25079Y-25816D01*
X25079Y-25816D02*
X24843Y-25816D01*
X24843Y-26003D02*
X24843Y-25816D01*
G54D11*
X24982Y-29408D02*
X24954Y-29436D01*
X24982Y-29465D01*
X25011Y-29436D01*
X24982Y-29408D01*
X24982Y-29465D01*
G54D16*
X23891Y-27615D02*
X23891Y-27858D01*
X23876Y-27887D01*
X23862Y-27901D01*
X23833Y-27915D01*
X23776Y-27915D01*
X23748Y-27901D01*
X23733Y-27887D01*
X23719Y-27858D01*
X23719Y-27615D01*
X23419Y-27915D02*
X23591Y-27915D01*
X23505Y-27915D02*
X23505Y-27615D01*
X23534Y-27658D01*
X23562Y-27687D01*
X23591Y-27701D01*
X23898Y-28250D02*
X23904Y-28256D01*
X23921Y-28262D01*
X23932Y-28262D01*
X23949Y-28256D01*
X23961Y-28244D01*
X23966Y-28233D01*
X23972Y-28210D01*
X23972Y-28193D01*
X23966Y-28170D01*
X23961Y-28159D01*
X23949Y-28147D01*
X23932Y-28142D01*
X23921Y-28142D01*
X23904Y-28147D01*
X23898Y-28153D01*
X23858Y-28142D02*
X23784Y-28142D01*
X23824Y-28187D01*
X23806Y-28187D01*
X23795Y-28193D01*
X23789Y-28199D01*
X23784Y-28210D01*
X23784Y-28239D01*
X23789Y-28250D01*
X23795Y-28256D01*
X23806Y-28262D01*
X23841Y-28262D01*
X23852Y-28256D01*
X23858Y-28250D01*
X22807Y-26318D02*
X22813Y-26312D01*
X22819Y-26295D01*
X22819Y-26284D01*
X22813Y-26267D01*
X22801Y-26255D01*
X22790Y-26250D01*
X22767Y-26244D01*
X22750Y-26244D01*
X22727Y-26250D01*
X22716Y-26255D01*
X22704Y-26267D01*
X22699Y-26284D01*
X22699Y-26295D01*
X22704Y-26312D01*
X22710Y-26318D01*
X22710Y-26364D02*
X22704Y-26370D01*
X22699Y-26381D01*
X22699Y-26410D01*
X22704Y-26421D01*
X22710Y-26427D01*
X22721Y-26432D01*
X22733Y-26432D01*
X22750Y-26427D01*
X22819Y-26358D01*
X22819Y-26432D01*
G54D15*
X24505Y-26630D02*
X24696Y-26630D01*
X24718Y-26641D01*
X24729Y-26653D01*
X24741Y-26675D01*
X24741Y-26720D01*
X24729Y-26743D01*
X24718Y-26754D01*
X24696Y-26765D01*
X24505Y-26765D01*
X24505Y-26855D02*
X24505Y-27001D01*
X24594Y-26922D01*
X24594Y-26956D01*
X24606Y-26978D01*
X24617Y-26990D01*
X24639Y-27001D01*
X24696Y-27001D01*
X24718Y-26990D01*
X24729Y-26978D01*
X24741Y-26956D01*
X24741Y-26888D01*
X24729Y-26866D01*
X24718Y-26855D01*
G54D16*
X23447Y-30649D02*
X23453Y-30643D01*
X23459Y-30626D01*
X23459Y-30615D01*
X23453Y-30598D01*
X23441Y-30586D01*
X23430Y-30581D01*
X23407Y-30575D01*
X23390Y-30575D01*
X23367Y-30581D01*
X23356Y-30586D01*
X23344Y-30598D01*
X23339Y-30615D01*
X23339Y-30626D01*
X23344Y-30643D01*
X23350Y-30649D01*
X23459Y-30763D02*
X23459Y-30695D01*
X23459Y-30729D02*
X23339Y-30729D01*
X23356Y-30718D01*
X23367Y-30706D01*
X23373Y-30695D01*
X22888Y-28759D02*
X22894Y-28753D01*
X22900Y-28736D01*
X22900Y-28725D01*
X22894Y-28708D01*
X22882Y-28696D01*
X22871Y-28691D01*
X22848Y-28685D01*
X22831Y-28685D01*
X22808Y-28691D01*
X22797Y-28696D01*
X22785Y-28708D01*
X22780Y-28725D01*
X22780Y-28736D01*
X22785Y-28753D01*
X22791Y-28759D01*
X22820Y-28862D02*
X22900Y-28862D01*
X22774Y-28833D02*
X22860Y-28805D01*
X22860Y-28879D01*
X25298Y-27578D02*
X25304Y-27572D01*
X25310Y-27555D01*
X25310Y-27544D01*
X25304Y-27527D01*
X25292Y-27515D01*
X25281Y-27510D01*
X25258Y-27504D01*
X25241Y-27504D01*
X25218Y-27510D01*
X25207Y-27515D01*
X25195Y-27527D01*
X25190Y-27544D01*
X25190Y-27555D01*
X25195Y-27572D01*
X25201Y-27578D01*
X25190Y-27618D02*
X25190Y-27698D01*
X25310Y-27647D01*
X25310Y-26042D02*
X25252Y-26002D01*
X25310Y-25974D02*
X25190Y-25974D01*
X25190Y-26019D01*
X25195Y-26031D01*
X25201Y-26036D01*
X25212Y-26042D01*
X25230Y-26042D01*
X25241Y-26036D01*
X25247Y-26031D01*
X25252Y-26019D01*
X25252Y-25974D01*
X25310Y-26156D02*
X25310Y-26088D01*
X25310Y-26122D02*
X25190Y-26122D01*
X25207Y-26111D01*
X25218Y-26099D01*
X25224Y-26088D01*
M02*
