%FSLAX34Y34*%
G04 Gerber Fmt 3.4, Leading zero omitted, Abs format*
G04 (created by PCBNEW (2014-03-19 BZR 4756)-product) date Mon 07 Jul 2014 23:49:35 BST*
%MOIN*%
G01*
G70*
G90*
G04 APERTURE LIST*
%ADD10C,0.005906*%
%ADD11C,0.015000*%
%ADD12C,0.007874*%
%ADD13C,0.006700*%
%ADD14C,0.003900*%
%ADD15C,0.005000*%
%ADD16C,0.003000*%
G04 APERTURE END LIST*
G54D10*
G54D11*
X84449Y-18896D02*
X78543Y-18896D01*
X85236Y-19684D02*
G75*
G03X84449Y-18896I-787J0D01*
G74*
G01*
X85236Y-25786D02*
X85236Y-19684D01*
X77756Y-19881D02*
X77756Y-19684D01*
X78543Y-18896D02*
G75*
G03X77756Y-19684I0J-787D01*
G74*
G01*
X77756Y-25786D02*
X77756Y-19881D01*
X84449Y-26574D02*
X84055Y-26574D01*
X84449Y-26574D02*
G75*
G03X85236Y-25786I0J787D01*
G74*
G01*
X78543Y-26574D02*
X84055Y-26574D01*
X77756Y-25786D02*
G75*
G03X78543Y-26574I787J0D01*
G74*
G01*
G54D12*
X81505Y-19420D02*
X81430Y-19629D01*
X81355Y-19420D01*
X81175Y-19315D02*
X81145Y-19315D01*
X81115Y-19330D01*
X81100Y-19345D01*
X81085Y-19375D01*
X81070Y-19435D01*
X81070Y-19509D01*
X81085Y-19569D01*
X81100Y-19599D01*
X81115Y-19614D01*
X81145Y-19629D01*
X81175Y-19629D01*
X81205Y-19614D01*
X81220Y-19599D01*
X81235Y-19569D01*
X81250Y-19509D01*
X81250Y-19435D01*
X81235Y-19375D01*
X81220Y-19345D01*
X81205Y-19330D01*
X81175Y-19315D01*
X80935Y-19599D02*
X80920Y-19614D01*
X80935Y-19629D01*
X80950Y-19614D01*
X80935Y-19599D01*
X80935Y-19629D01*
X80725Y-19315D02*
X80695Y-19315D01*
X80665Y-19330D01*
X80650Y-19345D01*
X80635Y-19375D01*
X80620Y-19435D01*
X80620Y-19509D01*
X80635Y-19569D01*
X80650Y-19599D01*
X80665Y-19614D01*
X80695Y-19629D01*
X80725Y-19629D01*
X80755Y-19614D01*
X80770Y-19599D01*
X80785Y-19569D01*
X80800Y-19509D01*
X80800Y-19435D01*
X80785Y-19375D01*
X80770Y-19345D01*
X80755Y-19330D01*
X80725Y-19315D01*
X80515Y-19315D02*
X80320Y-19315D01*
X80425Y-19435D01*
X80380Y-19435D01*
X80350Y-19450D01*
X80335Y-19464D01*
X80320Y-19494D01*
X80320Y-19569D01*
X80335Y-19599D01*
X80350Y-19614D01*
X80380Y-19629D01*
X80470Y-19629D01*
X80500Y-19614D01*
X80515Y-19599D01*
G54D13*
X83013Y-26000D02*
X82908Y-26000D01*
X82863Y-26165D02*
X83013Y-26165D01*
X83013Y-25850D01*
X82863Y-25850D01*
X82728Y-25955D02*
X82728Y-26165D01*
X82728Y-25985D02*
X82713Y-25970D01*
X82683Y-25955D01*
X82638Y-25955D01*
X82608Y-25970D01*
X82593Y-26000D01*
X82593Y-26165D01*
X82473Y-25955D02*
X82398Y-26165D01*
X82323Y-25955D01*
X82203Y-26135D02*
X82188Y-26150D01*
X82203Y-26165D01*
X82218Y-26150D01*
X82203Y-26135D01*
X82203Y-26165D01*
X81828Y-26150D02*
X81783Y-26165D01*
X81708Y-26165D01*
X81678Y-26150D01*
X81663Y-26135D01*
X81648Y-26105D01*
X81648Y-26075D01*
X81663Y-26045D01*
X81678Y-26030D01*
X81708Y-26015D01*
X81768Y-26000D01*
X81798Y-25985D01*
X81813Y-25970D01*
X81828Y-25940D01*
X81828Y-25910D01*
X81813Y-25880D01*
X81798Y-25865D01*
X81768Y-25850D01*
X81693Y-25850D01*
X81648Y-25865D01*
X81393Y-26150D02*
X81423Y-26165D01*
X81483Y-26165D01*
X81513Y-26150D01*
X81528Y-26120D01*
X81528Y-26000D01*
X81513Y-25970D01*
X81483Y-25955D01*
X81423Y-25955D01*
X81393Y-25970D01*
X81378Y-26000D01*
X81378Y-26030D01*
X81528Y-26060D01*
X81243Y-25955D02*
X81243Y-26165D01*
X81243Y-25985D02*
X81228Y-25970D01*
X81198Y-25955D01*
X81153Y-25955D01*
X81123Y-25970D01*
X81108Y-26000D01*
X81108Y-26165D01*
X80973Y-26150D02*
X80943Y-26165D01*
X80883Y-26165D01*
X80853Y-26150D01*
X80838Y-26120D01*
X80838Y-26105D01*
X80853Y-26075D01*
X80883Y-26060D01*
X80928Y-26060D01*
X80958Y-26045D01*
X80973Y-26015D01*
X80973Y-26000D01*
X80958Y-25970D01*
X80928Y-25955D01*
X80883Y-25955D01*
X80853Y-25970D01*
X80658Y-26165D02*
X80688Y-26150D01*
X80703Y-26135D01*
X80718Y-26105D01*
X80718Y-26015D01*
X80703Y-25985D01*
X80688Y-25970D01*
X80658Y-25955D01*
X80613Y-25955D01*
X80583Y-25970D01*
X80568Y-25985D01*
X80553Y-26015D01*
X80553Y-26105D01*
X80568Y-26135D01*
X80583Y-26150D01*
X80613Y-26165D01*
X80658Y-26165D01*
X80418Y-26165D02*
X80418Y-25955D01*
X80418Y-26015D02*
X80403Y-25985D01*
X80388Y-25970D01*
X80358Y-25955D01*
X80328Y-25955D01*
G54D14*
X82362Y-24290D02*
G75*
G02X81968Y-23896I0J393D01*
G74*
G01*
X82362Y-24881D02*
X80984Y-24881D01*
X80984Y-24881D02*
X80984Y-23896D01*
X80984Y-23896D02*
X82362Y-23896D01*
X82362Y-23896D02*
X82362Y-24881D01*
G54D15*
X81481Y-20744D02*
X81281Y-20444D01*
X81481Y-21444D02*
X81481Y-20419D01*
X81481Y-20419D02*
X80881Y-20419D01*
X80881Y-20419D02*
X80881Y-21444D01*
X80881Y-21444D02*
X81481Y-21444D01*
X81458Y-21700D02*
X81658Y-21700D01*
X81658Y-21700D02*
X81658Y-22000D01*
X81658Y-22000D02*
X81458Y-22000D01*
X81258Y-21700D02*
X81058Y-21700D01*
X81058Y-21700D02*
X81058Y-22000D01*
X81058Y-22000D02*
X81258Y-22000D01*
X80700Y-20375D02*
X80700Y-20575D01*
X80700Y-20575D02*
X80400Y-20575D01*
X80400Y-20575D02*
X80400Y-20375D01*
X80700Y-20175D02*
X80700Y-19975D01*
X80700Y-19975D02*
X80400Y-19975D01*
X80400Y-19975D02*
X80400Y-20175D01*
G54D14*
X82952Y-20983D02*
X82952Y-20511D01*
X82952Y-20511D02*
X82322Y-20511D01*
X82322Y-20511D02*
X82322Y-20983D01*
X82322Y-20983D02*
X82952Y-20983D01*
X81033Y-25160D02*
X81033Y-25396D01*
X81033Y-25396D02*
X80846Y-25396D01*
X80846Y-25160D02*
X81033Y-25160D01*
X80718Y-25160D02*
X80541Y-25160D01*
X80541Y-25160D02*
X80541Y-25396D01*
X80728Y-25396D02*
X80541Y-25396D01*
X80118Y-23650D02*
X80354Y-23650D01*
X80354Y-23650D02*
X80354Y-23837D01*
X80118Y-23837D02*
X80118Y-23650D01*
X80118Y-23965D02*
X80118Y-24142D01*
X80118Y-24142D02*
X80354Y-24142D01*
X80354Y-23955D02*
X80354Y-24142D01*
X82559Y-21781D02*
X82323Y-21781D01*
X82323Y-21781D02*
X82323Y-21594D01*
X82559Y-21594D02*
X82559Y-21781D01*
X82559Y-21466D02*
X82559Y-21289D01*
X82559Y-21289D02*
X82323Y-21289D01*
X82323Y-21476D02*
X82323Y-21289D01*
X82559Y-20245D02*
X82323Y-20245D01*
X82323Y-20245D02*
X82323Y-20058D01*
X82559Y-20058D02*
X82559Y-20245D01*
X82559Y-19930D02*
X82559Y-19753D01*
X82559Y-19753D02*
X82323Y-19753D01*
X82323Y-19940D02*
X82323Y-19753D01*
G54D16*
X81371Y-21566D02*
X81371Y-21809D01*
X81356Y-21838D01*
X81342Y-21852D01*
X81313Y-21866D01*
X81256Y-21866D01*
X81228Y-21852D01*
X81213Y-21838D01*
X81199Y-21809D01*
X81199Y-21566D01*
X80899Y-21866D02*
X81071Y-21866D01*
X80985Y-21866D02*
X80985Y-21566D01*
X81013Y-21609D01*
X81042Y-21638D01*
X81071Y-21652D01*
X81378Y-22192D02*
X81383Y-22198D01*
X81401Y-22204D01*
X81412Y-22204D01*
X81429Y-22198D01*
X81441Y-22187D01*
X81446Y-22175D01*
X81452Y-22152D01*
X81452Y-22135D01*
X81446Y-22112D01*
X81441Y-22101D01*
X81429Y-22090D01*
X81412Y-22084D01*
X81401Y-22084D01*
X81383Y-22090D01*
X81378Y-22095D01*
X81338Y-22084D02*
X81263Y-22084D01*
X81303Y-22130D01*
X81286Y-22130D01*
X81275Y-22135D01*
X81269Y-22141D01*
X81263Y-22152D01*
X81263Y-22181D01*
X81269Y-22192D01*
X81275Y-22198D01*
X81286Y-22204D01*
X81321Y-22204D01*
X81332Y-22198D01*
X81338Y-22192D01*
X80293Y-20255D02*
X80298Y-20249D01*
X80304Y-20232D01*
X80304Y-20220D01*
X80298Y-20203D01*
X80287Y-20192D01*
X80276Y-20186D01*
X80253Y-20180D01*
X80236Y-20180D01*
X80213Y-20186D01*
X80201Y-20192D01*
X80190Y-20203D01*
X80184Y-20220D01*
X80184Y-20232D01*
X80190Y-20249D01*
X80196Y-20255D01*
X80196Y-20300D02*
X80190Y-20306D01*
X80184Y-20317D01*
X80184Y-20346D01*
X80190Y-20357D01*
X80196Y-20363D01*
X80207Y-20369D01*
X80218Y-20369D01*
X80236Y-20363D01*
X80304Y-20295D01*
X80304Y-20369D01*
G54D14*
X81996Y-20567D02*
X82187Y-20567D01*
X82209Y-20578D01*
X82220Y-20589D01*
X82232Y-20612D01*
X82232Y-20657D01*
X82220Y-20679D01*
X82209Y-20690D01*
X82187Y-20702D01*
X81996Y-20702D01*
X81996Y-20791D02*
X81996Y-20938D01*
X82086Y-20859D01*
X82086Y-20893D01*
X82097Y-20915D01*
X82108Y-20926D01*
X82131Y-20938D01*
X82187Y-20938D01*
X82209Y-20926D01*
X82220Y-20915D01*
X82232Y-20893D01*
X82232Y-20825D01*
X82220Y-20803D01*
X82209Y-20791D01*
G54D16*
X80807Y-25021D02*
X80813Y-25027D01*
X80830Y-25033D01*
X80842Y-25033D01*
X80859Y-25027D01*
X80870Y-25015D01*
X80876Y-25004D01*
X80882Y-24981D01*
X80882Y-24964D01*
X80876Y-24941D01*
X80870Y-24930D01*
X80859Y-24918D01*
X80842Y-24913D01*
X80830Y-24913D01*
X80813Y-24918D01*
X80807Y-24924D01*
X80693Y-25033D02*
X80762Y-25033D01*
X80727Y-25033D02*
X80727Y-24913D01*
X80739Y-24930D01*
X80750Y-24941D01*
X80762Y-24947D01*
X79979Y-23876D02*
X79985Y-23871D01*
X79990Y-23854D01*
X79990Y-23842D01*
X79985Y-23825D01*
X79973Y-23814D01*
X79962Y-23808D01*
X79939Y-23802D01*
X79922Y-23802D01*
X79899Y-23808D01*
X79888Y-23814D01*
X79876Y-23825D01*
X79870Y-23842D01*
X79870Y-23854D01*
X79876Y-23871D01*
X79882Y-23876D01*
X79910Y-23979D02*
X79990Y-23979D01*
X79865Y-23951D02*
X79950Y-23922D01*
X79950Y-23996D01*
X82784Y-21515D02*
X82789Y-21509D01*
X82795Y-21492D01*
X82795Y-21480D01*
X82789Y-21463D01*
X82778Y-21452D01*
X82767Y-21446D01*
X82744Y-21440D01*
X82727Y-21440D01*
X82704Y-21446D01*
X82692Y-21452D01*
X82681Y-21463D01*
X82675Y-21480D01*
X82675Y-21492D01*
X82681Y-21509D01*
X82687Y-21515D01*
X82675Y-21555D02*
X82675Y-21635D01*
X82795Y-21583D01*
X82795Y-19979D02*
X82738Y-19939D01*
X82795Y-19910D02*
X82675Y-19910D01*
X82675Y-19956D01*
X82681Y-19967D01*
X82687Y-19973D01*
X82698Y-19979D01*
X82715Y-19979D01*
X82727Y-19973D01*
X82732Y-19967D01*
X82738Y-19956D01*
X82738Y-19910D01*
X82795Y-20093D02*
X82795Y-20024D01*
X82795Y-20059D02*
X82675Y-20059D01*
X82692Y-20047D01*
X82704Y-20036D01*
X82709Y-20024D01*
M02*
