%FSLAX34Y34*%
G04 Gerber Fmt 3.4, Leading zero omitted, Abs format*
G04 (created by PCBNEW (2014-03-19 BZR 4756)-product) date Sun 08 Jun 2014 00:25:28 BST*
%MOIN*%
G01*
G70*
G90*
G04 APERTURE LIST*
%ADD10C,0.005906*%
%ADD11C,0.015000*%
%ADD12C,0.006700*%
%ADD13O,0.082992X0.059370*%
%ADD14R,0.082992X0.059370*%
%ADD15R,0.059400X0.047600*%
%ADD16R,0.035700X0.043600*%
%ADD17R,0.043600X0.035700*%
%ADD18R,0.153900X0.153900*%
%ADD19R,0.033800X0.051500*%
%ADD20R,0.031800X0.035700*%
%ADD21R,0.035700X0.031800*%
%ADD22R,0.100000X0.088000*%
%ADD23O,0.100000X0.088000*%
G04 APERTURE END LIST*
G54D10*
G54D11*
X60630Y-25550D02*
X54527Y-25550D01*
X60630Y-25550D02*
G75*
G03X61417Y-24763I0J787D01*
G74*
G01*
X61417Y-18660D02*
X61417Y-24763D01*
X53740Y-24763D02*
X53740Y-18660D01*
X53740Y-24763D02*
G75*
G03X54527Y-25550I787J0D01*
G74*
G01*
X54527Y-17873D02*
X60630Y-17873D01*
X61417Y-18660D02*
G75*
G03X60630Y-17873I-787J0D01*
G74*
G01*
X54527Y-17873D02*
G75*
G03X53740Y-18660I0J-787D01*
G74*
G01*
G54D12*
X61166Y-19033D02*
X61166Y-18853D01*
X61166Y-18943D02*
X60851Y-18943D01*
X60896Y-18913D01*
X60926Y-18883D01*
X60941Y-18853D01*
X60851Y-19228D02*
X60851Y-19258D01*
X60866Y-19288D01*
X60881Y-19303D01*
X60911Y-19318D01*
X60971Y-19333D01*
X61046Y-19333D01*
X61106Y-19318D01*
X61136Y-19303D01*
X61151Y-19288D01*
X61166Y-19258D01*
X61166Y-19228D01*
X61151Y-19198D01*
X61136Y-19183D01*
X61106Y-19168D01*
X61046Y-19153D01*
X60971Y-19153D01*
X60911Y-19168D01*
X60881Y-19183D01*
X60866Y-19198D01*
X60851Y-19228D01*
X60956Y-19423D02*
X60956Y-19543D01*
X60851Y-19468D02*
X61121Y-19468D01*
X61151Y-19483D01*
X61166Y-19513D01*
X61166Y-19543D01*
X61166Y-19693D02*
X61151Y-19663D01*
X61136Y-19648D01*
X61106Y-19633D01*
X61016Y-19633D01*
X60986Y-19648D01*
X60971Y-19663D01*
X60956Y-19693D01*
X60956Y-19738D01*
X60971Y-19768D01*
X60986Y-19783D01*
X61016Y-19798D01*
X61106Y-19798D01*
X61136Y-19783D01*
X61151Y-19768D01*
X61166Y-19738D01*
X61166Y-19693D01*
X60851Y-19903D02*
X60851Y-20113D01*
X61166Y-19978D01*
X61136Y-20233D02*
X61151Y-20248D01*
X61166Y-20233D01*
X61151Y-20218D01*
X61136Y-20233D01*
X61166Y-20233D01*
X61151Y-20518D02*
X61166Y-20488D01*
X61166Y-20428D01*
X61151Y-20398D01*
X61136Y-20383D01*
X61106Y-20368D01*
X61016Y-20368D01*
X60986Y-20383D01*
X60971Y-20398D01*
X60956Y-20428D01*
X60956Y-20488D01*
X60971Y-20518D01*
X61166Y-20698D02*
X61151Y-20668D01*
X61136Y-20653D01*
X61106Y-20638D01*
X61016Y-20638D01*
X60986Y-20653D01*
X60971Y-20668D01*
X60956Y-20698D01*
X60956Y-20743D01*
X60971Y-20773D01*
X60986Y-20788D01*
X61016Y-20803D01*
X61106Y-20803D01*
X61136Y-20788D01*
X61151Y-20773D01*
X61166Y-20743D01*
X61166Y-20698D01*
X61166Y-20938D02*
X60956Y-20938D01*
X60986Y-20938D02*
X60971Y-20953D01*
X60956Y-20983D01*
X60956Y-21028D01*
X60971Y-21058D01*
X61001Y-21073D01*
X61166Y-21073D01*
X61001Y-21073D02*
X60971Y-21088D01*
X60956Y-21118D01*
X60956Y-21163D01*
X60971Y-21193D01*
X61001Y-21208D01*
X61166Y-21208D01*
G54D13*
X54921Y-21908D03*
X54921Y-21318D03*
G54D14*
X54921Y-22499D03*
G54D13*
X54921Y-20727D03*
G54D10*
G36*
X58909Y-22861D02*
X58909Y-23140D01*
X58492Y-23140D01*
X58492Y-22861D01*
X58909Y-22861D01*
X58909Y-22861D01*
G37*
G36*
X58909Y-23117D02*
X58909Y-23396D01*
X58492Y-23396D01*
X58492Y-23117D01*
X58909Y-23117D01*
X58909Y-23117D01*
G37*
G36*
X58909Y-23373D02*
X58909Y-23652D01*
X58492Y-23652D01*
X58492Y-23373D01*
X58909Y-23373D01*
X58909Y-23373D01*
G37*
G36*
X58909Y-23629D02*
X58909Y-23908D01*
X58492Y-23908D01*
X58492Y-23629D01*
X58909Y-23629D01*
X58909Y-23629D01*
G37*
G36*
X56862Y-23629D02*
X56862Y-23908D01*
X56445Y-23908D01*
X56445Y-23629D01*
X56862Y-23629D01*
X56862Y-23629D01*
G37*
G36*
X56862Y-23373D02*
X56862Y-23652D01*
X56445Y-23652D01*
X56445Y-23373D01*
X56862Y-23373D01*
X56862Y-23373D01*
G37*
G36*
X56862Y-23117D02*
X56862Y-23396D01*
X56445Y-23396D01*
X56445Y-23117D01*
X56862Y-23117D01*
X56862Y-23117D01*
G37*
G36*
X56862Y-22861D02*
X56862Y-23140D01*
X56445Y-23140D01*
X56445Y-22861D01*
X56862Y-22861D01*
X56862Y-22861D01*
G37*
G54D15*
X56665Y-19920D03*
X57665Y-20295D03*
X57665Y-19545D03*
G54D16*
X57519Y-20826D03*
X57165Y-20826D03*
G54D17*
X56534Y-19428D03*
X56534Y-19074D03*
G54D18*
X54921Y-24369D03*
X54921Y-19054D03*
G54D10*
G36*
X58790Y-20196D02*
X58452Y-20196D01*
X58452Y-19681D01*
X58790Y-19681D01*
X58790Y-20196D01*
X58790Y-20196D01*
G37*
G36*
X58790Y-19764D02*
X58452Y-19764D01*
X58452Y-19249D01*
X58790Y-19249D01*
X58790Y-19764D01*
X58790Y-19764D01*
G37*
G36*
X58987Y-20196D02*
X58649Y-20196D01*
X58649Y-19681D01*
X58987Y-19681D01*
X58987Y-20196D01*
X58987Y-20196D01*
G37*
G54D19*
X58818Y-19507D03*
X58424Y-19939D03*
X58424Y-19507D03*
G54D20*
X56654Y-24255D03*
X56890Y-24255D03*
G54D21*
X56615Y-21810D03*
X56615Y-21574D03*
X58425Y-20393D03*
X58425Y-20629D03*
X58425Y-18857D03*
X58425Y-19093D03*
G54D22*
X60039Y-24688D03*
G54D23*
X60039Y-23688D03*
X60039Y-22688D03*
X60039Y-21688D03*
M02*
