G04 (created by PCBNEW-RS274X (2012-apr-16-27)-stable) date Sat 17 May 2014 12:29:47 BST*
G01*
G70*
G90*
%MOIN*%
G04 Gerber Fmt 3.4, Leading zero omitted, Abs format*
%FSLAX34Y34*%
G04 APERTURE LIST*
%ADD10C,0.006000*%
%ADD11C,0.006700*%
%ADD12R,0.039400X0.027600*%
%ADD13R,0.015700X0.023600*%
%ADD14R,0.023600X0.015700*%
%ADD15O,0.039400X0.027600*%
%ADD16R,0.133900X0.133900*%
%ADD17R,0.013800X0.031500*%
%ADD18R,0.015700X0.011800*%
%ADD19C,0.035000*%
%ADD20C,0.006800*%
%ADD21C,0.010000*%
G04 APERTURE END LIST*
G54D10*
G54D11*
X27450Y-27813D02*
X27450Y-27633D01*
X27450Y-27723D02*
X27135Y-27723D01*
X27180Y-27693D01*
X27210Y-27663D01*
X27225Y-27633D01*
X27135Y-28008D02*
X27135Y-28038D01*
X27150Y-28068D01*
X27165Y-28083D01*
X27195Y-28098D01*
X27255Y-28113D01*
X27330Y-28113D01*
X27390Y-28098D01*
X27420Y-28083D01*
X27435Y-28068D01*
X27450Y-28038D01*
X27450Y-28008D01*
X27435Y-27978D01*
X27420Y-27963D01*
X27390Y-27948D01*
X27330Y-27933D01*
X27255Y-27933D01*
X27195Y-27948D01*
X27165Y-27963D01*
X27150Y-27978D01*
X27135Y-28008D01*
X27240Y-28203D02*
X27240Y-28323D01*
X27135Y-28248D02*
X27405Y-28248D01*
X27435Y-28263D01*
X27450Y-28293D01*
X27450Y-28323D01*
X27450Y-28473D02*
X27435Y-28443D01*
X27420Y-28428D01*
X27390Y-28413D01*
X27300Y-28413D01*
X27270Y-28428D01*
X27255Y-28443D01*
X27240Y-28473D01*
X27240Y-28518D01*
X27255Y-28548D01*
X27270Y-28563D01*
X27300Y-28578D01*
X27390Y-28578D01*
X27420Y-28563D01*
X27435Y-28548D01*
X27450Y-28518D01*
X27450Y-28473D01*
X27135Y-28683D02*
X27135Y-28893D01*
X27450Y-28758D01*
X27420Y-29013D02*
X27435Y-29028D01*
X27450Y-29013D01*
X27435Y-28998D01*
X27420Y-29013D01*
X27450Y-29013D01*
X27435Y-29298D02*
X27450Y-29268D01*
X27450Y-29208D01*
X27435Y-29178D01*
X27420Y-29163D01*
X27390Y-29148D01*
X27300Y-29148D01*
X27270Y-29163D01*
X27255Y-29178D01*
X27240Y-29208D01*
X27240Y-29268D01*
X27255Y-29298D01*
X27450Y-29478D02*
X27435Y-29448D01*
X27420Y-29433D01*
X27390Y-29418D01*
X27300Y-29418D01*
X27270Y-29433D01*
X27255Y-29448D01*
X27240Y-29478D01*
X27240Y-29523D01*
X27255Y-29553D01*
X27270Y-29568D01*
X27300Y-29583D01*
X27390Y-29583D01*
X27420Y-29568D01*
X27435Y-29553D01*
X27450Y-29523D01*
X27450Y-29478D01*
X27450Y-29718D02*
X27240Y-29718D01*
X27270Y-29718D02*
X27255Y-29733D01*
X27240Y-29763D01*
X27240Y-29808D01*
X27255Y-29838D01*
X27285Y-29853D01*
X27450Y-29853D01*
X27285Y-29853D02*
X27255Y-29868D01*
X27240Y-29898D01*
X27240Y-29943D01*
X27255Y-29973D01*
X27285Y-29988D01*
X27450Y-29988D01*
G54D10*
G36*
X25660Y-29380D02*
X25660Y-29458D01*
X25444Y-29458D01*
X25444Y-29380D01*
X25660Y-29380D01*
X25660Y-29380D01*
G37*
G36*
X25660Y-29636D02*
X25660Y-29714D01*
X25444Y-29714D01*
X25444Y-29636D01*
X25660Y-29636D01*
X25660Y-29636D01*
G37*
G36*
X25660Y-29892D02*
X25660Y-29970D01*
X25444Y-29970D01*
X25444Y-29892D01*
X25660Y-29892D01*
X25660Y-29892D01*
G37*
G36*
X25660Y-30148D02*
X25660Y-30226D01*
X25444Y-30226D01*
X25444Y-30148D01*
X25660Y-30148D01*
X25660Y-30148D01*
G37*
G36*
X23220Y-30148D02*
X23220Y-30226D01*
X23004Y-30226D01*
X23004Y-30148D01*
X23220Y-30148D01*
X23220Y-30148D01*
G37*
G36*
X23220Y-29892D02*
X23220Y-29970D01*
X23004Y-29970D01*
X23004Y-29892D01*
X23220Y-29892D01*
X23220Y-29892D01*
G37*
G36*
X23220Y-29636D02*
X23220Y-29714D01*
X23004Y-29714D01*
X23004Y-29636D01*
X23220Y-29636D01*
X23220Y-29636D01*
G37*
G36*
X23220Y-29380D02*
X23220Y-29458D01*
X23004Y-29458D01*
X23004Y-29380D01*
X23220Y-29380D01*
X23220Y-29380D01*
G37*
G54D12*
X23201Y-27007D03*
X24201Y-27382D03*
X24201Y-26632D03*
G54D13*
X24055Y-27913D03*
X23701Y-27913D03*
G54D14*
X23070Y-26515D03*
X23070Y-26161D03*
G54D15*
X21457Y-27932D03*
G54D12*
X21457Y-29704D03*
G54D15*
X21457Y-28523D03*
X21457Y-29113D03*
X21457Y-29113D03*
X21457Y-28523D03*
G54D12*
X21457Y-29704D03*
G54D15*
X21457Y-27932D03*
G54D16*
X21457Y-31456D03*
X21457Y-26141D03*
X26772Y-26141D03*
X26772Y-31456D03*
G54D10*
G36*
X25226Y-27183D02*
X25088Y-27183D01*
X25088Y-26869D01*
X25226Y-26869D01*
X25226Y-27183D01*
X25226Y-27183D01*
G37*
G36*
X25226Y-26751D02*
X25088Y-26751D01*
X25088Y-26437D01*
X25226Y-26437D01*
X25226Y-26751D01*
X25226Y-26751D01*
G37*
G36*
X25423Y-27183D02*
X25285Y-27183D01*
X25285Y-26869D01*
X25423Y-26869D01*
X25423Y-27183D01*
X25423Y-27183D01*
G37*
G54D17*
X25354Y-26594D03*
X24960Y-27026D03*
X24960Y-26594D03*
G54D18*
X23110Y-30551D03*
X23110Y-30787D03*
X23151Y-28897D03*
X23151Y-28661D03*
X24961Y-27480D03*
X24961Y-27716D03*
X24961Y-25944D03*
X24961Y-26180D03*
G54D19*
X25931Y-29321D03*
X23977Y-29394D03*
X25441Y-27893D03*
X24540Y-26982D03*
X24522Y-27835D03*
X22764Y-30571D03*
G54D20*
X23070Y-26696D02*
X23140Y-26766D01*
X23070Y-26515D02*
X23070Y-26696D01*
X23151Y-29059D02*
X23323Y-29231D01*
X23112Y-29419D02*
X23323Y-29419D01*
X23151Y-28897D02*
X23151Y-29059D01*
X21831Y-28897D02*
X23151Y-28897D01*
X21698Y-28764D02*
X21831Y-28897D01*
X21457Y-28764D02*
X21698Y-28764D01*
X21457Y-28523D02*
X21457Y-28764D01*
X23140Y-26766D02*
X23201Y-26766D01*
X23201Y-27007D02*
X23201Y-26925D01*
X23201Y-26925D02*
X23201Y-26766D01*
X21296Y-28282D02*
X21457Y-28282D01*
X21108Y-28094D02*
X21296Y-28282D01*
X21108Y-27880D02*
X21108Y-28094D01*
X22063Y-26925D02*
X21108Y-27880D01*
X23201Y-26925D02*
X22063Y-26925D01*
X21457Y-28523D02*
X21457Y-28282D01*
X23323Y-29231D02*
X23323Y-29419D01*
X25552Y-29675D02*
X25763Y-29675D01*
X25157Y-27026D02*
X25157Y-28717D01*
X25157Y-28717D02*
X25763Y-29323D01*
X25929Y-29323D02*
X25763Y-29323D01*
X25931Y-29321D02*
X25929Y-29323D01*
X25763Y-29323D02*
X25763Y-29675D01*
X22462Y-30950D02*
X25096Y-30950D01*
X21457Y-29945D02*
X22462Y-30950D01*
X21457Y-29704D02*
X21457Y-29945D01*
X25552Y-29931D02*
X25763Y-29931D01*
X25763Y-30283D02*
X25763Y-29931D01*
X25096Y-30950D02*
X25763Y-30283D01*
X25354Y-27806D02*
X25441Y-27893D01*
X23977Y-29394D02*
X23696Y-29675D01*
X23696Y-29675D02*
X23112Y-29675D01*
X25354Y-27026D02*
X25354Y-27806D01*
X22275Y-29931D02*
X23112Y-29931D01*
X21698Y-29354D02*
X22275Y-29931D01*
X21457Y-29354D02*
X21698Y-29354D01*
X21457Y-29113D02*
X21457Y-29354D01*
X24961Y-27480D02*
X24961Y-27318D01*
X24961Y-25944D02*
X24779Y-25944D01*
X24960Y-27317D02*
X24961Y-27318D01*
X24960Y-27026D02*
X24960Y-27317D01*
X24960Y-27317D02*
X24566Y-27317D01*
X24566Y-27317D02*
X24501Y-27382D01*
X24201Y-27382D02*
X24501Y-27382D01*
X24055Y-27913D02*
X24163Y-27913D01*
X23112Y-30187D02*
X23258Y-30187D01*
X23110Y-30551D02*
X23110Y-30389D01*
X24779Y-25944D02*
X24779Y-26845D01*
X24677Y-26845D02*
X24540Y-26982D01*
X24779Y-26845D02*
X24677Y-26845D01*
X23743Y-30214D02*
X24752Y-29205D01*
X24752Y-29205D02*
X24752Y-28471D01*
X24752Y-28471D02*
X24194Y-27913D01*
X23285Y-30214D02*
X23743Y-30214D01*
X24779Y-26845D02*
X24960Y-27026D01*
X24752Y-29205D02*
X25126Y-29205D01*
X25126Y-29205D02*
X25340Y-29419D01*
X23285Y-30214D02*
X23110Y-30389D01*
X23258Y-30187D02*
X23285Y-30214D01*
X24201Y-27382D02*
X24201Y-27906D01*
X24201Y-27906D02*
X24194Y-27913D01*
X24194Y-27913D02*
X24163Y-27913D01*
X25552Y-29419D02*
X25340Y-29419D01*
X23701Y-27913D02*
X23701Y-27692D01*
X24201Y-26632D02*
X24201Y-26873D01*
X22764Y-30571D02*
X22928Y-30735D01*
X22928Y-30735D02*
X22928Y-30787D01*
X24201Y-26632D02*
X24201Y-26391D01*
X24201Y-26391D02*
X23300Y-26391D01*
X23300Y-26391D02*
X23070Y-26161D01*
X25157Y-26594D02*
X25354Y-26594D01*
X25552Y-30187D02*
X25340Y-30187D01*
X23110Y-30787D02*
X24740Y-30787D01*
X24740Y-30787D02*
X25340Y-30187D01*
X23095Y-30787D02*
X23110Y-30787D01*
X23095Y-30787D02*
X22928Y-30787D01*
X23151Y-28243D02*
X23189Y-28243D01*
X25354Y-26047D02*
X24919Y-25612D01*
X22840Y-27932D02*
X23151Y-28243D01*
X24919Y-25612D02*
X24893Y-25612D01*
X24893Y-25612D02*
X24201Y-26304D01*
X24201Y-26304D02*
X24201Y-26391D01*
X23701Y-27692D02*
X23701Y-27373D01*
X23701Y-27373D02*
X24201Y-26873D01*
X23189Y-28243D02*
X23519Y-27913D01*
X21457Y-27932D02*
X22840Y-27932D01*
X23151Y-28243D02*
X23151Y-28499D01*
X23701Y-27913D02*
X23519Y-27913D01*
X23151Y-28661D02*
X23151Y-28499D01*
X24522Y-27835D02*
X24660Y-27835D01*
X24660Y-27835D02*
X24779Y-27716D01*
X24961Y-27716D02*
X24779Y-27716D01*
X25354Y-26594D02*
X25354Y-26047D01*
X24960Y-26342D02*
X24960Y-26594D01*
X24961Y-26342D02*
X24960Y-26342D01*
X24961Y-26180D02*
X24961Y-26342D01*
G54D10*
G36*
X22808Y-30382D02*
X22783Y-30442D01*
X22783Y-30541D01*
X22783Y-30659D01*
X22785Y-30666D01*
X22580Y-30666D01*
X21874Y-29960D01*
X21882Y-29940D01*
X22074Y-30132D01*
X22166Y-30193D01*
X22167Y-30193D01*
X22275Y-30215D01*
X22755Y-30215D01*
X22755Y-30275D01*
X22793Y-30367D01*
X22808Y-30382D01*
X22808Y-30382D01*
G37*
G54D21*
X22808Y-30382D02*
X22783Y-30442D01*
X22783Y-30541D01*
X22783Y-30659D01*
X22785Y-30666D01*
X22580Y-30666D01*
X21874Y-29960D01*
X21882Y-29940D01*
X22074Y-30132D01*
X22166Y-30193D01*
X22167Y-30193D01*
X22275Y-30215D01*
X22755Y-30215D01*
X22755Y-30275D01*
X22793Y-30367D01*
X22808Y-30382D01*
G54D10*
G36*
X24873Y-28190D02*
X24485Y-27802D01*
X24485Y-27753D01*
X24539Y-27731D01*
X24609Y-27661D01*
X24618Y-27638D01*
X24635Y-27627D01*
X24660Y-27652D01*
X24672Y-27680D01*
X24737Y-27745D01*
X24695Y-27745D01*
X24633Y-27807D01*
X24634Y-27824D01*
X24672Y-27916D01*
X24742Y-27986D01*
X24833Y-28024D01*
X24861Y-28024D01*
X24861Y-28025D01*
X24873Y-28025D01*
X24873Y-28190D01*
X24873Y-28190D01*
G37*
G54D21*
X24873Y-28190D02*
X24485Y-27802D01*
X24485Y-27753D01*
X24539Y-27731D01*
X24609Y-27661D01*
X24618Y-27638D01*
X24635Y-27627D01*
X24660Y-27652D01*
X24672Y-27680D01*
X24737Y-27745D01*
X24695Y-27745D01*
X24633Y-27807D01*
X24634Y-27824D01*
X24672Y-27916D01*
X24742Y-27986D01*
X24833Y-28024D01*
X24861Y-28024D01*
X24861Y-28025D01*
X24873Y-28025D01*
X24873Y-28190D01*
G54D10*
G36*
X27628Y-30622D02*
X27582Y-30576D01*
X27491Y-30538D01*
X27392Y-30538D01*
X26054Y-30538D01*
X25962Y-30576D01*
X25892Y-30646D01*
X25854Y-30737D01*
X25854Y-30836D01*
X25854Y-32174D01*
X25892Y-32266D01*
X25938Y-32312D01*
X22291Y-32312D01*
X22337Y-32266D01*
X22375Y-32175D01*
X22375Y-32076D01*
X22375Y-31216D01*
X22462Y-31234D01*
X25096Y-31234D01*
X25204Y-31212D01*
X25205Y-31212D01*
X25297Y-31151D01*
X25964Y-30484D01*
X26025Y-30392D01*
X26025Y-30391D01*
X26047Y-30283D01*
X26047Y-29931D01*
X26025Y-29822D01*
X26012Y-29803D01*
X26025Y-29784D01*
X26034Y-29738D01*
X26171Y-29682D01*
X26291Y-29562D01*
X26356Y-29406D01*
X26356Y-29237D01*
X26292Y-29081D01*
X26172Y-28961D01*
X26016Y-28896D01*
X25847Y-28896D01*
X25769Y-28927D01*
X25441Y-28599D01*
X25441Y-28318D01*
X25525Y-28318D01*
X25681Y-28254D01*
X25801Y-28134D01*
X25866Y-27978D01*
X25866Y-27809D01*
X25802Y-27653D01*
X25682Y-27533D01*
X25638Y-27514D01*
X25638Y-27314D01*
X25672Y-27233D01*
X25672Y-27134D01*
X25672Y-26820D01*
X25667Y-26810D01*
X25672Y-26800D01*
X25673Y-26706D01*
X25611Y-26644D01*
X25530Y-26644D01*
X25475Y-26620D01*
X25475Y-26544D01*
X25611Y-26544D01*
X25673Y-26482D01*
X25672Y-26388D01*
X25634Y-26296D01*
X25564Y-26226D01*
X25473Y-26188D01*
X25449Y-26188D01*
X25389Y-26248D01*
X25367Y-26226D01*
X25288Y-26193D01*
X25288Y-26190D01*
X25288Y-26188D01*
X25276Y-26188D01*
X25259Y-26188D01*
X25258Y-26187D01*
X25288Y-26187D01*
X25288Y-26072D01*
X25284Y-26062D01*
X25288Y-26053D01*
X25288Y-25954D01*
X25288Y-25836D01*
X25250Y-25744D01*
X25180Y-25674D01*
X25089Y-25636D01*
X24990Y-25636D01*
X24834Y-25636D01*
X24772Y-25661D01*
X24670Y-25682D01*
X24578Y-25743D01*
X24517Y-25835D01*
X24495Y-25944D01*
X24495Y-26264D01*
X24448Y-26245D01*
X24349Y-26245D01*
X24313Y-26244D01*
X24251Y-26306D01*
X24251Y-26532D01*
X24251Y-26582D01*
X24251Y-26670D01*
X24239Y-26682D01*
X24151Y-26682D01*
X24151Y-26582D01*
X24151Y-26306D01*
X24089Y-26244D01*
X24053Y-26245D01*
X23954Y-26245D01*
X23863Y-26283D01*
X23793Y-26353D01*
X23755Y-26445D01*
X23754Y-26520D01*
X23816Y-26582D01*
X24151Y-26582D01*
X24151Y-26682D01*
X24101Y-26682D01*
X23816Y-26682D01*
X23754Y-26744D01*
X23755Y-26819D01*
X23793Y-26911D01*
X23863Y-26981D01*
X23925Y-27007D01*
X23863Y-27033D01*
X23793Y-27103D01*
X23755Y-27194D01*
X23755Y-27293D01*
X23755Y-27569D01*
X23761Y-27585D01*
X23740Y-27607D01*
X23740Y-27716D01*
X23728Y-27745D01*
X23728Y-27844D01*
X23728Y-28080D01*
X23740Y-28109D01*
X23740Y-28219D01*
X23802Y-28281D01*
X23828Y-28280D01*
X23877Y-28259D01*
X23927Y-28280D01*
X24026Y-28280D01*
X24159Y-28280D01*
X24468Y-28589D01*
X24468Y-29087D01*
X24356Y-29199D01*
X24338Y-29154D01*
X24218Y-29034D01*
X24062Y-28969D01*
X23893Y-28969D01*
X23737Y-29033D01*
X23662Y-29108D01*
X23662Y-28219D01*
X23662Y-27963D01*
X23662Y-27863D01*
X23662Y-27607D01*
X23600Y-27545D01*
X23574Y-27546D01*
X23482Y-27584D01*
X23412Y-27654D01*
X23374Y-27745D01*
X23374Y-27802D01*
X23435Y-27863D01*
X23662Y-27863D01*
X23662Y-27963D01*
X23435Y-27963D01*
X23374Y-28024D01*
X23374Y-28081D01*
X23412Y-28172D01*
X23482Y-28242D01*
X23574Y-28280D01*
X23600Y-28281D01*
X23662Y-28219D01*
X23662Y-29108D01*
X23617Y-29153D01*
X23599Y-29194D01*
X23585Y-29123D01*
X23585Y-29122D01*
X23524Y-29030D01*
X23478Y-28984D01*
X23478Y-28907D01*
X23478Y-28789D01*
X23473Y-28779D01*
X23478Y-28769D01*
X23479Y-28752D01*
X23451Y-28724D01*
X23440Y-28697D01*
X23375Y-28632D01*
X23417Y-28632D01*
X23479Y-28570D01*
X23478Y-28553D01*
X23440Y-28461D01*
X23370Y-28391D01*
X23279Y-28353D01*
X23251Y-28353D01*
X23190Y-28414D01*
X23190Y-28589D01*
X23180Y-28589D01*
X23112Y-28589D01*
X23112Y-28414D01*
X23051Y-28353D01*
X23023Y-28353D01*
X22932Y-28391D01*
X22862Y-28461D01*
X22824Y-28553D01*
X22823Y-28561D01*
X22823Y-28570D01*
X22823Y-28613D01*
X21949Y-28613D01*
X21905Y-28569D01*
X21905Y-28448D01*
X21847Y-28308D01*
X21759Y-28220D01*
X21822Y-28166D01*
X21887Y-28041D01*
X21838Y-27982D01*
X21557Y-27982D01*
X21507Y-27982D01*
X21407Y-27982D01*
X21507Y-27882D01*
X21557Y-27882D01*
X21838Y-27882D01*
X21887Y-27823D01*
X21822Y-27698D01*
X21752Y-27637D01*
X22180Y-27209D01*
X22761Y-27209D01*
X22793Y-27286D01*
X22863Y-27356D01*
X22954Y-27394D01*
X23053Y-27394D01*
X23447Y-27394D01*
X23539Y-27356D01*
X23609Y-27286D01*
X23647Y-27195D01*
X23647Y-27096D01*
X23647Y-26820D01*
X23609Y-26728D01*
X23539Y-26658D01*
X23448Y-26620D01*
X23438Y-26620D01*
X23437Y-26617D01*
X23437Y-26544D01*
X23437Y-26388D01*
X23416Y-26338D01*
X23437Y-26288D01*
X23438Y-26262D01*
X23438Y-26060D01*
X23437Y-26034D01*
X23399Y-25942D01*
X23329Y-25872D01*
X23238Y-25834D01*
X23181Y-25834D01*
X23120Y-25895D01*
X23120Y-26122D01*
X23376Y-26122D01*
X23438Y-26060D01*
X23438Y-26262D01*
X23376Y-26200D01*
X23266Y-26200D01*
X23238Y-26188D01*
X23139Y-26188D01*
X23020Y-26188D01*
X23020Y-26122D01*
X23020Y-25895D01*
X22959Y-25834D01*
X22902Y-25834D01*
X22811Y-25872D01*
X22741Y-25942D01*
X22703Y-26034D01*
X22702Y-26060D01*
X22764Y-26122D01*
X23020Y-26122D01*
X23020Y-26188D01*
X22903Y-26188D01*
X22873Y-26200D01*
X22764Y-26200D01*
X22702Y-26262D01*
X22703Y-26288D01*
X22723Y-26337D01*
X22703Y-26387D01*
X22703Y-26486D01*
X22703Y-26641D01*
X22375Y-26641D01*
X22375Y-25423D01*
X22337Y-25331D01*
X22291Y-25285D01*
X25938Y-25285D01*
X25892Y-25331D01*
X25854Y-25422D01*
X25854Y-25521D01*
X25854Y-26859D01*
X25892Y-26951D01*
X25962Y-27021D01*
X26053Y-27059D01*
X26152Y-27059D01*
X27490Y-27059D01*
X27582Y-27021D01*
X27628Y-26975D01*
X27628Y-27290D01*
X26753Y-27290D01*
X26753Y-30346D01*
X27628Y-30346D01*
X27628Y-30622D01*
X27628Y-30622D01*
G37*
G54D21*
X27628Y-30622D02*
X27582Y-30576D01*
X27491Y-30538D01*
X27392Y-30538D01*
X26054Y-30538D01*
X25962Y-30576D01*
X25892Y-30646D01*
X25854Y-30737D01*
X25854Y-30836D01*
X25854Y-32174D01*
X25892Y-32266D01*
X25938Y-32312D01*
X22291Y-32312D01*
X22337Y-32266D01*
X22375Y-32175D01*
X22375Y-32076D01*
X22375Y-31216D01*
X22462Y-31234D01*
X25096Y-31234D01*
X25204Y-31212D01*
X25205Y-31212D01*
X25297Y-31151D01*
X25964Y-30484D01*
X26025Y-30392D01*
X26025Y-30391D01*
X26047Y-30283D01*
X26047Y-29931D01*
X26025Y-29822D01*
X26012Y-29803D01*
X26025Y-29784D01*
X26034Y-29738D01*
X26171Y-29682D01*
X26291Y-29562D01*
X26356Y-29406D01*
X26356Y-29237D01*
X26292Y-29081D01*
X26172Y-28961D01*
X26016Y-28896D01*
X25847Y-28896D01*
X25769Y-28927D01*
X25441Y-28599D01*
X25441Y-28318D01*
X25525Y-28318D01*
X25681Y-28254D01*
X25801Y-28134D01*
X25866Y-27978D01*
X25866Y-27809D01*
X25802Y-27653D01*
X25682Y-27533D01*
X25638Y-27514D01*
X25638Y-27314D01*
X25672Y-27233D01*
X25672Y-27134D01*
X25672Y-26820D01*
X25667Y-26810D01*
X25672Y-26800D01*
X25673Y-26706D01*
X25611Y-26644D01*
X25530Y-26644D01*
X25475Y-26620D01*
X25475Y-26544D01*
X25611Y-26544D01*
X25673Y-26482D01*
X25672Y-26388D01*
X25634Y-26296D01*
X25564Y-26226D01*
X25473Y-26188D01*
X25449Y-26188D01*
X25389Y-26248D01*
X25367Y-26226D01*
X25288Y-26193D01*
X25288Y-26190D01*
X25288Y-26188D01*
X25276Y-26188D01*
X25259Y-26188D01*
X25258Y-26187D01*
X25288Y-26187D01*
X25288Y-26072D01*
X25284Y-26062D01*
X25288Y-26053D01*
X25288Y-25954D01*
X25288Y-25836D01*
X25250Y-25744D01*
X25180Y-25674D01*
X25089Y-25636D01*
X24990Y-25636D01*
X24834Y-25636D01*
X24772Y-25661D01*
X24670Y-25682D01*
X24578Y-25743D01*
X24517Y-25835D01*
X24495Y-25944D01*
X24495Y-26264D01*
X24448Y-26245D01*
X24349Y-26245D01*
X24313Y-26244D01*
X24251Y-26306D01*
X24251Y-26532D01*
X24251Y-26582D01*
X24251Y-26670D01*
X24239Y-26682D01*
X24151Y-26682D01*
X24151Y-26582D01*
X24151Y-26306D01*
X24089Y-26244D01*
X24053Y-26245D01*
X23954Y-26245D01*
X23863Y-26283D01*
X23793Y-26353D01*
X23755Y-26445D01*
X23754Y-26520D01*
X23816Y-26582D01*
X24151Y-26582D01*
X24151Y-26682D01*
X24101Y-26682D01*
X23816Y-26682D01*
X23754Y-26744D01*
X23755Y-26819D01*
X23793Y-26911D01*
X23863Y-26981D01*
X23925Y-27007D01*
X23863Y-27033D01*
X23793Y-27103D01*
X23755Y-27194D01*
X23755Y-27293D01*
X23755Y-27569D01*
X23761Y-27585D01*
X23740Y-27607D01*
X23740Y-27716D01*
X23728Y-27745D01*
X23728Y-27844D01*
X23728Y-28080D01*
X23740Y-28109D01*
X23740Y-28219D01*
X23802Y-28281D01*
X23828Y-28280D01*
X23877Y-28259D01*
X23927Y-28280D01*
X24026Y-28280D01*
X24159Y-28280D01*
X24468Y-28589D01*
X24468Y-29087D01*
X24356Y-29199D01*
X24338Y-29154D01*
X24218Y-29034D01*
X24062Y-28969D01*
X23893Y-28969D01*
X23737Y-29033D01*
X23662Y-29108D01*
X23662Y-28219D01*
X23662Y-27963D01*
X23662Y-27863D01*
X23662Y-27607D01*
X23600Y-27545D01*
X23574Y-27546D01*
X23482Y-27584D01*
X23412Y-27654D01*
X23374Y-27745D01*
X23374Y-27802D01*
X23435Y-27863D01*
X23662Y-27863D01*
X23662Y-27963D01*
X23435Y-27963D01*
X23374Y-28024D01*
X23374Y-28081D01*
X23412Y-28172D01*
X23482Y-28242D01*
X23574Y-28280D01*
X23600Y-28281D01*
X23662Y-28219D01*
X23662Y-29108D01*
X23617Y-29153D01*
X23599Y-29194D01*
X23585Y-29123D01*
X23585Y-29122D01*
X23524Y-29030D01*
X23478Y-28984D01*
X23478Y-28907D01*
X23478Y-28789D01*
X23473Y-28779D01*
X23478Y-28769D01*
X23479Y-28752D01*
X23451Y-28724D01*
X23440Y-28697D01*
X23375Y-28632D01*
X23417Y-28632D01*
X23479Y-28570D01*
X23478Y-28553D01*
X23440Y-28461D01*
X23370Y-28391D01*
X23279Y-28353D01*
X23251Y-28353D01*
X23190Y-28414D01*
X23190Y-28589D01*
X23180Y-28589D01*
X23112Y-28589D01*
X23112Y-28414D01*
X23051Y-28353D01*
X23023Y-28353D01*
X22932Y-28391D01*
X22862Y-28461D01*
X22824Y-28553D01*
X22823Y-28561D01*
X22823Y-28570D01*
X22823Y-28613D01*
X21949Y-28613D01*
X21905Y-28569D01*
X21905Y-28448D01*
X21847Y-28308D01*
X21759Y-28220D01*
X21822Y-28166D01*
X21887Y-28041D01*
X21838Y-27982D01*
X21557Y-27982D01*
X21507Y-27982D01*
X21407Y-27982D01*
X21507Y-27882D01*
X21557Y-27882D01*
X21838Y-27882D01*
X21887Y-27823D01*
X21822Y-27698D01*
X21752Y-27637D01*
X22180Y-27209D01*
X22761Y-27209D01*
X22793Y-27286D01*
X22863Y-27356D01*
X22954Y-27394D01*
X23053Y-27394D01*
X23447Y-27394D01*
X23539Y-27356D01*
X23609Y-27286D01*
X23647Y-27195D01*
X23647Y-27096D01*
X23647Y-26820D01*
X23609Y-26728D01*
X23539Y-26658D01*
X23448Y-26620D01*
X23438Y-26620D01*
X23437Y-26617D01*
X23437Y-26544D01*
X23437Y-26388D01*
X23416Y-26338D01*
X23437Y-26288D01*
X23438Y-26262D01*
X23438Y-26060D01*
X23437Y-26034D01*
X23399Y-25942D01*
X23329Y-25872D01*
X23238Y-25834D01*
X23181Y-25834D01*
X23120Y-25895D01*
X23120Y-26122D01*
X23376Y-26122D01*
X23438Y-26060D01*
X23438Y-26262D01*
X23376Y-26200D01*
X23266Y-26200D01*
X23238Y-26188D01*
X23139Y-26188D01*
X23020Y-26188D01*
X23020Y-26122D01*
X23020Y-25895D01*
X22959Y-25834D01*
X22902Y-25834D01*
X22811Y-25872D01*
X22741Y-25942D01*
X22703Y-26034D01*
X22702Y-26060D01*
X22764Y-26122D01*
X23020Y-26122D01*
X23020Y-26188D01*
X22903Y-26188D01*
X22873Y-26200D01*
X22764Y-26200D01*
X22702Y-26262D01*
X22703Y-26288D01*
X22723Y-26337D01*
X22703Y-26387D01*
X22703Y-26486D01*
X22703Y-26641D01*
X22375Y-26641D01*
X22375Y-25423D01*
X22337Y-25331D01*
X22291Y-25285D01*
X25938Y-25285D01*
X25892Y-25331D01*
X25854Y-25422D01*
X25854Y-25521D01*
X25854Y-26859D01*
X25892Y-26951D01*
X25962Y-27021D01*
X26053Y-27059D01*
X26152Y-27059D01*
X27490Y-27059D01*
X27582Y-27021D01*
X27628Y-26975D01*
X27628Y-27290D01*
X26753Y-27290D01*
X26753Y-30346D01*
X27628Y-30346D01*
X27628Y-30622D01*
M02*
