%FSLAX34Y34*%
G04 Gerber Fmt 3.4, Leading zero omitted, Abs format*
G04 (created by PCBNEW (2014-03-19 BZR 4756)-product) date Tue 19 Aug 2014 23:13:18 BST*
%MOIN*%
G01*
G70*
G90*
G04 APERTURE LIST*
%ADD10C,0.005906*%
%ADD11C,0.015000*%
%ADD12C,0.006700*%
%ADD13O,0.062992X0.039370*%
%ADD14R,0.062992X0.039370*%
%ADD15R,0.039400X0.027600*%
%ADD16R,0.015700X0.023600*%
%ADD17R,0.023600X0.015700*%
%ADD18R,0.133900X0.133900*%
%ADD19R,0.013800X0.031500*%
%ADD20R,0.011800X0.015700*%
%ADD21R,0.015700X0.011800*%
%ADD22R,0.080000X0.068000*%
%ADD23O,0.080000X0.068000*%
G04 APERTURE END LIST*
G54D10*
G54D11*
X97047Y-19093D02*
X98425Y-19093D01*
X97047Y-26770D02*
X98425Y-26770D01*
X97047Y-19093D02*
X91142Y-19093D01*
X99212Y-19881D02*
G75*
G03X98425Y-19093I-787J0D01*
G74*
G01*
X99212Y-25983D02*
X99212Y-19881D01*
X90354Y-20078D02*
X90354Y-19881D01*
X91142Y-19093D02*
G75*
G03X90354Y-19881I0J-787D01*
G74*
G01*
X90354Y-25983D02*
X90354Y-20078D01*
X97047Y-26770D02*
X96653Y-26770D01*
X98425Y-26770D02*
G75*
G03X99212Y-25983I0J787D01*
G74*
G01*
X91142Y-26770D02*
X96653Y-26770D01*
X90354Y-25983D02*
G75*
G03X91142Y-26770I787J0D01*
G74*
G01*
G54D12*
X90605Y-24035D02*
X90605Y-24215D01*
X90605Y-24125D02*
X90920Y-24125D01*
X90875Y-24155D01*
X90845Y-24185D01*
X90830Y-24215D01*
X90920Y-23840D02*
X90920Y-23810D01*
X90905Y-23780D01*
X90890Y-23765D01*
X90860Y-23750D01*
X90800Y-23735D01*
X90725Y-23735D01*
X90665Y-23750D01*
X90635Y-23765D01*
X90620Y-23780D01*
X90605Y-23810D01*
X90605Y-23840D01*
X90620Y-23870D01*
X90635Y-23885D01*
X90665Y-23900D01*
X90725Y-23915D01*
X90800Y-23915D01*
X90860Y-23900D01*
X90890Y-23885D01*
X90905Y-23870D01*
X90920Y-23840D01*
X90815Y-23645D02*
X90815Y-23525D01*
X90920Y-23600D02*
X90650Y-23600D01*
X90620Y-23585D01*
X90605Y-23555D01*
X90605Y-23525D01*
X90605Y-23375D02*
X90620Y-23405D01*
X90635Y-23420D01*
X90665Y-23435D01*
X90755Y-23435D01*
X90785Y-23420D01*
X90800Y-23405D01*
X90815Y-23375D01*
X90815Y-23330D01*
X90800Y-23300D01*
X90785Y-23285D01*
X90755Y-23270D01*
X90665Y-23270D01*
X90635Y-23285D01*
X90620Y-23300D01*
X90605Y-23330D01*
X90605Y-23375D01*
X90920Y-23165D02*
X90920Y-22955D01*
X90605Y-23090D01*
X90635Y-22835D02*
X90620Y-22820D01*
X90605Y-22835D01*
X90620Y-22850D01*
X90635Y-22835D01*
X90605Y-22835D01*
X90620Y-22550D02*
X90605Y-22580D01*
X90605Y-22640D01*
X90620Y-22670D01*
X90635Y-22685D01*
X90665Y-22700D01*
X90755Y-22700D01*
X90785Y-22685D01*
X90800Y-22670D01*
X90815Y-22640D01*
X90815Y-22580D01*
X90800Y-22550D01*
X90605Y-22370D02*
X90620Y-22400D01*
X90635Y-22415D01*
X90665Y-22430D01*
X90755Y-22430D01*
X90785Y-22415D01*
X90800Y-22400D01*
X90815Y-22370D01*
X90815Y-22325D01*
X90800Y-22295D01*
X90785Y-22280D01*
X90755Y-22265D01*
X90665Y-22265D01*
X90635Y-22280D01*
X90620Y-22295D01*
X90605Y-22325D01*
X90605Y-22370D01*
X90605Y-22130D02*
X90815Y-22130D01*
X90785Y-22130D02*
X90800Y-22115D01*
X90815Y-22085D01*
X90815Y-22040D01*
X90800Y-22010D01*
X90770Y-21995D01*
X90605Y-21995D01*
X90770Y-21995D02*
X90800Y-21980D01*
X90815Y-21950D01*
X90815Y-21905D01*
X90800Y-21875D01*
X90770Y-21860D01*
X90605Y-21860D01*
G54D10*
G36*
X96348Y-24772D02*
X96348Y-24890D01*
X96131Y-24890D01*
X96131Y-24772D01*
X96348Y-24772D01*
X96348Y-24772D01*
G37*
G36*
X96348Y-25028D02*
X96348Y-25146D01*
X96131Y-25146D01*
X96131Y-25028D01*
X96348Y-25028D01*
X96348Y-25028D01*
G37*
G36*
X96348Y-25284D02*
X96348Y-25402D01*
X96131Y-25402D01*
X96131Y-25284D01*
X96348Y-25284D01*
X96348Y-25284D01*
G37*
G36*
X96348Y-25540D02*
X96348Y-25658D01*
X96131Y-25658D01*
X96131Y-25540D01*
X96348Y-25540D01*
X96348Y-25540D01*
G37*
G36*
X94302Y-25540D02*
X94302Y-25658D01*
X94085Y-25658D01*
X94085Y-25540D01*
X94302Y-25540D01*
X94302Y-25540D01*
G37*
G36*
X94302Y-25284D02*
X94302Y-25402D01*
X94085Y-25402D01*
X94085Y-25284D01*
X94302Y-25284D01*
X94302Y-25284D01*
G37*
G36*
X94302Y-25028D02*
X94302Y-25146D01*
X94085Y-25146D01*
X94085Y-25028D01*
X94302Y-25028D01*
X94302Y-25028D01*
G37*
G36*
X94302Y-24772D02*
X94302Y-24890D01*
X94085Y-24890D01*
X94085Y-24772D01*
X94302Y-24772D01*
X94302Y-24772D01*
G37*
G54D13*
X91535Y-23128D03*
X91535Y-22538D03*
G54D14*
X91535Y-23719D03*
G54D13*
X91535Y-21947D03*
G54D15*
X93279Y-21140D03*
X94279Y-21515D03*
X94279Y-20765D03*
G54D16*
X94133Y-22046D03*
X93779Y-22046D03*
G54D17*
X93148Y-20648D03*
X93148Y-20294D03*
G54D18*
X91535Y-25589D03*
X91535Y-20274D03*
G54D10*
G36*
X95304Y-21317D02*
X95166Y-21317D01*
X95166Y-21002D01*
X95304Y-21002D01*
X95304Y-21317D01*
X95304Y-21317D01*
G37*
G36*
X95304Y-20885D02*
X95166Y-20885D01*
X95166Y-20570D01*
X95304Y-20570D01*
X95304Y-20885D01*
X95304Y-20885D01*
G37*
G36*
X95501Y-21317D02*
X95363Y-21317D01*
X95363Y-21002D01*
X95501Y-21002D01*
X95501Y-21317D01*
X95501Y-21317D01*
G37*
G54D19*
X95432Y-20727D03*
X95038Y-21159D03*
X95038Y-20727D03*
G54D20*
X96240Y-24467D03*
X96004Y-24467D03*
X94193Y-24467D03*
X94429Y-24467D03*
G54D21*
X95039Y-21613D03*
X95039Y-21849D03*
X95039Y-20077D03*
X95039Y-20313D03*
G54D22*
X98425Y-24333D03*
G54D23*
X98425Y-23333D03*
X98425Y-22333D03*
X98425Y-21333D03*
G54D21*
X93484Y-24940D03*
X93484Y-24704D03*
X96988Y-24979D03*
X96988Y-24743D03*
X93484Y-25334D03*
X93484Y-25570D03*
X96988Y-25373D03*
X96988Y-25609D03*
G54D17*
X93012Y-24566D03*
X93012Y-24920D03*
X97461Y-24605D03*
X97461Y-24959D03*
X93012Y-25707D03*
X93012Y-25353D03*
X97461Y-25747D03*
X97461Y-25393D03*
G54D16*
X93819Y-26003D03*
X93465Y-26003D03*
M02*
