%FSLAX34Y34*%
G04 Gerber Fmt 3.4, Leading zero omitted, Abs format*
G04 (created by PCBNEW (2014-03-19 BZR 4756)-product) date Sun 08 Jun 2014 00:25:28 BST*
%MOIN*%
G01*
G70*
G90*
G04 APERTURE LIST*
%ADD10C,0.005906*%
%ADD11C,0.015000*%
%ADD12O,0.062992X0.039370*%
%ADD13R,0.062992X0.039370*%
%ADD14R,0.023600X0.047200*%
%ADD15R,0.015700X0.023600*%
%ADD16R,0.023600X0.015700*%
%ADD17R,0.133900X0.133900*%
%ADD18R,0.015700X0.011800*%
%ADD19R,0.011800X0.015700*%
%ADD20R,0.080000X0.068000*%
%ADD21O,0.080000X0.068000*%
%ADD22C,0.035000*%
%ADD23C,0.008701*%
%ADD24C,0.006701*%
%ADD25C,0.007087*%
G04 APERTURE END LIST*
G54D10*
G54D11*
X60630Y-25550D02*
X54527Y-25550D01*
X60630Y-25550D02*
G75*
G03X61417Y-24763I0J787D01*
G74*
G01*
X61417Y-18660D02*
X61417Y-24763D01*
X53740Y-24763D02*
X53740Y-18660D01*
X53740Y-24763D02*
G75*
G03X54527Y-25550I787J0D01*
G74*
G01*
X54527Y-17873D02*
X60630Y-17873D01*
X61417Y-18660D02*
G75*
G03X60630Y-17873I-787J0D01*
G74*
G01*
X54527Y-17873D02*
G75*
G03X53740Y-18660I0J-787D01*
G74*
G01*
G54D12*
X54921Y-21908D03*
X54921Y-21318D03*
G54D13*
X54921Y-22499D03*
G54D12*
X54921Y-20727D03*
G54D10*
G36*
X60137Y-18935D02*
X60413Y-18935D01*
X60413Y-19329D01*
X60137Y-19329D01*
X60137Y-18935D01*
X60137Y-18935D01*
G37*
G36*
X59704Y-18935D02*
X59980Y-18935D01*
X59980Y-19329D01*
X59704Y-19329D01*
X59704Y-18935D01*
X59704Y-18935D01*
G37*
G36*
X59271Y-18935D02*
X59547Y-18935D01*
X59547Y-19329D01*
X59271Y-19329D01*
X59271Y-18935D01*
X59271Y-18935D01*
G37*
G36*
X59271Y-20195D02*
X59547Y-20195D01*
X59547Y-20589D01*
X59271Y-20589D01*
X59271Y-20195D01*
X59271Y-20195D01*
G37*
G36*
X59704Y-20195D02*
X59980Y-20195D01*
X59980Y-20589D01*
X59704Y-20589D01*
X59704Y-20195D01*
X59704Y-20195D01*
G37*
G36*
X60137Y-20195D02*
X60413Y-20195D01*
X60413Y-20589D01*
X60137Y-20589D01*
X60137Y-20195D01*
X60137Y-20195D01*
G37*
G54D14*
X56929Y-20786D03*
X57421Y-20786D03*
X57933Y-20786D03*
X58425Y-20786D03*
X58425Y-18502D03*
X57933Y-18502D03*
X57421Y-18502D03*
X56909Y-18502D03*
G54D15*
X57854Y-23385D03*
X57500Y-23385D03*
X58641Y-23385D03*
X58287Y-23385D03*
G54D16*
X56299Y-18483D03*
X56299Y-18837D03*
G54D10*
G36*
X57048Y-22785D02*
X56831Y-22785D01*
X56831Y-22411D01*
X57048Y-22411D01*
X57048Y-22785D01*
X57048Y-22785D01*
G37*
G36*
X57540Y-22785D02*
X57323Y-22785D01*
X57323Y-22411D01*
X57540Y-22411D01*
X57540Y-22785D01*
X57540Y-22785D01*
G37*
G36*
X58042Y-22785D02*
X57825Y-22785D01*
X57825Y-22411D01*
X58042Y-22411D01*
X58042Y-22785D01*
X58042Y-22785D01*
G37*
G36*
X58524Y-22785D02*
X58307Y-22785D01*
X58307Y-22411D01*
X58524Y-22411D01*
X58524Y-22785D01*
X58524Y-22785D01*
G37*
G36*
X58524Y-21997D02*
X58307Y-21997D01*
X58307Y-21623D01*
X58524Y-21623D01*
X58524Y-21997D01*
X58524Y-21997D01*
G37*
G36*
X58032Y-21997D02*
X57815Y-21997D01*
X57815Y-21623D01*
X58032Y-21623D01*
X58032Y-21997D01*
X58032Y-21997D01*
G37*
G36*
X57540Y-21997D02*
X57323Y-21997D01*
X57323Y-21623D01*
X57540Y-21623D01*
X57540Y-21997D01*
X57540Y-21997D01*
G37*
G36*
X57048Y-21997D02*
X56831Y-21997D01*
X56831Y-21623D01*
X57048Y-21623D01*
X57048Y-21997D01*
X57048Y-21997D01*
G37*
G54D17*
X54921Y-24369D03*
X54921Y-19054D03*
G54D18*
X56299Y-20511D03*
X56299Y-20747D03*
G54D19*
X60275Y-18620D03*
X60039Y-18620D03*
G54D20*
X60039Y-24688D03*
G54D21*
X60039Y-23688D03*
X60039Y-22688D03*
X60039Y-21688D03*
G54D22*
X59000Y-20485D03*
X59423Y-20977D03*
X58708Y-22161D03*
G54D23*
X55580Y-21540D02*
X55359Y-21318D01*
X55580Y-21917D02*
X55580Y-21540D01*
X57430Y-23767D02*
X55580Y-21917D01*
X58960Y-23767D02*
X57430Y-23767D01*
X59577Y-23150D02*
X58960Y-23767D01*
X60039Y-23150D02*
X59577Y-23150D01*
X60039Y-22688D02*
X60039Y-23150D01*
X54921Y-21318D02*
X55359Y-21318D01*
G54D24*
X57933Y-20786D02*
X57933Y-21123D01*
X56939Y-21810D02*
X56939Y-21522D01*
X57933Y-20786D02*
X57933Y-20450D01*
X57338Y-21123D02*
X57933Y-21123D01*
X56939Y-21522D02*
X57338Y-21123D01*
X59409Y-20392D02*
X59171Y-20392D01*
X59000Y-20450D02*
X59000Y-20485D01*
X57933Y-20450D02*
X59000Y-20450D01*
X59113Y-20450D02*
X59171Y-20392D01*
X59113Y-20450D02*
X59113Y-20450D01*
X59000Y-20450D02*
X59113Y-20450D01*
G54D23*
X57548Y-24688D02*
X55359Y-22499D01*
X60039Y-24688D02*
X57548Y-24688D01*
X54921Y-22499D02*
X55359Y-22499D01*
G54D24*
X58425Y-20786D02*
X58425Y-20838D01*
X60275Y-20392D02*
X60275Y-20690D01*
X59710Y-20690D02*
X59423Y-20977D01*
X60275Y-20690D02*
X59710Y-20690D01*
X57431Y-21810D02*
X57431Y-21522D01*
X58564Y-20977D02*
X58425Y-20838D01*
X59423Y-20977D02*
X58564Y-20977D01*
X57741Y-21522D02*
X57431Y-21522D01*
X58425Y-20838D02*
X57741Y-21522D01*
G54D23*
X54921Y-21908D02*
X55359Y-21908D01*
X60039Y-23688D02*
X59517Y-23688D01*
X59271Y-23933D02*
X59517Y-23688D01*
X57353Y-23933D02*
X59271Y-23933D01*
X55359Y-21939D02*
X57353Y-23933D01*
X55359Y-21908D02*
X55359Y-21939D01*
G54D24*
X60275Y-18984D02*
X60275Y-18835D01*
X58415Y-22598D02*
X58415Y-22885D01*
X58641Y-23112D02*
X58641Y-23385D01*
X58415Y-22885D02*
X58641Y-23112D01*
X60275Y-18984D02*
X60275Y-19132D01*
X56909Y-18502D02*
X56909Y-18614D01*
X56648Y-18614D02*
X56518Y-18483D01*
X56909Y-18614D02*
X56648Y-18614D01*
X56299Y-18483D02*
X56518Y-18483D01*
X58415Y-22598D02*
X58415Y-22310D01*
X60275Y-19132D02*
X60514Y-19132D01*
X56939Y-22598D02*
X56939Y-22310D01*
X57073Y-22176D02*
X56939Y-22310D01*
X58281Y-22176D02*
X57073Y-22176D01*
X58415Y-22310D02*
X58281Y-22176D01*
X60275Y-18835D02*
X60275Y-18620D01*
X60275Y-18835D02*
X60275Y-18835D01*
X57134Y-18839D02*
X56909Y-18614D01*
X58842Y-18839D02*
X57134Y-18839D01*
X59240Y-18441D02*
X58842Y-18839D01*
X60275Y-18441D02*
X59240Y-18441D01*
X60275Y-18620D02*
X60275Y-18441D01*
X59808Y-21060D02*
X58708Y-22161D01*
X60097Y-21060D02*
X59808Y-21060D01*
X60514Y-20643D02*
X60097Y-21060D01*
X60514Y-19132D02*
X60514Y-20643D01*
X58558Y-22310D02*
X58708Y-22161D01*
X58415Y-22310D02*
X58558Y-22310D01*
X54921Y-20727D02*
X55337Y-20727D01*
X56299Y-20511D02*
X56478Y-20511D01*
X60039Y-21688D02*
X60039Y-22128D01*
X55337Y-20727D02*
X56097Y-20727D01*
X56097Y-20534D02*
X56120Y-20511D01*
X56097Y-20727D02*
X56097Y-20534D01*
X56299Y-20511D02*
X56120Y-20511D01*
X56299Y-18837D02*
X56299Y-19016D01*
X57421Y-20786D02*
X57421Y-20450D01*
X56539Y-20450D02*
X56539Y-20450D01*
X56478Y-20511D02*
X56539Y-20450D01*
X56539Y-19256D02*
X56299Y-19016D01*
X56539Y-20450D02*
X56539Y-19256D01*
X56539Y-20450D02*
X57421Y-20450D01*
X58739Y-19132D02*
X59409Y-19132D01*
X57421Y-20450D02*
X58739Y-19132D01*
X59665Y-18835D02*
X59880Y-18620D01*
X59409Y-18835D02*
X59665Y-18835D01*
X59409Y-19132D02*
X59409Y-18835D01*
X60039Y-18620D02*
X59880Y-18620D01*
X58506Y-23603D02*
X58287Y-23385D01*
X58773Y-23603D02*
X58506Y-23603D01*
X59061Y-23316D02*
X58773Y-23603D01*
X59061Y-22942D02*
X59061Y-23316D01*
X59874Y-22128D02*
X59061Y-22942D01*
X60039Y-22128D02*
X59874Y-22128D01*
X58287Y-23385D02*
X58033Y-23385D01*
X57854Y-23385D02*
X57933Y-23385D01*
X57933Y-23385D02*
X58033Y-23385D01*
X57933Y-22598D02*
X57933Y-23385D01*
X56097Y-22204D02*
X56097Y-20727D01*
X56778Y-22885D02*
X56097Y-22204D01*
X57116Y-22885D02*
X56778Y-22885D01*
X57222Y-22779D02*
X57116Y-22885D01*
X57222Y-22369D02*
X57222Y-22779D01*
X57281Y-22310D02*
X57222Y-22369D01*
X57933Y-22310D02*
X57281Y-22310D01*
X57933Y-22598D02*
X57933Y-22310D01*
X56889Y-20747D02*
X56929Y-20786D01*
X56299Y-20747D02*
X56889Y-20747D01*
X57500Y-22954D02*
X57500Y-23385D01*
X57431Y-22885D02*
X57500Y-22954D01*
X57431Y-22598D02*
X57431Y-22885D01*
G54D10*
G36*
X58502Y-23178D02*
X58482Y-23197D01*
X58479Y-23191D01*
X58442Y-23153D01*
X58393Y-23133D01*
X58335Y-23133D01*
X58301Y-23166D01*
X58301Y-23371D01*
X58309Y-23371D01*
X58309Y-23398D01*
X58301Y-23398D01*
X58301Y-23406D01*
X58274Y-23406D01*
X58274Y-23398D01*
X58274Y-23371D01*
X58274Y-23166D01*
X58240Y-23133D01*
X58182Y-23133D01*
X58133Y-23153D01*
X58095Y-23191D01*
X58075Y-23240D01*
X58075Y-23293D01*
X58075Y-23337D01*
X58109Y-23371D01*
X58274Y-23371D01*
X58274Y-23398D01*
X58109Y-23398D01*
X58075Y-23432D01*
X58075Y-23476D01*
X58075Y-23529D01*
X58095Y-23578D01*
X58133Y-23616D01*
X58135Y-23617D01*
X58006Y-23617D01*
X58008Y-23616D01*
X58046Y-23578D01*
X58066Y-23529D01*
X58066Y-23476D01*
X58066Y-23432D01*
X58066Y-23337D01*
X58066Y-23293D01*
X58066Y-23240D01*
X58046Y-23191D01*
X58008Y-23153D01*
X57959Y-23133D01*
X57901Y-23133D01*
X57868Y-23166D01*
X57868Y-23371D01*
X58033Y-23371D01*
X58066Y-23337D01*
X58066Y-23432D01*
X58033Y-23398D01*
X57868Y-23398D01*
X57868Y-23406D01*
X57840Y-23406D01*
X57840Y-23398D01*
X57832Y-23398D01*
X57832Y-23371D01*
X57840Y-23371D01*
X57840Y-23166D01*
X57807Y-23133D01*
X57749Y-23133D01*
X57700Y-23153D01*
X57662Y-23191D01*
X57659Y-23197D01*
X57640Y-23178D01*
X57640Y-22954D01*
X57629Y-22901D01*
X57607Y-22867D01*
X57630Y-22845D01*
X57646Y-22806D01*
X57646Y-22763D01*
X57646Y-22389D01*
X57630Y-22350D01*
X57600Y-22320D01*
X57588Y-22316D01*
X57776Y-22316D01*
X57764Y-22320D01*
X57734Y-22350D01*
X57718Y-22389D01*
X57718Y-22432D01*
X57718Y-22806D01*
X57734Y-22845D01*
X57764Y-22875D01*
X57803Y-22891D01*
X57846Y-22891D01*
X58063Y-22891D01*
X58102Y-22875D01*
X58132Y-22845D01*
X58148Y-22806D01*
X58148Y-22763D01*
X58148Y-22389D01*
X58132Y-22350D01*
X58102Y-22320D01*
X58090Y-22316D01*
X58223Y-22316D01*
X58237Y-22330D01*
X58216Y-22350D01*
X58200Y-22389D01*
X58200Y-22432D01*
X58200Y-22806D01*
X58216Y-22845D01*
X58246Y-22875D01*
X58276Y-22887D01*
X58286Y-22939D01*
X58316Y-22984D01*
X58502Y-23169D01*
X58502Y-23178D01*
X58502Y-23178D01*
G37*
G54D25*
X58502Y-23178D02*
X58482Y-23197D01*
X58479Y-23191D01*
X58442Y-23153D01*
X58393Y-23133D01*
X58335Y-23133D01*
X58301Y-23166D01*
X58301Y-23371D01*
X58309Y-23371D01*
X58309Y-23398D01*
X58301Y-23398D01*
X58301Y-23406D01*
X58274Y-23406D01*
X58274Y-23398D01*
X58274Y-23371D01*
X58274Y-23166D01*
X58240Y-23133D01*
X58182Y-23133D01*
X58133Y-23153D01*
X58095Y-23191D01*
X58075Y-23240D01*
X58075Y-23293D01*
X58075Y-23337D01*
X58109Y-23371D01*
X58274Y-23371D01*
X58274Y-23398D01*
X58109Y-23398D01*
X58075Y-23432D01*
X58075Y-23476D01*
X58075Y-23529D01*
X58095Y-23578D01*
X58133Y-23616D01*
X58135Y-23617D01*
X58006Y-23617D01*
X58008Y-23616D01*
X58046Y-23578D01*
X58066Y-23529D01*
X58066Y-23476D01*
X58066Y-23432D01*
X58066Y-23337D01*
X58066Y-23293D01*
X58066Y-23240D01*
X58046Y-23191D01*
X58008Y-23153D01*
X57959Y-23133D01*
X57901Y-23133D01*
X57868Y-23166D01*
X57868Y-23371D01*
X58033Y-23371D01*
X58066Y-23337D01*
X58066Y-23432D01*
X58033Y-23398D01*
X57868Y-23398D01*
X57868Y-23406D01*
X57840Y-23406D01*
X57840Y-23398D01*
X57832Y-23398D01*
X57832Y-23371D01*
X57840Y-23371D01*
X57840Y-23166D01*
X57807Y-23133D01*
X57749Y-23133D01*
X57700Y-23153D01*
X57662Y-23191D01*
X57659Y-23197D01*
X57640Y-23178D01*
X57640Y-22954D01*
X57629Y-22901D01*
X57607Y-22867D01*
X57630Y-22845D01*
X57646Y-22806D01*
X57646Y-22763D01*
X57646Y-22389D01*
X57630Y-22350D01*
X57600Y-22320D01*
X57588Y-22316D01*
X57776Y-22316D01*
X57764Y-22320D01*
X57734Y-22350D01*
X57718Y-22389D01*
X57718Y-22432D01*
X57718Y-22806D01*
X57734Y-22845D01*
X57764Y-22875D01*
X57803Y-22891D01*
X57846Y-22891D01*
X58063Y-22891D01*
X58102Y-22875D01*
X58132Y-22845D01*
X58148Y-22806D01*
X58148Y-22763D01*
X58148Y-22389D01*
X58132Y-22350D01*
X58102Y-22320D01*
X58090Y-22316D01*
X58223Y-22316D01*
X58237Y-22330D01*
X58216Y-22350D01*
X58200Y-22389D01*
X58200Y-22432D01*
X58200Y-22806D01*
X58216Y-22845D01*
X58246Y-22875D01*
X58276Y-22887D01*
X58286Y-22939D01*
X58316Y-22984D01*
X58502Y-23169D01*
X58502Y-23178D01*
G54D10*
G36*
X61236Y-24745D02*
X61186Y-24993D01*
X61056Y-25189D01*
X60860Y-25319D01*
X60654Y-25360D01*
X60654Y-20643D01*
X60654Y-19132D01*
X60643Y-19079D01*
X60613Y-19034D01*
X60568Y-19003D01*
X60520Y-18994D01*
X60520Y-18914D01*
X60504Y-18875D01*
X60474Y-18845D01*
X60435Y-18829D01*
X60415Y-18829D01*
X60415Y-18768D01*
X60424Y-18759D01*
X60441Y-18720D01*
X60441Y-18678D01*
X60441Y-18521D01*
X60424Y-18482D01*
X60415Y-18472D01*
X60415Y-18441D01*
X60405Y-18388D01*
X60374Y-18342D01*
X60329Y-18312D01*
X60275Y-18301D01*
X59240Y-18301D01*
X59186Y-18312D01*
X59141Y-18342D01*
X59141Y-18342D01*
X58784Y-18699D01*
X58649Y-18699D01*
X58649Y-18245D01*
X58633Y-18206D01*
X58603Y-18176D01*
X58564Y-18160D01*
X58522Y-18160D01*
X58286Y-18160D01*
X58247Y-18176D01*
X58217Y-18206D01*
X58201Y-18245D01*
X58201Y-18288D01*
X58201Y-18699D01*
X58157Y-18699D01*
X58157Y-18245D01*
X58141Y-18206D01*
X58111Y-18176D01*
X58072Y-18160D01*
X58030Y-18160D01*
X57794Y-18160D01*
X57755Y-18176D01*
X57725Y-18206D01*
X57709Y-18245D01*
X57709Y-18288D01*
X57709Y-18699D01*
X57645Y-18699D01*
X57645Y-18245D01*
X57629Y-18206D01*
X57599Y-18176D01*
X57560Y-18160D01*
X57518Y-18160D01*
X57282Y-18160D01*
X57243Y-18176D01*
X57213Y-18206D01*
X57197Y-18245D01*
X57197Y-18288D01*
X57197Y-18699D01*
X57192Y-18699D01*
X57133Y-18640D01*
X57133Y-18245D01*
X57117Y-18206D01*
X57087Y-18176D01*
X57048Y-18160D01*
X57006Y-18160D01*
X56770Y-18160D01*
X56731Y-18176D01*
X56701Y-18206D01*
X56685Y-18245D01*
X56685Y-18288D01*
X56685Y-18453D01*
X56617Y-18384D01*
X56571Y-18354D01*
X56518Y-18343D01*
X56518Y-18343D01*
X56506Y-18343D01*
X56477Y-18315D01*
X56438Y-18298D01*
X56396Y-18298D01*
X56160Y-18298D01*
X56121Y-18315D01*
X56091Y-18344D01*
X56075Y-18384D01*
X56075Y-18426D01*
X56075Y-18583D01*
X56091Y-18622D01*
X56112Y-18643D01*
X56105Y-18645D01*
X56068Y-18683D01*
X56047Y-18732D01*
X56047Y-18790D01*
X56081Y-18823D01*
X56285Y-18823D01*
X56285Y-18816D01*
X56313Y-18816D01*
X56313Y-18823D01*
X56518Y-18823D01*
X56551Y-18790D01*
X56551Y-18732D01*
X56538Y-18701D01*
X56549Y-18713D01*
X56549Y-18713D01*
X56549Y-18713D01*
X56595Y-18743D01*
X56648Y-18754D01*
X56648Y-18754D01*
X56648Y-18754D01*
X56685Y-18754D01*
X56685Y-18760D01*
X56701Y-18799D01*
X56731Y-18829D01*
X56770Y-18845D01*
X56812Y-18845D01*
X56942Y-18845D01*
X57036Y-18938D01*
X57036Y-18938D01*
X57081Y-18968D01*
X57134Y-18979D01*
X58842Y-18979D01*
X58842Y-18979D01*
X58842Y-18979D01*
X58896Y-18968D01*
X58941Y-18938D01*
X59298Y-18581D01*
X59854Y-18581D01*
X59880Y-18607D01*
X60026Y-18607D01*
X60026Y-18599D01*
X60053Y-18599D01*
X60053Y-18607D01*
X60061Y-18607D01*
X60061Y-18634D01*
X60053Y-18634D01*
X60053Y-18799D01*
X60087Y-18833D01*
X60107Y-18833D01*
X60077Y-18845D01*
X60059Y-18864D01*
X60041Y-18845D01*
X60002Y-18829D01*
X59996Y-18829D01*
X60026Y-18799D01*
X60026Y-18634D01*
X59880Y-18634D01*
X59847Y-18668D01*
X59847Y-18672D01*
X59847Y-18725D01*
X59867Y-18775D01*
X59905Y-18812D01*
X59945Y-18829D01*
X59683Y-18829D01*
X59644Y-18845D01*
X59626Y-18864D01*
X59608Y-18845D01*
X59569Y-18829D01*
X59526Y-18829D01*
X59250Y-18829D01*
X59211Y-18845D01*
X59181Y-18875D01*
X59165Y-18914D01*
X59165Y-18957D01*
X59165Y-19351D01*
X59181Y-19390D01*
X59211Y-19419D01*
X59250Y-19436D01*
X59293Y-19436D01*
X59569Y-19436D01*
X59608Y-19419D01*
X59626Y-19401D01*
X59644Y-19419D01*
X59683Y-19436D01*
X59726Y-19436D01*
X60002Y-19436D01*
X60041Y-19419D01*
X60059Y-19401D01*
X60077Y-19419D01*
X60116Y-19436D01*
X60159Y-19436D01*
X60374Y-19436D01*
X60374Y-20089D01*
X60116Y-20089D01*
X60077Y-20105D01*
X60059Y-20124D01*
X60041Y-20105D01*
X60002Y-20089D01*
X59959Y-20089D01*
X59683Y-20089D01*
X59644Y-20105D01*
X59626Y-20124D01*
X59608Y-20105D01*
X59569Y-20089D01*
X59526Y-20089D01*
X59250Y-20089D01*
X59211Y-20105D01*
X59181Y-20135D01*
X59165Y-20174D01*
X59165Y-20217D01*
X59165Y-20252D01*
X59160Y-20247D01*
X59056Y-20204D01*
X58944Y-20204D01*
X58841Y-20246D01*
X58777Y-20310D01*
X57933Y-20310D01*
X57880Y-20321D01*
X57834Y-20351D01*
X57804Y-20396D01*
X57794Y-20444D01*
X57794Y-20444D01*
X57755Y-20460D01*
X57725Y-20490D01*
X57709Y-20529D01*
X57709Y-20572D01*
X57709Y-20983D01*
X57673Y-20983D01*
X57673Y-20834D01*
X57673Y-20739D01*
X57673Y-20577D01*
X57673Y-20524D01*
X57653Y-20475D01*
X57615Y-20437D01*
X57566Y-20417D01*
X57468Y-20417D01*
X57435Y-20450D01*
X57435Y-20773D01*
X57639Y-20773D01*
X57673Y-20739D01*
X57673Y-20834D01*
X57639Y-20800D01*
X57435Y-20800D01*
X57435Y-20808D01*
X57407Y-20808D01*
X57407Y-20800D01*
X57407Y-20773D01*
X57407Y-20450D01*
X57374Y-20417D01*
X57276Y-20417D01*
X57227Y-20437D01*
X57190Y-20475D01*
X57169Y-20524D01*
X57169Y-20577D01*
X57169Y-20739D01*
X57203Y-20773D01*
X57407Y-20773D01*
X57407Y-20800D01*
X57203Y-20800D01*
X57169Y-20834D01*
X57169Y-20996D01*
X57169Y-21049D01*
X57182Y-21081D01*
X57153Y-21110D01*
X57153Y-21044D01*
X57153Y-21001D01*
X57153Y-20529D01*
X57137Y-20490D01*
X57107Y-20460D01*
X57068Y-20444D01*
X57026Y-20444D01*
X56790Y-20444D01*
X56751Y-20460D01*
X56721Y-20490D01*
X56705Y-20529D01*
X56705Y-20572D01*
X56705Y-20607D01*
X56551Y-20607D01*
X56551Y-18942D01*
X56551Y-18884D01*
X56518Y-18851D01*
X56313Y-18851D01*
X56313Y-19016D01*
X56346Y-19050D01*
X56390Y-19050D01*
X56444Y-19050D01*
X56493Y-19029D01*
X56531Y-18992D01*
X56551Y-18942D01*
X56551Y-20607D01*
X56507Y-20607D01*
X56511Y-20596D01*
X56511Y-20558D01*
X56511Y-20463D01*
X56511Y-20425D01*
X56491Y-20376D01*
X56453Y-20338D01*
X56404Y-20318D01*
X56351Y-20318D01*
X56346Y-20318D01*
X56313Y-20351D01*
X56313Y-20497D01*
X56478Y-20497D01*
X56511Y-20463D01*
X56511Y-20558D01*
X56478Y-20524D01*
X56313Y-20524D01*
X56313Y-20532D01*
X56285Y-20532D01*
X56285Y-20524D01*
X56285Y-20497D01*
X56285Y-20351D01*
X56285Y-19016D01*
X56285Y-18851D01*
X56081Y-18851D01*
X56047Y-18884D01*
X56047Y-18942D01*
X56068Y-18992D01*
X56105Y-19029D01*
X56154Y-19050D01*
X56208Y-19050D01*
X56252Y-19050D01*
X56285Y-19016D01*
X56285Y-20351D01*
X56252Y-20318D01*
X56247Y-20318D01*
X56194Y-20318D01*
X56145Y-20338D01*
X56107Y-20376D01*
X56087Y-20425D01*
X56087Y-20463D01*
X56120Y-20497D01*
X56285Y-20497D01*
X56285Y-20524D01*
X56120Y-20524D01*
X56087Y-20558D01*
X56087Y-20596D01*
X56107Y-20646D01*
X56118Y-20657D01*
X56114Y-20667D01*
X56114Y-20709D01*
X56114Y-20827D01*
X56130Y-20866D01*
X56160Y-20896D01*
X56199Y-20912D01*
X56242Y-20912D01*
X56399Y-20912D01*
X56438Y-20896D01*
X56447Y-20887D01*
X56705Y-20887D01*
X56705Y-21044D01*
X56721Y-21083D01*
X56751Y-21113D01*
X56790Y-21129D01*
X56832Y-21129D01*
X57068Y-21129D01*
X57107Y-21113D01*
X57137Y-21083D01*
X57153Y-21044D01*
X57153Y-21110D01*
X56840Y-21423D01*
X56810Y-21468D01*
X56800Y-21520D01*
X56770Y-21532D01*
X56740Y-21562D01*
X56724Y-21601D01*
X56724Y-21644D01*
X56724Y-22018D01*
X56740Y-22057D01*
X56770Y-22087D01*
X56809Y-22103D01*
X56852Y-22103D01*
X56948Y-22103D01*
X56840Y-22211D01*
X56810Y-22256D01*
X56800Y-22308D01*
X56770Y-22320D01*
X56740Y-22350D01*
X56724Y-22389D01*
X56724Y-22432D01*
X56724Y-22806D01*
X56740Y-22845D01*
X56770Y-22875D01*
X56809Y-22891D01*
X56852Y-22891D01*
X57069Y-22891D01*
X57108Y-22875D01*
X57138Y-22845D01*
X57154Y-22806D01*
X57154Y-22763D01*
X57154Y-22389D01*
X57138Y-22350D01*
X57117Y-22330D01*
X57131Y-22316D01*
X57274Y-22316D01*
X57262Y-22320D01*
X57232Y-22350D01*
X57216Y-22389D01*
X57216Y-22432D01*
X57216Y-22806D01*
X57232Y-22845D01*
X57262Y-22875D01*
X57292Y-22887D01*
X57302Y-22939D01*
X57332Y-22984D01*
X57360Y-23012D01*
X57360Y-23178D01*
X57331Y-23206D01*
X57315Y-23245D01*
X57315Y-23288D01*
X57315Y-23440D01*
X55730Y-21855D01*
X55730Y-21540D01*
X55719Y-21482D01*
X55697Y-21450D01*
X55697Y-19745D01*
X55697Y-19702D01*
X55697Y-18363D01*
X55681Y-18324D01*
X55651Y-18294D01*
X55612Y-18278D01*
X55570Y-18278D01*
X54231Y-18278D01*
X54191Y-18294D01*
X54162Y-18324D01*
X54145Y-18363D01*
X54145Y-18406D01*
X54145Y-19745D01*
X54162Y-19784D01*
X54191Y-19813D01*
X54231Y-19830D01*
X54273Y-19830D01*
X55612Y-19830D01*
X55651Y-19813D01*
X55681Y-19784D01*
X55697Y-19745D01*
X55697Y-21450D01*
X55686Y-21434D01*
X55465Y-21212D01*
X55416Y-21180D01*
X55359Y-21168D01*
X55305Y-21168D01*
X55262Y-21104D01*
X55164Y-21038D01*
X55148Y-21035D01*
X55179Y-21027D01*
X55283Y-20951D01*
X55350Y-20841D01*
X55363Y-20792D01*
X55363Y-20662D01*
X55350Y-20613D01*
X55283Y-20503D01*
X55179Y-20427D01*
X55053Y-20396D01*
X54935Y-20396D01*
X54935Y-20713D01*
X55336Y-20713D01*
X55363Y-20662D01*
X55363Y-20792D01*
X55336Y-20741D01*
X54935Y-20741D01*
X54935Y-20749D01*
X54907Y-20749D01*
X54907Y-20741D01*
X54907Y-20713D01*
X54907Y-20396D01*
X54789Y-20396D01*
X54664Y-20427D01*
X54559Y-20503D01*
X54492Y-20613D01*
X54479Y-20662D01*
X54506Y-20713D01*
X54907Y-20713D01*
X54907Y-20741D01*
X54506Y-20741D01*
X54479Y-20792D01*
X54492Y-20841D01*
X54559Y-20951D01*
X54664Y-21027D01*
X54695Y-21035D01*
X54679Y-21038D01*
X54580Y-21104D01*
X54515Y-21202D01*
X54492Y-21318D01*
X54515Y-21434D01*
X54580Y-21532D01*
X54679Y-21598D01*
X54754Y-21613D01*
X54679Y-21628D01*
X54580Y-21694D01*
X54515Y-21792D01*
X54492Y-21908D01*
X54515Y-22024D01*
X54580Y-22122D01*
X54679Y-22188D01*
X54718Y-22196D01*
X54585Y-22196D01*
X54546Y-22212D01*
X54516Y-22242D01*
X54500Y-22281D01*
X54500Y-22323D01*
X54500Y-22717D01*
X54516Y-22756D01*
X54546Y-22786D01*
X54585Y-22802D01*
X54627Y-22802D01*
X55257Y-22802D01*
X55296Y-22786D01*
X55326Y-22756D01*
X55342Y-22717D01*
X55342Y-22695D01*
X57442Y-24794D01*
X57490Y-24826D01*
X57548Y-24838D01*
X59533Y-24838D01*
X59533Y-25049D01*
X59549Y-25088D01*
X59579Y-25118D01*
X59618Y-25134D01*
X59660Y-25134D01*
X60460Y-25134D01*
X60499Y-25118D01*
X60529Y-25088D01*
X60546Y-25049D01*
X60546Y-25007D01*
X60546Y-24327D01*
X60529Y-24288D01*
X60499Y-24258D01*
X60460Y-24241D01*
X60418Y-24241D01*
X59618Y-24241D01*
X59579Y-24258D01*
X59549Y-24288D01*
X59533Y-24327D01*
X59533Y-24369D01*
X59533Y-24538D01*
X57610Y-24538D01*
X55465Y-22393D01*
X55416Y-22361D01*
X55359Y-22349D01*
X55342Y-22349D01*
X55342Y-22281D01*
X55326Y-22242D01*
X55296Y-22212D01*
X55257Y-22196D01*
X55215Y-22196D01*
X55124Y-22196D01*
X55164Y-22188D01*
X55262Y-22122D01*
X55289Y-22081D01*
X57247Y-24039D01*
X57295Y-24071D01*
X57353Y-24083D01*
X59271Y-24083D01*
X59329Y-24071D01*
X59377Y-24039D01*
X59557Y-23859D01*
X59654Y-24003D01*
X59799Y-24100D01*
X59969Y-24134D01*
X60109Y-24134D01*
X60280Y-24100D01*
X60425Y-24003D01*
X60522Y-23859D01*
X60555Y-23688D01*
X60522Y-23517D01*
X60425Y-23372D01*
X60280Y-23275D01*
X60150Y-23250D01*
X60178Y-23208D01*
X60189Y-23150D01*
X60189Y-23118D01*
X60280Y-23100D01*
X60425Y-23003D01*
X60522Y-22859D01*
X60555Y-22688D01*
X60522Y-22517D01*
X60425Y-22372D01*
X60280Y-22275D01*
X60109Y-22241D01*
X60025Y-22241D01*
X60025Y-22162D01*
X60025Y-21702D01*
X59539Y-21702D01*
X59514Y-21775D01*
X59536Y-21856D01*
X59634Y-22013D01*
X59785Y-22120D01*
X59965Y-22162D01*
X60025Y-22162D01*
X60025Y-22241D01*
X59969Y-22241D01*
X59799Y-22275D01*
X59654Y-22372D01*
X59557Y-22517D01*
X59523Y-22688D01*
X59557Y-22859D01*
X59652Y-23001D01*
X59577Y-23001D01*
X59519Y-23012D01*
X59471Y-23044D01*
X58898Y-23617D01*
X58440Y-23617D01*
X58442Y-23616D01*
X58479Y-23578D01*
X58482Y-23572D01*
X58503Y-23593D01*
X58542Y-23609D01*
X58584Y-23609D01*
X58741Y-23609D01*
X58780Y-23593D01*
X58810Y-23563D01*
X58826Y-23524D01*
X58826Y-23481D01*
X58826Y-23245D01*
X58810Y-23206D01*
X58781Y-23178D01*
X58781Y-23112D01*
X58771Y-23058D01*
X58740Y-23013D01*
X58740Y-23013D01*
X58593Y-22865D01*
X58614Y-22845D01*
X58630Y-22806D01*
X58630Y-22763D01*
X58630Y-22433D01*
X58651Y-22442D01*
X58763Y-22442D01*
X58867Y-22399D01*
X58946Y-22320D01*
X58989Y-22217D01*
X58989Y-22105D01*
X58981Y-22085D01*
X59532Y-21534D01*
X59514Y-21600D01*
X59539Y-21674D01*
X60025Y-21674D01*
X60025Y-21214D01*
X59965Y-21214D01*
X59818Y-21248D01*
X59866Y-21200D01*
X60097Y-21200D01*
X60097Y-21200D01*
X60097Y-21200D01*
X60151Y-21189D01*
X60196Y-21159D01*
X60613Y-20742D01*
X60613Y-20742D01*
X60613Y-20742D01*
X60643Y-20697D01*
X60654Y-20643D01*
X60654Y-25360D01*
X60612Y-25369D01*
X60565Y-25369D01*
X60565Y-21775D01*
X60565Y-21600D01*
X60542Y-21519D01*
X60444Y-21362D01*
X60293Y-21255D01*
X60113Y-21214D01*
X60053Y-21214D01*
X60053Y-21674D01*
X60539Y-21674D01*
X60565Y-21600D01*
X60565Y-21775D01*
X60539Y-21702D01*
X60053Y-21702D01*
X60053Y-22162D01*
X60113Y-22162D01*
X60293Y-22120D01*
X60444Y-22013D01*
X60542Y-21856D01*
X60565Y-21775D01*
X60565Y-25369D01*
X55697Y-25369D01*
X55697Y-25060D01*
X55697Y-25017D01*
X55697Y-23678D01*
X55681Y-23639D01*
X55651Y-23609D01*
X55612Y-23593D01*
X55570Y-23593D01*
X54231Y-23593D01*
X54191Y-23609D01*
X54162Y-23639D01*
X54145Y-23678D01*
X54145Y-23721D01*
X54145Y-25060D01*
X54162Y-25099D01*
X54191Y-25128D01*
X54231Y-25145D01*
X54273Y-25145D01*
X55612Y-25145D01*
X55651Y-25128D01*
X55681Y-25099D01*
X55697Y-25060D01*
X55697Y-25369D01*
X54545Y-25369D01*
X54297Y-25319D01*
X54101Y-25189D01*
X53971Y-24993D01*
X53921Y-24745D01*
X53921Y-18678D01*
X53971Y-18430D01*
X54101Y-18234D01*
X54297Y-18104D01*
X54545Y-18054D01*
X60612Y-18054D01*
X60860Y-18104D01*
X61056Y-18234D01*
X61186Y-18430D01*
X61236Y-18678D01*
X61236Y-24745D01*
X61236Y-24745D01*
G37*
G54D25*
X61236Y-24745D02*
X61186Y-24993D01*
X61056Y-25189D01*
X60860Y-25319D01*
X60654Y-25360D01*
X60654Y-20643D01*
X60654Y-19132D01*
X60643Y-19079D01*
X60613Y-19034D01*
X60568Y-19003D01*
X60520Y-18994D01*
X60520Y-18914D01*
X60504Y-18875D01*
X60474Y-18845D01*
X60435Y-18829D01*
X60415Y-18829D01*
X60415Y-18768D01*
X60424Y-18759D01*
X60441Y-18720D01*
X60441Y-18678D01*
X60441Y-18521D01*
X60424Y-18482D01*
X60415Y-18472D01*
X60415Y-18441D01*
X60405Y-18388D01*
X60374Y-18342D01*
X60329Y-18312D01*
X60275Y-18301D01*
X59240Y-18301D01*
X59186Y-18312D01*
X59141Y-18342D01*
X59141Y-18342D01*
X58784Y-18699D01*
X58649Y-18699D01*
X58649Y-18245D01*
X58633Y-18206D01*
X58603Y-18176D01*
X58564Y-18160D01*
X58522Y-18160D01*
X58286Y-18160D01*
X58247Y-18176D01*
X58217Y-18206D01*
X58201Y-18245D01*
X58201Y-18288D01*
X58201Y-18699D01*
X58157Y-18699D01*
X58157Y-18245D01*
X58141Y-18206D01*
X58111Y-18176D01*
X58072Y-18160D01*
X58030Y-18160D01*
X57794Y-18160D01*
X57755Y-18176D01*
X57725Y-18206D01*
X57709Y-18245D01*
X57709Y-18288D01*
X57709Y-18699D01*
X57645Y-18699D01*
X57645Y-18245D01*
X57629Y-18206D01*
X57599Y-18176D01*
X57560Y-18160D01*
X57518Y-18160D01*
X57282Y-18160D01*
X57243Y-18176D01*
X57213Y-18206D01*
X57197Y-18245D01*
X57197Y-18288D01*
X57197Y-18699D01*
X57192Y-18699D01*
X57133Y-18640D01*
X57133Y-18245D01*
X57117Y-18206D01*
X57087Y-18176D01*
X57048Y-18160D01*
X57006Y-18160D01*
X56770Y-18160D01*
X56731Y-18176D01*
X56701Y-18206D01*
X56685Y-18245D01*
X56685Y-18288D01*
X56685Y-18453D01*
X56617Y-18384D01*
X56571Y-18354D01*
X56518Y-18343D01*
X56518Y-18343D01*
X56506Y-18343D01*
X56477Y-18315D01*
X56438Y-18298D01*
X56396Y-18298D01*
X56160Y-18298D01*
X56121Y-18315D01*
X56091Y-18344D01*
X56075Y-18384D01*
X56075Y-18426D01*
X56075Y-18583D01*
X56091Y-18622D01*
X56112Y-18643D01*
X56105Y-18645D01*
X56068Y-18683D01*
X56047Y-18732D01*
X56047Y-18790D01*
X56081Y-18823D01*
X56285Y-18823D01*
X56285Y-18816D01*
X56313Y-18816D01*
X56313Y-18823D01*
X56518Y-18823D01*
X56551Y-18790D01*
X56551Y-18732D01*
X56538Y-18701D01*
X56549Y-18713D01*
X56549Y-18713D01*
X56549Y-18713D01*
X56595Y-18743D01*
X56648Y-18754D01*
X56648Y-18754D01*
X56648Y-18754D01*
X56685Y-18754D01*
X56685Y-18760D01*
X56701Y-18799D01*
X56731Y-18829D01*
X56770Y-18845D01*
X56812Y-18845D01*
X56942Y-18845D01*
X57036Y-18938D01*
X57036Y-18938D01*
X57081Y-18968D01*
X57134Y-18979D01*
X58842Y-18979D01*
X58842Y-18979D01*
X58842Y-18979D01*
X58896Y-18968D01*
X58941Y-18938D01*
X59298Y-18581D01*
X59854Y-18581D01*
X59880Y-18607D01*
X60026Y-18607D01*
X60026Y-18599D01*
X60053Y-18599D01*
X60053Y-18607D01*
X60061Y-18607D01*
X60061Y-18634D01*
X60053Y-18634D01*
X60053Y-18799D01*
X60087Y-18833D01*
X60107Y-18833D01*
X60077Y-18845D01*
X60059Y-18864D01*
X60041Y-18845D01*
X60002Y-18829D01*
X59996Y-18829D01*
X60026Y-18799D01*
X60026Y-18634D01*
X59880Y-18634D01*
X59847Y-18668D01*
X59847Y-18672D01*
X59847Y-18725D01*
X59867Y-18775D01*
X59905Y-18812D01*
X59945Y-18829D01*
X59683Y-18829D01*
X59644Y-18845D01*
X59626Y-18864D01*
X59608Y-18845D01*
X59569Y-18829D01*
X59526Y-18829D01*
X59250Y-18829D01*
X59211Y-18845D01*
X59181Y-18875D01*
X59165Y-18914D01*
X59165Y-18957D01*
X59165Y-19351D01*
X59181Y-19390D01*
X59211Y-19419D01*
X59250Y-19436D01*
X59293Y-19436D01*
X59569Y-19436D01*
X59608Y-19419D01*
X59626Y-19401D01*
X59644Y-19419D01*
X59683Y-19436D01*
X59726Y-19436D01*
X60002Y-19436D01*
X60041Y-19419D01*
X60059Y-19401D01*
X60077Y-19419D01*
X60116Y-19436D01*
X60159Y-19436D01*
X60374Y-19436D01*
X60374Y-20089D01*
X60116Y-20089D01*
X60077Y-20105D01*
X60059Y-20124D01*
X60041Y-20105D01*
X60002Y-20089D01*
X59959Y-20089D01*
X59683Y-20089D01*
X59644Y-20105D01*
X59626Y-20124D01*
X59608Y-20105D01*
X59569Y-20089D01*
X59526Y-20089D01*
X59250Y-20089D01*
X59211Y-20105D01*
X59181Y-20135D01*
X59165Y-20174D01*
X59165Y-20217D01*
X59165Y-20252D01*
X59160Y-20247D01*
X59056Y-20204D01*
X58944Y-20204D01*
X58841Y-20246D01*
X58777Y-20310D01*
X57933Y-20310D01*
X57880Y-20321D01*
X57834Y-20351D01*
X57804Y-20396D01*
X57794Y-20444D01*
X57794Y-20444D01*
X57755Y-20460D01*
X57725Y-20490D01*
X57709Y-20529D01*
X57709Y-20572D01*
X57709Y-20983D01*
X57673Y-20983D01*
X57673Y-20834D01*
X57673Y-20739D01*
X57673Y-20577D01*
X57673Y-20524D01*
X57653Y-20475D01*
X57615Y-20437D01*
X57566Y-20417D01*
X57468Y-20417D01*
X57435Y-20450D01*
X57435Y-20773D01*
X57639Y-20773D01*
X57673Y-20739D01*
X57673Y-20834D01*
X57639Y-20800D01*
X57435Y-20800D01*
X57435Y-20808D01*
X57407Y-20808D01*
X57407Y-20800D01*
X57407Y-20773D01*
X57407Y-20450D01*
X57374Y-20417D01*
X57276Y-20417D01*
X57227Y-20437D01*
X57190Y-20475D01*
X57169Y-20524D01*
X57169Y-20577D01*
X57169Y-20739D01*
X57203Y-20773D01*
X57407Y-20773D01*
X57407Y-20800D01*
X57203Y-20800D01*
X57169Y-20834D01*
X57169Y-20996D01*
X57169Y-21049D01*
X57182Y-21081D01*
X57153Y-21110D01*
X57153Y-21044D01*
X57153Y-21001D01*
X57153Y-20529D01*
X57137Y-20490D01*
X57107Y-20460D01*
X57068Y-20444D01*
X57026Y-20444D01*
X56790Y-20444D01*
X56751Y-20460D01*
X56721Y-20490D01*
X56705Y-20529D01*
X56705Y-20572D01*
X56705Y-20607D01*
X56551Y-20607D01*
X56551Y-18942D01*
X56551Y-18884D01*
X56518Y-18851D01*
X56313Y-18851D01*
X56313Y-19016D01*
X56346Y-19050D01*
X56390Y-19050D01*
X56444Y-19050D01*
X56493Y-19029D01*
X56531Y-18992D01*
X56551Y-18942D01*
X56551Y-20607D01*
X56507Y-20607D01*
X56511Y-20596D01*
X56511Y-20558D01*
X56511Y-20463D01*
X56511Y-20425D01*
X56491Y-20376D01*
X56453Y-20338D01*
X56404Y-20318D01*
X56351Y-20318D01*
X56346Y-20318D01*
X56313Y-20351D01*
X56313Y-20497D01*
X56478Y-20497D01*
X56511Y-20463D01*
X56511Y-20558D01*
X56478Y-20524D01*
X56313Y-20524D01*
X56313Y-20532D01*
X56285Y-20532D01*
X56285Y-20524D01*
X56285Y-20497D01*
X56285Y-20351D01*
X56285Y-19016D01*
X56285Y-18851D01*
X56081Y-18851D01*
X56047Y-18884D01*
X56047Y-18942D01*
X56068Y-18992D01*
X56105Y-19029D01*
X56154Y-19050D01*
X56208Y-19050D01*
X56252Y-19050D01*
X56285Y-19016D01*
X56285Y-20351D01*
X56252Y-20318D01*
X56247Y-20318D01*
X56194Y-20318D01*
X56145Y-20338D01*
X56107Y-20376D01*
X56087Y-20425D01*
X56087Y-20463D01*
X56120Y-20497D01*
X56285Y-20497D01*
X56285Y-20524D01*
X56120Y-20524D01*
X56087Y-20558D01*
X56087Y-20596D01*
X56107Y-20646D01*
X56118Y-20657D01*
X56114Y-20667D01*
X56114Y-20709D01*
X56114Y-20827D01*
X56130Y-20866D01*
X56160Y-20896D01*
X56199Y-20912D01*
X56242Y-20912D01*
X56399Y-20912D01*
X56438Y-20896D01*
X56447Y-20887D01*
X56705Y-20887D01*
X56705Y-21044D01*
X56721Y-21083D01*
X56751Y-21113D01*
X56790Y-21129D01*
X56832Y-21129D01*
X57068Y-21129D01*
X57107Y-21113D01*
X57137Y-21083D01*
X57153Y-21044D01*
X57153Y-21110D01*
X56840Y-21423D01*
X56810Y-21468D01*
X56800Y-21520D01*
X56770Y-21532D01*
X56740Y-21562D01*
X56724Y-21601D01*
X56724Y-21644D01*
X56724Y-22018D01*
X56740Y-22057D01*
X56770Y-22087D01*
X56809Y-22103D01*
X56852Y-22103D01*
X56948Y-22103D01*
X56840Y-22211D01*
X56810Y-22256D01*
X56800Y-22308D01*
X56770Y-22320D01*
X56740Y-22350D01*
X56724Y-22389D01*
X56724Y-22432D01*
X56724Y-22806D01*
X56740Y-22845D01*
X56770Y-22875D01*
X56809Y-22891D01*
X56852Y-22891D01*
X57069Y-22891D01*
X57108Y-22875D01*
X57138Y-22845D01*
X57154Y-22806D01*
X57154Y-22763D01*
X57154Y-22389D01*
X57138Y-22350D01*
X57117Y-22330D01*
X57131Y-22316D01*
X57274Y-22316D01*
X57262Y-22320D01*
X57232Y-22350D01*
X57216Y-22389D01*
X57216Y-22432D01*
X57216Y-22806D01*
X57232Y-22845D01*
X57262Y-22875D01*
X57292Y-22887D01*
X57302Y-22939D01*
X57332Y-22984D01*
X57360Y-23012D01*
X57360Y-23178D01*
X57331Y-23206D01*
X57315Y-23245D01*
X57315Y-23288D01*
X57315Y-23440D01*
X55730Y-21855D01*
X55730Y-21540D01*
X55719Y-21482D01*
X55697Y-21450D01*
X55697Y-19745D01*
X55697Y-19702D01*
X55697Y-18363D01*
X55681Y-18324D01*
X55651Y-18294D01*
X55612Y-18278D01*
X55570Y-18278D01*
X54231Y-18278D01*
X54191Y-18294D01*
X54162Y-18324D01*
X54145Y-18363D01*
X54145Y-18406D01*
X54145Y-19745D01*
X54162Y-19784D01*
X54191Y-19813D01*
X54231Y-19830D01*
X54273Y-19830D01*
X55612Y-19830D01*
X55651Y-19813D01*
X55681Y-19784D01*
X55697Y-19745D01*
X55697Y-21450D01*
X55686Y-21434D01*
X55465Y-21212D01*
X55416Y-21180D01*
X55359Y-21168D01*
X55305Y-21168D01*
X55262Y-21104D01*
X55164Y-21038D01*
X55148Y-21035D01*
X55179Y-21027D01*
X55283Y-20951D01*
X55350Y-20841D01*
X55363Y-20792D01*
X55363Y-20662D01*
X55350Y-20613D01*
X55283Y-20503D01*
X55179Y-20427D01*
X55053Y-20396D01*
X54935Y-20396D01*
X54935Y-20713D01*
X55336Y-20713D01*
X55363Y-20662D01*
X55363Y-20792D01*
X55336Y-20741D01*
X54935Y-20741D01*
X54935Y-20749D01*
X54907Y-20749D01*
X54907Y-20741D01*
X54907Y-20713D01*
X54907Y-20396D01*
X54789Y-20396D01*
X54664Y-20427D01*
X54559Y-20503D01*
X54492Y-20613D01*
X54479Y-20662D01*
X54506Y-20713D01*
X54907Y-20713D01*
X54907Y-20741D01*
X54506Y-20741D01*
X54479Y-20792D01*
X54492Y-20841D01*
X54559Y-20951D01*
X54664Y-21027D01*
X54695Y-21035D01*
X54679Y-21038D01*
X54580Y-21104D01*
X54515Y-21202D01*
X54492Y-21318D01*
X54515Y-21434D01*
X54580Y-21532D01*
X54679Y-21598D01*
X54754Y-21613D01*
X54679Y-21628D01*
X54580Y-21694D01*
X54515Y-21792D01*
X54492Y-21908D01*
X54515Y-22024D01*
X54580Y-22122D01*
X54679Y-22188D01*
X54718Y-22196D01*
X54585Y-22196D01*
X54546Y-22212D01*
X54516Y-22242D01*
X54500Y-22281D01*
X54500Y-22323D01*
X54500Y-22717D01*
X54516Y-22756D01*
X54546Y-22786D01*
X54585Y-22802D01*
X54627Y-22802D01*
X55257Y-22802D01*
X55296Y-22786D01*
X55326Y-22756D01*
X55342Y-22717D01*
X55342Y-22695D01*
X57442Y-24794D01*
X57490Y-24826D01*
X57548Y-24838D01*
X59533Y-24838D01*
X59533Y-25049D01*
X59549Y-25088D01*
X59579Y-25118D01*
X59618Y-25134D01*
X59660Y-25134D01*
X60460Y-25134D01*
X60499Y-25118D01*
X60529Y-25088D01*
X60546Y-25049D01*
X60546Y-25007D01*
X60546Y-24327D01*
X60529Y-24288D01*
X60499Y-24258D01*
X60460Y-24241D01*
X60418Y-24241D01*
X59618Y-24241D01*
X59579Y-24258D01*
X59549Y-24288D01*
X59533Y-24327D01*
X59533Y-24369D01*
X59533Y-24538D01*
X57610Y-24538D01*
X55465Y-22393D01*
X55416Y-22361D01*
X55359Y-22349D01*
X55342Y-22349D01*
X55342Y-22281D01*
X55326Y-22242D01*
X55296Y-22212D01*
X55257Y-22196D01*
X55215Y-22196D01*
X55124Y-22196D01*
X55164Y-22188D01*
X55262Y-22122D01*
X55289Y-22081D01*
X57247Y-24039D01*
X57295Y-24071D01*
X57353Y-24083D01*
X59271Y-24083D01*
X59329Y-24071D01*
X59377Y-24039D01*
X59557Y-23859D01*
X59654Y-24003D01*
X59799Y-24100D01*
X59969Y-24134D01*
X60109Y-24134D01*
X60280Y-24100D01*
X60425Y-24003D01*
X60522Y-23859D01*
X60555Y-23688D01*
X60522Y-23517D01*
X60425Y-23372D01*
X60280Y-23275D01*
X60150Y-23250D01*
X60178Y-23208D01*
X60189Y-23150D01*
X60189Y-23118D01*
X60280Y-23100D01*
X60425Y-23003D01*
X60522Y-22859D01*
X60555Y-22688D01*
X60522Y-22517D01*
X60425Y-22372D01*
X60280Y-22275D01*
X60109Y-22241D01*
X60025Y-22241D01*
X60025Y-22162D01*
X60025Y-21702D01*
X59539Y-21702D01*
X59514Y-21775D01*
X59536Y-21856D01*
X59634Y-22013D01*
X59785Y-22120D01*
X59965Y-22162D01*
X60025Y-22162D01*
X60025Y-22241D01*
X59969Y-22241D01*
X59799Y-22275D01*
X59654Y-22372D01*
X59557Y-22517D01*
X59523Y-22688D01*
X59557Y-22859D01*
X59652Y-23001D01*
X59577Y-23001D01*
X59519Y-23012D01*
X59471Y-23044D01*
X58898Y-23617D01*
X58440Y-23617D01*
X58442Y-23616D01*
X58479Y-23578D01*
X58482Y-23572D01*
X58503Y-23593D01*
X58542Y-23609D01*
X58584Y-23609D01*
X58741Y-23609D01*
X58780Y-23593D01*
X58810Y-23563D01*
X58826Y-23524D01*
X58826Y-23481D01*
X58826Y-23245D01*
X58810Y-23206D01*
X58781Y-23178D01*
X58781Y-23112D01*
X58771Y-23058D01*
X58740Y-23013D01*
X58740Y-23013D01*
X58593Y-22865D01*
X58614Y-22845D01*
X58630Y-22806D01*
X58630Y-22763D01*
X58630Y-22433D01*
X58651Y-22442D01*
X58763Y-22442D01*
X58867Y-22399D01*
X58946Y-22320D01*
X58989Y-22217D01*
X58989Y-22105D01*
X58981Y-22085D01*
X59532Y-21534D01*
X59514Y-21600D01*
X59539Y-21674D01*
X60025Y-21674D01*
X60025Y-21214D01*
X59965Y-21214D01*
X59818Y-21248D01*
X59866Y-21200D01*
X60097Y-21200D01*
X60097Y-21200D01*
X60097Y-21200D01*
X60151Y-21189D01*
X60196Y-21159D01*
X60613Y-20742D01*
X60613Y-20742D01*
X60613Y-20742D01*
X60643Y-20697D01*
X60654Y-20643D01*
X60654Y-25360D01*
X60612Y-25369D01*
X60565Y-25369D01*
X60565Y-21775D01*
X60565Y-21600D01*
X60542Y-21519D01*
X60444Y-21362D01*
X60293Y-21255D01*
X60113Y-21214D01*
X60053Y-21214D01*
X60053Y-21674D01*
X60539Y-21674D01*
X60565Y-21600D01*
X60565Y-21775D01*
X60539Y-21702D01*
X60053Y-21702D01*
X60053Y-22162D01*
X60113Y-22162D01*
X60293Y-22120D01*
X60444Y-22013D01*
X60542Y-21856D01*
X60565Y-21775D01*
X60565Y-25369D01*
X55697Y-25369D01*
X55697Y-25060D01*
X55697Y-25017D01*
X55697Y-23678D01*
X55681Y-23639D01*
X55651Y-23609D01*
X55612Y-23593D01*
X55570Y-23593D01*
X54231Y-23593D01*
X54191Y-23609D01*
X54162Y-23639D01*
X54145Y-23678D01*
X54145Y-23721D01*
X54145Y-25060D01*
X54162Y-25099D01*
X54191Y-25128D01*
X54231Y-25145D01*
X54273Y-25145D01*
X55612Y-25145D01*
X55651Y-25128D01*
X55681Y-25099D01*
X55697Y-25060D01*
X55697Y-25369D01*
X54545Y-25369D01*
X54297Y-25319D01*
X54101Y-25189D01*
X53971Y-24993D01*
X53921Y-24745D01*
X53921Y-18678D01*
X53971Y-18430D01*
X54101Y-18234D01*
X54297Y-18104D01*
X54545Y-18054D01*
X60612Y-18054D01*
X60860Y-18104D01*
X61056Y-18234D01*
X61186Y-18430D01*
X61236Y-18678D01*
X61236Y-24745D01*
M02*
