%FSLAX34Y34*%
G04 Gerber Fmt 3.4, Leading zero omitted, Abs format*
G04 (created by PCBNEW (2014-03-19 BZR 4756)-product) date Mon 07 Jul 2014 23:49:35 BST*
%MOIN*%
G01*
G70*
G90*
G04 APERTURE LIST*
%ADD10C,0.005906*%
%ADD11C,0.015000*%
%ADD12C,0.006700*%
%ADD13O,0.062992X0.039370*%
%ADD14R,0.062992X0.039370*%
%ADD15R,0.039400X0.027600*%
%ADD16R,0.015700X0.023600*%
%ADD17R,0.023600X0.015700*%
%ADD18R,0.133900X0.133900*%
%ADD19R,0.013800X0.031500*%
%ADD20R,0.011800X0.015700*%
%ADD21R,0.015700X0.011800*%
%ADD22R,0.080000X0.068000*%
%ADD23O,0.080000X0.068000*%
G04 APERTURE END LIST*
G54D10*
G54D11*
X84449Y-18896D02*
X78543Y-18896D01*
X85236Y-19684D02*
G75*
G03X84449Y-18896I-787J0D01*
G74*
G01*
X85236Y-25786D02*
X85236Y-19684D01*
X77756Y-19881D02*
X77756Y-19684D01*
X78543Y-18896D02*
G75*
G03X77756Y-19684I0J-787D01*
G74*
G01*
X77756Y-25786D02*
X77756Y-19881D01*
X84449Y-26574D02*
X84055Y-26574D01*
X84449Y-26574D02*
G75*
G03X85236Y-25786I0J787D01*
G74*
G01*
X78543Y-26574D02*
X84055Y-26574D01*
X77756Y-25786D02*
G75*
G03X78543Y-26574I787J0D01*
G74*
G01*
G54D12*
X78007Y-23838D02*
X78007Y-24018D01*
X78007Y-23928D02*
X78322Y-23928D01*
X78277Y-23958D01*
X78247Y-23988D01*
X78232Y-24018D01*
X78322Y-23643D02*
X78322Y-23613D01*
X78307Y-23583D01*
X78292Y-23568D01*
X78262Y-23553D01*
X78202Y-23538D01*
X78127Y-23538D01*
X78067Y-23553D01*
X78037Y-23568D01*
X78022Y-23583D01*
X78007Y-23613D01*
X78007Y-23643D01*
X78022Y-23673D01*
X78037Y-23688D01*
X78067Y-23703D01*
X78127Y-23718D01*
X78202Y-23718D01*
X78262Y-23703D01*
X78292Y-23688D01*
X78307Y-23673D01*
X78322Y-23643D01*
X78217Y-23448D02*
X78217Y-23328D01*
X78322Y-23403D02*
X78052Y-23403D01*
X78022Y-23388D01*
X78007Y-23358D01*
X78007Y-23328D01*
X78007Y-23178D02*
X78022Y-23208D01*
X78037Y-23223D01*
X78067Y-23238D01*
X78157Y-23238D01*
X78187Y-23223D01*
X78202Y-23208D01*
X78217Y-23178D01*
X78217Y-23133D01*
X78202Y-23103D01*
X78187Y-23088D01*
X78157Y-23073D01*
X78067Y-23073D01*
X78037Y-23088D01*
X78022Y-23103D01*
X78007Y-23133D01*
X78007Y-23178D01*
X78322Y-22968D02*
X78322Y-22758D01*
X78007Y-22893D01*
X78037Y-22638D02*
X78022Y-22623D01*
X78007Y-22638D01*
X78022Y-22653D01*
X78037Y-22638D01*
X78007Y-22638D01*
X78022Y-22353D02*
X78007Y-22383D01*
X78007Y-22443D01*
X78022Y-22473D01*
X78037Y-22488D01*
X78067Y-22503D01*
X78157Y-22503D01*
X78187Y-22488D01*
X78202Y-22473D01*
X78217Y-22443D01*
X78217Y-22383D01*
X78202Y-22353D01*
X78007Y-22173D02*
X78022Y-22203D01*
X78037Y-22218D01*
X78067Y-22233D01*
X78157Y-22233D01*
X78187Y-22218D01*
X78202Y-22203D01*
X78217Y-22173D01*
X78217Y-22128D01*
X78202Y-22098D01*
X78187Y-22083D01*
X78157Y-22068D01*
X78067Y-22068D01*
X78037Y-22083D01*
X78022Y-22098D01*
X78007Y-22128D01*
X78007Y-22173D01*
X78007Y-21933D02*
X78217Y-21933D01*
X78187Y-21933D02*
X78202Y-21918D01*
X78217Y-21888D01*
X78217Y-21843D01*
X78202Y-21813D01*
X78172Y-21798D01*
X78007Y-21798D01*
X78172Y-21798D02*
X78202Y-21783D01*
X78217Y-21753D01*
X78217Y-21708D01*
X78202Y-21678D01*
X78172Y-21663D01*
X78007Y-21663D01*
G54D10*
G36*
X82824Y-23965D02*
X82824Y-24083D01*
X82607Y-24083D01*
X82607Y-23965D01*
X82824Y-23965D01*
X82824Y-23965D01*
G37*
G36*
X82824Y-24221D02*
X82824Y-24339D01*
X82607Y-24339D01*
X82607Y-24221D01*
X82824Y-24221D01*
X82824Y-24221D01*
G37*
G36*
X82824Y-24477D02*
X82824Y-24595D01*
X82607Y-24595D01*
X82607Y-24477D01*
X82824Y-24477D01*
X82824Y-24477D01*
G37*
G36*
X82824Y-24733D02*
X82824Y-24851D01*
X82607Y-24851D01*
X82607Y-24733D01*
X82824Y-24733D01*
X82824Y-24733D01*
G37*
G36*
X80778Y-24733D02*
X80778Y-24851D01*
X80561Y-24851D01*
X80561Y-24733D01*
X80778Y-24733D01*
X80778Y-24733D01*
G37*
G36*
X80778Y-24477D02*
X80778Y-24595D01*
X80561Y-24595D01*
X80561Y-24477D01*
X80778Y-24477D01*
X80778Y-24477D01*
G37*
G36*
X80778Y-24221D02*
X80778Y-24339D01*
X80561Y-24339D01*
X80561Y-24221D01*
X80778Y-24221D01*
X80778Y-24221D01*
G37*
G36*
X80778Y-23965D02*
X80778Y-24083D01*
X80561Y-24083D01*
X80561Y-23965D01*
X80778Y-23965D01*
X80778Y-23965D01*
G37*
G54D13*
X78937Y-22932D03*
X78937Y-22342D03*
G54D14*
X78937Y-23523D03*
G54D13*
X78937Y-21751D03*
G54D15*
X80681Y-20944D03*
X81681Y-21319D03*
X81681Y-20569D03*
G54D16*
X81535Y-21850D03*
X81181Y-21850D03*
G54D17*
X80550Y-20452D03*
X80550Y-20098D03*
G54D18*
X78937Y-25392D03*
X78937Y-20077D03*
G54D10*
G36*
X82706Y-21120D02*
X82568Y-21120D01*
X82568Y-20805D01*
X82706Y-20805D01*
X82706Y-21120D01*
X82706Y-21120D01*
G37*
G36*
X82706Y-20688D02*
X82568Y-20688D01*
X82568Y-20373D01*
X82706Y-20373D01*
X82706Y-20688D01*
X82706Y-20688D01*
G37*
G36*
X82903Y-21120D02*
X82765Y-21120D01*
X82765Y-20805D01*
X82903Y-20805D01*
X82903Y-21120D01*
X82903Y-21120D01*
G37*
G54D19*
X82834Y-20531D03*
X82440Y-20963D03*
X82440Y-20531D03*
G54D20*
X80669Y-25278D03*
X80905Y-25278D03*
G54D21*
X80236Y-24014D03*
X80236Y-23778D03*
X82441Y-21417D03*
X82441Y-21653D03*
X82441Y-19881D03*
X82441Y-20117D03*
G54D22*
X84055Y-25711D03*
G54D23*
X84055Y-24711D03*
X84055Y-23711D03*
X84055Y-22711D03*
M02*
