G04 (created by PCBNEW-RS274X (2012-apr-16-27)-stable) date Sat 17 May 2014 12:29:47 BST*
G01*
G70*
G90*
%MOIN*%
G04 Gerber Fmt 3.4, Leading zero omitted, Abs format*
%FSLAX34Y34*%
G04 APERTURE LIST*
%ADD10C,0.006000*%
%ADD11C,0.015000*%
G04 APERTURE END LIST*
G54D10*
G54D11*
X21457Y-32637D02*
X26772Y-32637D01*
X20276Y-31456D02*
X20281Y-31558D01*
X20294Y-31661D01*
X20317Y-31761D01*
X20348Y-31859D01*
X20387Y-31955D01*
X20435Y-32046D01*
X20490Y-32133D01*
X20553Y-32215D01*
X20622Y-32291D01*
X20698Y-32360D01*
X20780Y-32423D01*
X20867Y-32478D01*
X20958Y-32526D01*
X21054Y-32565D01*
X21152Y-32596D01*
X21252Y-32619D01*
X21355Y-32632D01*
X21457Y-32637D01*
X20276Y-26102D02*
X20276Y-31456D01*
X21496Y-24961D02*
X21394Y-24962D01*
X21291Y-24972D01*
X21190Y-24991D01*
X21091Y-25019D01*
X20994Y-25055D01*
X20901Y-25100D01*
X20813Y-25152D01*
X20729Y-25212D01*
X20651Y-25279D01*
X20578Y-25353D01*
X20513Y-25432D01*
X20455Y-25517D01*
X20404Y-25607D01*
X20362Y-25701D01*
X20328Y-25798D01*
X20302Y-25898D01*
X20285Y-26000D01*
X20277Y-26102D01*
X26772Y-24960D02*
X21457Y-24960D01*
X27953Y-26141D02*
X27948Y-26039D01*
X27935Y-25936D01*
X27912Y-25836D01*
X27881Y-25738D01*
X27842Y-25642D01*
X27794Y-25551D01*
X27739Y-25464D01*
X27676Y-25382D01*
X27607Y-25306D01*
X27531Y-25237D01*
X27449Y-25174D01*
X27362Y-25119D01*
X27271Y-25071D01*
X27175Y-25032D01*
X27077Y-25001D01*
X26977Y-24978D01*
X26874Y-24965D01*
X26772Y-24960D01*
X27953Y-31456D02*
X27953Y-26141D01*
X26772Y-32637D02*
X26874Y-32632D01*
X26977Y-32619D01*
X27077Y-32596D01*
X27175Y-32565D01*
X27271Y-32526D01*
X27362Y-32478D01*
X27449Y-32423D01*
X27531Y-32360D01*
X27607Y-32291D01*
X27676Y-32215D01*
X27739Y-32133D01*
X27794Y-32046D01*
X27842Y-31955D01*
X27881Y-31859D01*
X27912Y-31761D01*
X27935Y-31661D01*
X27948Y-31558D01*
X27953Y-31456D01*
M02*
